<?xml version="1.0" encoding="utf-8"?>
<!-- Generator: Adobe Illustrator 16.0.0, SVG Export Plug-In . SVG Version: 6.00 Build 0)  -->
<!DOCTYPE svg PUBLIC "-//W3C//DTD SVG 1.1//EN" "http://www.w3.org/Graphics/SVG/1.1/DTD/svg11.dtd">
<svg version="1.1" id="Layer_1" xmlns="http://www.w3.org/2000/svg" xmlns:xlink="http://www.w3.org/1999/xlink" x="0px" y="0px"
	 width="280px" height="175px" viewBox="0 0 280 175" enable-background="new 0 0 280 175" xml:space="preserve">
<title>LT</title>
<desc>Created with Sketch.</desc>
<g id="logo">
	<g id="LT">
		<g id="Group-6-Copy">
			<g id="Group-4" transform="translate(38.000000, 57.000000)">
				<polygon id="Fill-16" fill="#B8CD00" points="204.251,13.149 189.503,13.149 189.503,60.018 174.752,60.018 174.752,13.149 
					160,13.149 160,0 204.251,0 				"/>
				<path id="Path" fill="#B8CD00" d="M23.042,60.018H9.216V23.229H0V11.114C4.218,8.594,7.509,4.678,9.226,0h13.816V60.018
					L23.042,60.018z"/>
				<path id="Combined-Shape" fill="#B8CD00" d="M71.619,60.018l-2.781-8.937H50.376l-2.947,8.937H32L53.832,0h11.38l21.833,60.018
					H71.619z M54.507,38.773H64.96l-5.056-16.015L54.507,38.773z"/>
				<polygon id="Path_1_" fill="#B8CD00" points="97,60.174 112.173,60.174 112.173,45 97,45 				"/>
				<polygon id="Path_2_" fill="#B8CD00" points="162.956,60.018 123,60.018 123,0 137.751,0 137.751,46.867 162.956,46.867 				"/>
			</g>
		</g>
	</g>
</g>
</svg>
