<?xml version="1.0" encoding="utf-8"?>
<!-- Generator: Adobe Illustrator 16.0.0, SVG Export Plug-In . SVG Version: 6.00 Build 0)  -->
<!DOCTYPE svg PUBLIC "-//W3C//DTD SVG 1.1//EN" "http://www.w3.org/Graphics/SVG/1.1/DTD/svg11.dtd">
<svg version="1.1" id="Layer_1" xmlns="http://www.w3.org/2000/svg" xmlns:xlink="http://www.w3.org/1999/xlink" x="0px" y="0px"
	 width="700px" height="700px" viewBox="0 0 700 700" enable-background="new 0 0 700 700" xml:space="preserve">
<path fill="#905324" d="M312.016,70.961c-41.281-23.375-107.142,10.87-85.615,145.036c21.529,134.171-124.517,219.52,8.386,289.599
	c54.267,58.601,201.161,68.806,282.047-61.781c2.074,34.396-42.701,62.248-35.864,68.069c36.555-6.92,90.303-62.524,92.118-139.509
	c1.814-76.989-74.694-132.297-85.649-187.913c-10.95-55.615-20.896-145.307-104.976-133.127
	C358.531,39.305,331.169,52.289,312.016,70.961z"/>
<path fill="#E9484F" d="M323.998,121.655c-4.392-26.928,48.727-38.016,52.849-2.401C340.524,130.02,323.998,121.655,323.998,121.655
	z"/>
<path fill="#FAD3B6" d="M476.388,300.502c12.1-22.614,44.198-14.351,37.283,16.865c-6.912,31.215-32.099,43.634-49.727,27.392
	C463.601,334.885,476.388,300.502,476.388,300.502z"/>
<path fill="#FAD3B6" d="M226.496,300.502c-12.1-22.614-44.197-14.351-37.282,16.865c6.912,31.215,32.099,43.634,49.728,27.392
	C239.283,334.885,226.496,300.502,226.496,300.502z"/>
<path fill="#FAD3B6" d="M351.444,697.376c61.84-0.204,168.794-57.403,192.104-80.655c-5.215-67.801-158.151-85.935-148.566-178.866
	l-43.709,5.026l-43.708-5.026c9.58,92.932-143.352,111.065-148.571,178.866c23.316,23.252,130.265,80.451,192.108,80.655"/>
<g>
	<path opacity="0.5" fill="#E0A67B" d="M351.616,492.323c14.288-0.418,31.759-7.683,48.823-17.686
		c-4.708-10.895-6.88-23.013-5.458-36.783l-43.709,5.026l-43.708-5.026c1.431,13.892-0.785,26.101-5.581,37.068
		c16.9,9.854,34.177,16.99,48.33,17.4c0,0.021,0,0.044,0,0.06c0.212,0,0.437-0.023,0.651-0.031c0.217,0.008,0.437,0.031,0.652,0.031
		C351.616,492.367,351.616,492.344,351.616,492.323z"/>
</g>
<path fill="#FAD3B6" d="M351.198,124.046v-0.012c-0.08,0-0.155,0.004-0.234,0.004c-0.083,0-0.154-0.004-0.232-0.004v0.012
	c-180.881,0.432-120.773,245.882-118.011,259.89c2.732,13.872,74.57,77.037,117.592,78.29c0,0.016,0,0.04,0,0.057
	c0.212,0,0.437-0.025,0.651-0.025c0.217,0,0.437,0.025,0.652,0.025c0-0.017,0-0.041,0-0.057
	c43.022-1.253,114.861-64.418,117.591-78.29C471.969,369.928,532.078,124.478,351.198,124.046z"/>
<path fill="#FFFFFF" d="M389.365,330.106c2.767-31.851,50.119-54.144,60.488-16.879C436.723,347.626,395.59,351.445,389.365,330.106
	z"/>
<g>
	<g>
		<g>
			<path fill="#BF7B4A" d="M403.541,265.766c-0.034-0.084,0.608-0.414,1.804-0.94c0.602-0.255,1.338-0.567,2.191-0.93
				c0.859-0.354,1.872-0.659,2.978-1.04c4.428-1.469,10.788-3,17.971-3.244c3.589-0.061,7.013,0.201,10.083,0.745
				c3.064,0.591,5.75,1.49,7.896,2.49c2.134,1.039,3.689,2.211,4.615,3.165c0.494,0.442,0.744,0.922,0.956,1.19
				c0.195,0.289,0.277,0.45,0.24,0.477c-0.093,0.071-0.573-0.474-1.543-1.289c-0.992-0.799-2.551-1.799-4.652-2.693
				c-2.116-0.855-4.734-1.633-7.723-2.143c-2.996-0.463-6.33-0.683-9.837-0.624c-7.02,0.239-13.29,1.593-17.738,2.819
				c-1.109,0.321-2.132,0.56-3.006,0.845c-0.877,0.278-1.633,0.518-2.251,0.713C404.281,265.682,403.575,265.851,403.541,265.766z"
				/>
		</g>
	</g>
</g>
<path fill="#00A9BC" d="M411.099,298.359c-8.615,4.795-16.178,12.975-19.72,22.763c1.374,9.578,9.193,16.95,18.725,16.95
	c10.502,0,19.012-8.914,19.012-19.908C429.115,307.526,421.129,298.914,411.099,298.359z"/>
<g>
	<g>
		<g>
			<path fill="#010101" d="M391.097,319.278c-0.111-0.055,0.408-1.371,1.567-3.654c1.199-2.256,3.11-5.463,6.068-8.999
				c1.453-1.789,3.252-3.577,5.281-5.386c2.067-1.768,4.445-3.476,7.142-4.959c2.696-1.477,5.73-2.708,9.033-3.418
				c3.296-0.71,6.866-0.889,10.433-0.263c3.562,0.642,6.878,2.161,9.588,4.248c2.725,2.088,4.745,4.791,6.176,7.545
				c0.726,1.38,1.268,2.796,1.738,4.184c0.201,0.704,0.398,1.397,0.593,2.081c0.087,0.343,0.143,0.69,0.215,1.031l0.09,0.458
				l0.011,0.086c-0.02,0.19,0.113,0.09,0.233,0.046c0.566-0.284,1.122-0.562,1.667-0.835c1.087-0.57,2.128-1.126,3.1-1.692
				c3.912-2.235,6.854-4.397,8.765-6.03c1.91-1.635,2.829-2.7,2.958-2.598c0.088,0.062-0.638,1.308-2.432,3.16
				c-1.793,1.847-4.678,4.235-8.571,6.667c-0.968,0.616-2.007,1.22-3.098,1.837c-0.555,0.3-1.121,0.606-1.698,0.917
				c-0.521,0.256-1.046,0.514-1.575,0.775l-0.403,0.193c-0.09,0.077-0.086-0.035-0.104-0.103l-0.049-0.217l-0.198-0.876
				c-0.105-0.471-0.213-0.945-0.32-1.424c-0.076-0.322-0.137-0.651-0.227-0.975c-0.198-0.641-0.4-1.292-0.604-1.952
				c-0.473-1.296-1.005-2.612-1.7-3.882c-1.373-2.537-3.254-4.985-5.749-6.863c-2.483-1.875-5.491-3.245-8.759-3.835
				c-3.271-0.573-6.582-0.428-9.675,0.213c-3.1,0.639-5.985,1.766-8.576,3.13c-2.592,1.371-4.908,2.957-6.946,4.608
				c-2.002,1.693-3.803,3.366-5.283,5.051c-3.014,3.325-5.07,6.356-6.457,8.467C391.98,318.149,391.229,319.346,391.097,319.278z"/>
		</g>
	</g>
</g>
<path fill="#FFFFFF" d="M312.564,330.106c-2.767-31.851-50.119-54.144-60.488-16.879
	C265.207,347.626,306.34,351.445,312.564,330.106z"/>
<g>
	<g>
		<g>
			<path fill="#BF7B4A" d="M298.389,265.767c-0.034,0.084-0.74-0.084-1.984-0.46c-0.618-0.196-1.374-0.436-2.251-0.713
				c-0.874-0.285-1.896-0.524-3.006-0.845c-4.448-1.226-10.719-2.58-17.738-2.819c-3.507-0.059-6.842,0.16-9.838,0.624
				c-2.988,0.509-5.607,1.288-7.723,2.143c-2.101,0.895-3.66,1.894-4.652,2.693c-0.969,0.815-1.45,1.36-1.542,1.29
				c-0.037-0.027,0.045-0.188,0.24-0.477c0.212-0.269,0.462-0.749,0.956-1.191c0.926-0.955,2.482-2.126,4.616-3.166
				c2.145-1,4.831-1.899,7.896-2.489c3.071-0.544,6.495-0.806,10.083-0.745c7.184,0.245,13.543,1.775,17.972,3.244
				c1.105,0.382,2.118,0.687,2.977,1.041c0.854,0.362,1.59,0.675,2.192,0.93C297.78,265.353,298.422,265.683,298.389,265.767z"/>
		</g>
	</g>
</g>
<path fill="#00A9BC" d="M290.826,298.359c-10.025,0.555-18.012,9.167-18.012,19.805c0,10.994,8.51,19.908,19.011,19.908
	c9.527,0,17.351-7.372,18.725-16.95C307.008,311.334,299.445,303.154,290.826,298.359z"/>
<g>
	<g>
		<g>
			<path fill="#010101" d="M310.832,319.279c-0.132,0.067-0.882-1.129-2.23-3.266c-1.387-2.111-3.444-5.142-6.457-8.467
				c-1.481-1.685-3.282-3.357-5.284-5.05c-2.038-1.651-4.354-3.238-6.946-4.608c-2.591-1.365-5.477-2.491-8.576-3.131
				c-3.093-0.641-6.403-0.786-9.675-0.213c-3.268,0.59-6.275,1.96-8.759,3.835c-2.495,1.878-4.375,4.326-5.749,6.863
				c-0.696,1.271-1.228,2.586-1.7,3.883c-0.205,0.66-0.406,1.311-0.604,1.952c-0.09,0.323-0.15,0.652-0.227,0.975
				c-0.108,0.479-0.215,0.953-0.321,1.424l-0.198,0.876l-0.049,0.217c-0.018,0.068-0.015,0.18-0.104,0.103l-0.403-0.193
				c-0.53-0.26-1.055-0.519-1.575-0.774c-0.577-0.312-1.144-0.618-1.699-0.917c-1.09-0.617-2.129-1.221-3.098-1.837
				c-3.893-2.432-6.779-4.82-8.571-6.667c-1.795-1.852-2.52-3.098-2.433-3.159c0.13-0.103,1.049,0.962,2.958,2.597
				c1.911,1.633,4.854,3.795,8.765,6.03c0.973,0.566,2.013,1.122,3.101,1.692c0.545,0.273,1.101,0.551,1.667,0.835
				c0.12,0.044,0.253,0.145,0.233-0.046l0.011-0.086l0.09-0.458c0.072-0.34,0.127-0.688,0.214-1.031
				c0.194-0.683,0.392-1.376,0.593-2.081c0.47-1.388,1.013-2.804,1.738-4.184c1.43-2.754,3.45-5.457,6.175-7.545
				c2.71-2.086,6.026-3.606,9.588-4.247c3.566-0.626,7.137-0.447,10.432,0.263c3.303,0.71,6.338,1.942,9.033,3.418
				c2.696,1.483,5.074,3.191,7.142,4.96c2.03,1.809,3.829,3.597,5.282,5.385c2.958,3.536,4.87,6.742,6.069,8.999
				C310.425,317.907,310.943,319.223,310.832,319.279z"/>
		</g>
	</g>
</g>
<path fill="#BF7B4A" d="M353,115.146c0-0.005-0.005-0.027-0.005-0.027l-1.149-0.001c-0.075,0-0.154-0.005-0.229-0.005v0.005h-0.349
	v-0.005c-0.057,0-0.114,0.005-0.167,0.005l-1.991-0.005l-0.008,0.047c-70.31,1.046-148.509,53.011-135.506,172.503
	c1.382,11.464,7.95,18.79,7.95,18.79c11.753-11.469,4.608-59.159,10.828-74.762c6.225-15.609,33.529-42.048,37.674-45.233
	c4.15-3.185,14.726,1.28,21.631-4.456c2.328-1.931,3.604-6.054,8.096-5.417c4.085,0.58,29.54,4.045,46.348,4.669l0.005,0.008
	c0,0,5.304,0.342,11.805-0.044c0,0,0-0.003,0-0.008c16.801-0.739,41.189-4.058,45.177-4.625c4.492-0.637,5.771,3.487,8.096,5.417
	c6.907,5.735,17.482,1.271,21.632,4.456s31.45,29.624,37.674,45.233c6.221,15.604-0.925,63.293,10.833,74.762
	c0,0,6.563-7.326,7.941-18.79C502.337,167.729,423.507,115.814,353,115.146z"/>
<g>
	<g>
		<g>
			<g>
				<path fill="#E0A67B" d="M331.464,372.375c0.037-0.084,0.612,0.063,1.617,0.396c0.996,0.354,2.449,0.825,4.238,1.408
					c0.902,0.265,1.89,0.555,2.95,0.865c1.075,0.251,2.207,0.589,3.421,0.822c2.413,0.534,5.115,0.954,7.926,0.986
					c2.811-0.031,5.513-0.452,7.926-0.986c1.215-0.233,2.347-0.57,3.421-0.821c1.061-0.312,2.048-0.602,2.95-0.866
					c1.788-0.583,3.241-1.053,4.238-1.408c1.004-0.334,1.579-0.48,1.616-0.396c0.037,0.083-0.469,0.388-1.419,0.87
					c-0.942,0.503-2.357,1.112-4.131,1.815c-0.893,0.336-1.885,0.666-2.946,1.034c-1.081,0.302-2.223,0.685-3.46,0.957
					c-2.456,0.61-5.224,1.087-8.195,1.12c-2.972-0.034-5.74-0.51-8.196-1.12c-1.237-0.273-2.378-0.655-3.46-0.958
					c-1.062-0.367-2.054-0.697-2.946-1.033c-1.773-0.704-3.189-1.313-4.13-1.815C331.933,372.763,331.427,372.458,331.464,372.375z"
					/>
			</g>
		</g>
	</g>
</g>
<path fill="#C1282D" d="M351.616,409.791c3.278-0.074,29.252-0.844,40.26-6.844c-7.087,1.948-31.979-18.575-40.432-4.534
	c-8.453-14.041-33.349,6.482-40.433,4.534c11.004,6,36.98,6.77,40.256,6.844v0.008c0,0,0.115,0,0.177-0.003
	c0.058,0.003,0.172,0.003,0.172,0.003V409.791z"/>
<path fill="#C1282D" d="M351.727,698.008c20.297-0.227,99.025-12.672,130.572-41.432c-9.642-25.673-12.474-92.086-5.532-114.541
	l-15.056-6.861c0,0-10.726,26.961-14.048,79.428c-45.832,14.72-146.61,14.72-192.442,0c-3.325-52.467-14.048-79.428-14.048-79.428
	l-15.051,6.861c6.938,22.455,4.105,88.868-5.541,114.541c31.552,28.76,110.274,41.205,130.577,41.432"/>
<path fill="#D93036" d="M351.444,408.411c-13.831,0-34.216-2.502-46.141-8.553c26.27,25,34.909,26.948,46.141,26.948
	c11.232,0,19.866-1.948,46.137-26.948C385.656,405.909,365.271,408.411,351.444,408.411z"/>
<g>
	<g>
		<g>
			<path fill="#E0A67B" d="M307.894,395.881c0.255,0.253-0.937,1.873-2.903,3.369c-0.478,0.386-1.005,0.679-1.46,0.96
				c-0.478,0.259-0.948,0.439-1.329,0.587c-0.834,0.218-1.362,0.202-1.395,0.031c-0.039-0.185,0.371-0.489,0.991-0.871
				c0.303-0.243,0.677-0.481,1.083-0.773c0.395-0.322,0.858-0.615,1.317-0.986C306.066,396.777,307.635,395.62,307.894,395.881z"/>
		</g>
	</g>
</g>
<g>
	<g>
		<g>
			<path fill="#E0A67B" d="M394.991,395.881c0.259-0.261,1.828,0.896,3.696,2.316c0.459,0.371,0.922,0.664,1.316,0.986
				c0.406,0.292,0.78,0.53,1.083,0.773c0.621,0.382,1.03,0.687,0.991,0.871c-0.033,0.171-0.561,0.187-1.395-0.031
				c-0.382-0.147-0.852-0.328-1.329-0.587c-0.455-0.281-0.983-0.574-1.46-0.96C395.928,397.754,394.735,396.134,394.991,395.881z"/>
		</g>
	</g>
</g>
<g>
	<g>
		<g>
			<path fill="#905324" d="M321.381,117.899c0.142,0.212-3.286,2.134-7.708,6.531c-2.198,2.197-4.62,5.016-6.901,8.433
				c-2.248,3.432-4.417,7.423-6.09,11.858c-3.398,8.841-4.367,17.65-3.168,23.704c0.587,3.023,1.724,5.291,2.814,6.605
				c0.564,0.636,1.028,1.125,1.399,1.39c0.351,0.291,0.529,0.466,0.507,0.506s-0.245-0.058-0.658-0.288
				c-0.432-0.203-0.974-0.646-1.63-1.266c-1.275-1.279-2.616-3.627-3.344-6.752c-1.485-6.263-0.624-15.333,2.848-24.371
				c1.711-4.534,3.962-8.599,6.315-12.068c2.386-3.455,4.937-6.272,7.261-8.424c2.308-2.18,4.453-3.61,5.918-4.589
				C320.472,118.271,321.335,117.821,321.381,117.899z"/>
		</g>
	</g>
</g>
<g>
	<g>
		<g>
			<path fill="#905324" d="M274.02,185.525c-0.18,0.005-0.399-2.942-0.039-7.685c0.366-4.731,1.324-11.285,3.618-18.207
				c1.156-3.452,2.535-6.652,4.037-9.434c1.497-2.785,3.12-5.141,4.63-6.992c0.727-0.948,1.495-1.717,2.125-2.422
				c0.682-0.661,1.255-1.241,1.759-1.677c1.025-0.856,1.615-1.293,1.675-1.225c0.169,0.181-2.073,2.094-4.82,5.893
				c-2.805,3.743-5.917,9.478-8.155,16.273c-2.251,6.792-3.343,13.225-3.941,17.885C274.315,182.605,274.204,185.524,274.02,185.525
				z"/>
		</g>
	</g>
</g>
<g>
	<g>
		<g>
			<path fill="#905324" d="M229.606,238.691c-0.084,0.009-0.3-1.325-0.404-3.75c-0.099-2.424-0.143-5.945,0.168-10.277
				c0.245-4.337,0.891-9.477,1.904-15.13c0.566-2.816,1.116-5.783,1.941-8.8c0.404-1.509,0.73-3.07,1.219-4.609
				c0.478-1.542,0.962-3.107,1.453-4.69c0.458-1.595,1.044-3.125,1.61-4.637c0.564-1.513,1.119-3.003,1.665-4.468
				c1.203-2.884,2.459-5.627,3.61-8.258c1.291-2.565,2.566-4.979,3.739-7.246c0.56-1.148,1.231-2.185,1.84-3.202
				c0.615-1.013,1.205-1.985,1.768-2.912c2.166-3.766,4.355-6.529,5.748-8.511c1.43-1.958,2.253-3.013,2.327-2.96
				c0.074,0.054-0.609,1.211-1.905,3.252c-1.259,2.065-3.32,4.894-5.37,8.697c-0.536,0.936-1.098,1.916-1.684,2.937
				c-0.581,1.023-1.226,2.065-1.761,3.216c-1.128,2.269-2.334,4.693-3.603,7.245c-1.111,2.624-2.333,5.354-3.51,8.219
				c-0.535,1.455-1.079,2.935-1.631,4.437c-0.557,1.5-1.137,3.018-1.59,4.599c-0.489,1.569-0.971,3.119-1.447,4.647
				c-0.489,1.524-0.818,3.069-1.227,4.563c-0.836,2.987-1.406,5.922-2,8.708c-1.07,5.594-1.807,10.68-2.168,14.976
				c-0.427,4.292-0.525,7.785-0.584,10.197C229.661,237.348,229.703,238.682,229.606,238.691z"/>
		</g>
	</g>
</g>
<g>
	<g>
		<g>
			<path fill="#905324" d="M366.839,180.579c-0.032-0.032,0.085-0.239,0.332-0.597c0.117-0.184,0.295-0.383,0.451-0.657
				c0.15-0.276,0.324-0.595,0.52-0.954c0.719-1.463,1.433-3.748,1.708-6.68c0.287-2.927,0.237-6.456-0.143-10.349
				c-0.404-3.892-1.09-8.154-2.075-12.574c-1.952-8.847-4.544-16.667-6.751-22.172c-1.107-2.754-2.134-4.924-2.898-6.395
				c-0.77-1.468-1.273-2.238-1.187-2.303c0.057-0.046,0.71,0.631,1.63,2.044c0.913,1.413,2.083,3.552,3.313,6.288
				c2.452,5.472,5.209,13.316,7.182,22.254c0.994,4.465,1.653,8.788,1.997,12.748c0.319,3.962,0.273,7.572-0.143,10.572
				c-0.401,3.003-1.288,5.363-2.185,6.815c-0.243,0.35-0.46,0.662-0.647,0.931c-0.197,0.261-0.416,0.443-0.569,0.604
				C367.052,180.467,366.871,180.611,366.839,180.579z"/>
		</g>
	</g>
</g>
<g>
	<g>
		<g>
			<path fill="#905324" d="M402.152,176.585c-0.03-0.034,0.119-0.248,0.425-0.618c0.155-0.181,0.348-0.405,0.574-0.669
				c0.204-0.281,0.412-0.626,0.664-0.997c0.956-1.507,1.955-3.978,2.081-7.199c0.332-6.466-2.549-15.28-7.448-23.895
				c-4.912-8.655-10.838-15.586-15.643-19.969c-4.797-4.445-8.528-6.164-8.408-6.381c0.026-0.061,1.004,0.269,2.625,1.166
				c1.632,0.876,3.878,2.368,6.399,4.516c5.045,4.276,11.182,11.222,16.173,20.018c2.477,4.399,4.462,8.822,5.702,13.043
				c1.287,4.201,1.787,8.211,1.53,11.563c-0.251,3.366-1.455,5.95-2.589,7.429c-0.297,0.365-0.546,0.698-0.79,0.962
				c-0.271,0.238-0.499,0.439-0.684,0.602C402.39,176.473,402.182,176.62,402.152,176.585z"/>
		</g>
	</g>
</g>
<g>
	<g>
		<g>
			<path fill="#905324" d="M428.423,185.529c-0.021-0.04,0.146-0.198,0.476-0.456c0.167-0.125,0.372-0.279,0.615-0.46
				c0.228-0.198,0.463-0.459,0.743-0.728c1.067-1.11,2.318-3.088,2.647-5.878c0.226-1.375,0.189-2.92,0.093-4.565
				c-0.179-1.645-0.429-3.401-0.892-5.217c-0.873-3.639-2.303-7.536-4.107-11.483c-3.627-7.903-8.053-14.498-11.614-18.934
				c-3.562-4.467-6.411-6.601-6.28-6.772c0.039-0.057,0.837,0.369,2.096,1.388c1.267,1.008,2.993,2.606,4.897,4.783
				c3.8,4.35,8.414,10.954,12.1,18.985c1.834,4.013,3.261,8.001,4.093,11.759c0.441,1.873,0.662,3.701,0.798,5.414
				c0.055,1.722,0.036,3.339-0.264,4.794c-0.467,2.944-1.967,5.048-3.213,6.098c-0.325,0.256-0.601,0.498-0.864,0.671
				c-0.279,0.146-0.517,0.271-0.708,0.371C428.652,185.491,428.443,185.57,428.423,185.529z"/>
		</g>
	</g>
</g>
<ellipse fill="#FFFFFF" cx="281.546" cy="319.054" rx="4.94" ry="4.553"/>
<path fill="#FFFFFF" d="M407.016,319.054c0,2.516-2.216,4.553-4.938,4.553c-2.73,0-4.943-2.037-4.943-4.553s2.213-4.553,4.943-4.553
	C404.8,314.5,407.016,316.538,407.016,319.054z"/>
<path fill="#D9484D" d="M359.219,648.613c0,3.953-3.484,7.165-7.774,7.165c-4.294,0-7.779-3.212-7.779-7.165
	c0-3.958,3.485-7.167,7.779-7.167C355.734,641.446,359.219,644.655,359.219,648.613z"/>
<path fill="#D9484D" d="M359.219,676.324c0,3.953-3.484,7.165-7.774,7.165c-4.294,0-7.779-3.212-7.779-7.165
	c0-3.958,3.485-7.167,7.779-7.167C355.734,669.157,359.219,672.366,359.219,676.324z"/>
</svg>
