<?xml version="1.0" encoding="utf-8"?>
<!-- Generator: Adobe Illustrator 16.0.0, SVG Export Plug-In . SVG Version: 6.00 Build 0)  -->
<!DOCTYPE svg PUBLIC "-//W3C//DTD SVG 1.1//EN" "http://www.w3.org/Graphics/SVG/1.1/DTD/svg11.dtd">
<svg version="1.1" xmlns="http://www.w3.org/2000/svg" xmlns:xlink="http://www.w3.org/1999/xlink" x="0px" y="0px" width="500px"
	 height="500px" viewBox="0 0 500 500" enable-background="new 0 0 500 500" xml:space="preserve">
<g id="BACKGROUND">
	<circle fill="#F49569" cx="250.673" cy="247.833" r="149.5"/>
</g>
<g id="OBJECTS">
	<g id="Layer_9">
		<polygon fill="#374050" points="455.063,477.449 46.792,477.449 46.283,419.083 454.555,419.083 		"/>
		<rect x="52.493" y="36" fill="#374050" width="401" height="54"/>
		<g>
			<path fill="#FFFFFF" d="M59.636,80.688V44.974h7.143v35.714H59.636z M66.778,52.117h7.143v7.143h-7.143V52.117z M73.921,59.259
				h7.143v7.143h-7.143V59.259z M81.064,66.402h7.143v7.143h-7.143V66.402z M88.207,80.688V44.974h7.143v35.714H88.207z"/>
			<path fill="#FFFFFF" d="M116.778,73.545h-7.143V52.117h7.143V73.545z M131.063,52.117h-14.286v-7.143h14.286V52.117z
				 M131.063,80.688h-14.286v-7.143h14.286V80.688z M138.207,73.545h-7.143V52.117h7.143V73.545z"/>
			<path fill="#FFFFFF" d="M181.063,80.688V44.974h7.143v14.286h14.286V44.974h7.143v35.714h-7.143V66.402h-14.286v14.286H181.063z"
				/>
			<path fill="#FFFFFF" d="M223.92,80.688V44.974h7.143v35.714H223.92z"/>
			<path fill="#FFFFFF" d="M245.347,52.117h7.143v7.143h-7.143V52.117z M245.347,80.688v-7.143h21.428v7.143H245.347z
				 M252.49,52.117v-7.143h21.428v7.143H252.49z M252.49,66.402h14.285v-7.143H252.49V66.402z M266.775,66.402h7.143v7.143h-7.143
				V66.402z"/>
			<path fill="#FFFFFF" d="M295.348,80.688V52.117h-7.145v-7.143h21.43v7.143h-7.143v28.571H295.348z"/>
			<path fill="#FFFFFF" d="M331.061,73.545h-7.143V52.117h7.143V73.545z M345.346,52.117h-14.285v-7.143h14.285V52.117z
				 M345.346,80.688h-14.285v-7.143h14.285V80.688z M352.488,73.545h-7.143V52.117h7.143V73.545z"/>
			<path fill="#FFFFFF" d="M366.775,80.688V44.974h21.428v7.143h-14.285v7.143h14.285v7.143h-14.285v14.286H366.775z
				 M381.061,66.402h7.143v7.143h-7.143V66.402z M388.203,52.117h7.143v7.143h-7.143V52.117z M388.203,73.545h7.143v7.143h-7.143
				V73.545z"/>
			<path fill="#FFFFFF" d="M409.631,44.974h7.145v7.143h-7.145V44.974z M416.775,52.117h7.143v7.143h-7.143V52.117z M423.918,80.688
				V59.259h7.143v21.429H423.918z M431.061,52.117h7.143v7.143h-7.143V52.117z M438.203,44.974h7.143v7.143h-7.143V44.974z"/>
		</g>
		<g>
			<path fill="#FFFFFF" d="M48.056,440.767v-15.147h3.03v6.059h6.059v-6.059h3.029v15.147h-3.029v-6.059h-6.059v6.059H48.056z"/>
			<path fill="#FFFFFF" d="M66.233,440.767v-15.147h3.03v15.147H66.233z"/>
			<path fill="#FFFFFF" d="M75.321,428.648h3.03v3.029h-3.03V428.648z M75.321,440.767v-3.029h9.089v3.029H75.321z M78.351,428.648
				v-3.029h9.088v3.029H78.351z M78.351,434.708h6.059v-3.03h-6.059V434.708z M84.41,434.708h3.029v3.029H84.41V434.708z"/>
			<path fill="#FFFFFF" d="M96.528,440.767v-12.118h-3.03v-3.029h9.089v3.029h-3.03v12.118H96.528z"/>
			<path fill="#FFFFFF" d="M111.675,437.737h-3.03v-9.089h3.03V437.737z M117.734,428.648h-6.059v-3.029h6.059V428.648z
				 M117.734,440.767h-6.059v-3.029h6.059V440.767z M120.764,437.737h-3.029v-9.089h3.029V437.737z"/>
			<path fill="#FFFFFF" d="M126.822,440.767v-15.147h9.089v3.029h-6.059v3.029h6.059v3.03h-6.059v6.059H126.822z M132.881,434.708
				h3.03v3.029h-3.03V434.708z M135.911,428.648h3.029v3.029h-3.029V428.648z M135.911,437.737h3.029v3.029h-3.029V437.737z"/>
			<path fill="#FFFFFF" d="M145,425.619h3.03v3.029H145V425.619z M148.029,428.648h3.029v3.029h-3.029V428.648z M151.059,440.767
				v-9.089h3.03v9.089H151.059z M154.088,428.648h3.029v3.029h-3.029V428.648z M157.118,425.619h3.03v3.029h-3.03V425.619z"/>
			<path fill="#FFFFFF" d="M178.324,437.737v-12.118h3.03v12.118H178.324z M181.354,437.737h3.029v3.029h-3.029V437.737z
				 M184.383,437.737v-9.089h3.03v9.089H184.383z M187.413,437.737h3.029v3.029h-3.029V437.737z M190.442,437.737v-12.118h3.03
				v12.118H190.442z"/>
			<path fill="#FFFFFF" d="M199.53,440.767v-15.147h3.03v15.147H199.53z"/>
			<path fill="#FFFFFF" d="M211.648,437.737h6.059v3.029h-9.089v-15.147h3.03V437.737z"/>
			<path fill="#FFFFFF" d="M226.796,437.737h6.059v3.029h-9.089v-15.147h3.03V437.737z"/>
			<path fill="#FFFFFF" d="M251.104,440.767v-12.118h3.03v3.029h6.06v-3.029h3.029v12.118h-3.029v-6.059h-6.06v6.059H251.104z
				 M254.134,425.619v3.029h6.06v-3.029H254.134z"/>
			<path fill="#FFFFFF" d="M269.209,440.767v-15.147h9.088v3.029h-6.059v3.029h6.059v3.03h-6.059v6.059H269.209z M278.297,428.648
				h3.029v3.029h-3.029V428.648z"/>
			<path fill="#FFFFFF" d="M287.385,440.767v-15.147h9.09v3.029h-6.06v3.029h6.06v3.03h-6.06v6.059H287.385z M296.475,428.648h3.029
				v3.029h-3.029V428.648z"/>
			<path fill="#FFFFFF" d="M314.651,428.648h-6.06v3.029h6.06v3.03h-6.06v3.029h6.06v3.029h-9.089v-15.147h9.089V428.648z"/>
			<path fill="#FFFFFF" d="M320.783,440.767v-12.118h3.029v3.029h6.059v-3.029h3.029v12.118h-3.029v-6.059h-6.059v6.059H320.783z
				 M323.813,425.619v3.029h6.059v-3.029H323.813z"/>
			<path fill="#FFFFFF" d="M338.887,440.767v-15.147h9.089v3.029h-6.06v3.029h6.06v3.03h-6.06v6.059H338.887z M344.945,434.708h3.03
				v3.029h-3.03V434.708z M347.976,428.648h3.029v3.029h-3.029V428.648z M347.976,437.737h3.029v3.029h-3.029V437.737z"/>
			<path fill="#FFFFFF" d="M369.254,440.767v-12.118h3.03v3.029h6.06v-3.029h3.029v12.118h-3.029v-6.059h-6.06v6.059H369.254z
				 M372.284,425.619v3.029h6.06v-3.029H372.284z"/>
			<path fill="#FFFFFF" d="M387.359,440.767v-15.147h9.088v3.029h-6.059v3.029h6.059v3.03h-6.059v6.059H387.359z"/>
			<path fill="#FFFFFF" d="M405.536,440.767v-12.118h-3.03v-3.029h9.09v3.029h-3.03v12.118H405.536z"/>
			<path fill="#FFFFFF" d="M426.742,428.648h-6.059v3.029h6.059v3.03h-6.059v3.029h6.059v3.029h-9.088v-15.147h9.088V428.648z"/>
			<path fill="#FFFFFF" d="M432.801,440.767v-15.147h9.09v3.029h-6.061v3.029h6.061v3.03h-6.061v6.059H432.801z M438.861,434.708
				h3.029v3.029h-3.029V434.708z M441.891,428.648h3.029v3.029h-3.029V428.648z M441.891,437.737h3.029v3.029h-3.029V437.737z"/>
			<path fill="#FFFFFF" d="M131.367,456.157h3.03v3.029h-3.03V456.157z M134.397,459.187h3.029v3.029h-3.029V459.187z
				 M137.426,471.305v-9.089h3.03v9.089H137.426z M140.456,459.187h3.029v3.029h-3.029V459.187z M143.485,456.157h3.03v3.029h-3.03
				V456.157z"/>
			<path fill="#FFFFFF" d="M155.604,468.275h-3.03v-9.089h3.03V468.275z M161.663,459.187h-6.059v-3.029h6.059V459.187z
				 M161.663,471.305h-6.059v-3.029h6.059V471.305z M164.692,468.275h-3.029v-9.089h3.029V468.275z"/>
			<path fill="#FFFFFF" d="M170.751,456.157h3.03v12.118h-3.03V456.157z M179.84,471.305h-6.059v-3.029h6.059V471.305z
				 M179.84,456.157h3.029v12.118h-3.029V456.157z"/>
			<path fill="#FFFFFF" d="M188.928,471.305v-15.147h9.089v3.029h-6.059v3.029h6.059v3.03h-6.059v6.059H188.928z M194.987,465.246
				h3.03v3.029h-3.03V465.246z M198.017,459.187h3.029v3.029h-3.029V459.187z M198.017,468.275h3.029v3.029h-3.029V468.275z"/>
			<path fill="#FFFFFF" d="M219.223,471.305v-15.147h9.089v3.029h-6.059v3.029h6.059v3.03h-6.059v6.059H219.223z"/>
			<path fill="#FFFFFF" d="M234.37,471.305v-15.147h3.03v15.147H234.37z"/>
			<path fill="#FFFFFF" d="M243.458,471.305v-15.147h9.088v3.029h-6.059v3.029h6.059v3.03h-6.059v6.059H243.458z M249.518,465.246
				h3.029v3.029h-3.029V465.246z M252.547,459.187h3.029v3.029h-3.029V459.187z M252.547,468.275h3.029v3.029h-3.029V468.275z"/>
			<path fill="#FFFFFF" d="M261.635,459.187h3.03v3.029h-3.03V459.187z M261.635,471.305v-3.029h9.09v3.029H261.635z
				 M264.665,459.187v-3.029h9.089v3.029H264.665z M264.665,465.246h6.06v-3.03h-6.06V465.246z M270.725,465.246h3.029v3.029h-3.029
				V465.246z"/>
			<path fill="#FFFFFF" d="M282.842,471.305v-12.118h-3.029v-3.029h9.089v3.029h-3.03v12.118H282.842z"/>
			<path fill="#FFFFFF" d="M310.107,468.275h-3.029v-9.089h3.029V468.275z M316.166,459.187h-6.059v-3.029h6.059V459.187z
				 M316.166,471.305h-6.059v-3.029h6.059V471.305z M319.195,468.275h-3.029v-9.089h3.029V468.275z M316.166,471.305h3.029v3.029
				h-3.029V471.305z"/>
			<path fill="#FFFFFF" d="M325.255,456.157h3.03v12.118h-3.03V456.157z M334.344,471.305h-6.059v-3.029h6.059V471.305z
				 M334.344,456.157h3.029v12.118h-3.029V456.157z"/>
			<path fill="#FFFFFF" d="M343.432,471.305v-15.147h3.029v15.147H343.432z"/>
			<path fill="#FFFFFF" d="M361.609,456.157v6.059h-3.03v-3.029h-6.06v-3.029H361.609z M352.52,471.305v-6.059h3.03v3.029h6.06
				v3.029H352.52z M355.55,462.216h3.029v3.03h-3.029V462.216z"/>
		</g>
	</g>
	<g>
		<g>
			<g>
				<path fill="#FFC23E" d="M268.407,129.301c1.052-1.328,9.784-3.69,9.784-3.69l1.007-7.209l-14.364,8.833L268.407,129.301z"/>
				<path fill="#FFC23E" d="M263.444,122.501c1.47-2.792,4.307-6.826,4.307-6.826l-3.833-6.188l-3.63,10.729
					c0.336,0.599,0.641,1.211,0.923,1.833C261.956,122.2,262.7,122.351,263.444,122.501z"/>
			</g>
			<g>
				<g>
					<g>
						<rect x="244.97" y="174.82" fill="#607189" width="14.154" height="16.449"/>
						<g>
							
								<rect x="242.037" y="176.733" transform="matrix(0.9779 -0.2089 0.2089 0.9779 -31.5868 56.5534)" fill="#607189" width="19.7" height="2.104"/>
							
								<rect x="242.037" y="180.558" transform="matrix(0.9779 -0.209 0.209 0.9779 -32.3891 56.6447)" fill="#607189" width="19.701" height="2.104"/>
							
								<rect x="242.037" y="184.766" transform="matrix(0.9779 -0.209 0.209 0.9779 -33.2684 56.7376)" fill="#607189" width="19.701" height="2.104"/>
						</g>
						<g opacity="0.6">
							
								<rect x="242.037" y="176.733" transform="matrix(0.9779 -0.2089 0.2089 0.9779 -31.5868 56.5534)" fill="#FFFFFF" width="19.7" height="2.104"/>
							
								<rect x="242.037" y="180.558" transform="matrix(0.9779 -0.209 0.209 0.9779 -32.3891 56.6447)" fill="#FFFFFF" width="19.701" height="2.104"/>
							
								<rect x="242.037" y="184.766" transform="matrix(0.9779 -0.209 0.209 0.9779 -33.2684 56.7376)" fill="#FFFFFF" width="19.701" height="2.104"/>
						</g>
					</g>
					<path fill="#FFC23E" d="M265.891,147.212c-1.213,0.432-2.264,0.726-2.342,0.417c-1.005-3.94-1.811-7.931-2.414-11.952
						c-1.147,1.78-2.941,3.133-4.968,3.747c-0.063-1.404-0.012-2.955-0.424-4.234c-0.84,0.442-1.763,1.151-2.669,1.423
						c0.675-0.181,1.341,0.474,1.442,1.165s-0.189,1.373-0.479,2.009c-0.529,1.165-1.076,2.325-1.762,3.405
						c-0.991,1.561-2.266,2.94-3.744,4.051c1.627-2.879,3.254-5.759,4.881-8.638c-0.675,0.257-1.495-0.211-1.712-0.9
						c-0.218-0.688,0.113-1.48,0.698-1.903c0.991-0.717,2.598-0.552,3.217-1.608c0.244-0.418,0.256-0.929,0.261-1.414
						c0.015-1.537,0.726-6.438-1.093-7.188c-0.993-0.411-3.313,0.225-4.364,0.361c-41.888,5.451-5.451,48.869-5.451,48.869
						l13.485,1.339c2.581-4.247,4.812-8.748,6.814-13.291c1.785-4.051,3.371-8.209,4.521-12.488c0.305-1.135,1.497-4.03-0.082-4.517
						C269.476,145.792,267.534,146.628,265.891,147.212z"/>
					<path fill="#313F49" d="M240.689,153.629c-0.355-1.054,1.308-1.502,1.66-0.458c2.395,7.108,4.721,14.239,6.977,21.393
						c0.334,1.061-1.328,1.51-1.66,0.458C245.41,167.869,243.085,160.738,240.689,153.629L240.689,153.629z M252.184,175.233
						c4.687-7.345,8.271-15.193,10.764-23.539c0.318-1.063-1.343-1.518-1.66-0.458c-2.456,8.219-5.978,15.899-10.59,23.127
						C250.1,175.301,251.589,176.166,252.184,175.233L252.184,175.233z M240.11,153.432c3.656-1.629,6.358-4.298,8.174-7.862
						c1.458-2.86,3.385-7.247,2.916-10.533c-0.195-1.367-0.892-2.633-2.455-2.288c-2.753,0.607-2.759,6.112-2.91,8.201
						c-0.31,4.277,1.931,14.789,8.516,12.875c3.789-1.102,7.179-12.942,3.189-14.662c-0.363-0.157-0.743-0.155-1.043,0.134
						c-5.752,5.561-0.075,14.581,6.912,14.441c1.106-0.022,1.11-1.744,0-1.721c-4.217,0.084-7.035-2.628-7.066-6.796
						c-0.57-1.328-0.269-2.18,0.902-2.555c-0.001,0.985-0.102,1.959-0.302,2.923c-0.107,0.979-0.31,1.938-0.605,2.876
						c-4.45,2.942-7.15,2.54-8.102-1.206c-0.639-1.746-0.799-3.641-0.745-5.487c-0.018,0.622,0.658-6.354,1.063-6.289
						c1.52,0.24,0.037,4.581-0.243,5.454c-1.565,4.881-4.272,8.87-9.071,11.008C238.232,152.396,239.106,153.879,240.11,153.432
						L240.11,153.432z"/>
					<path opacity="0.6" fill="#FFFFFF" d="M262.499,143.116c-0.528-2.465-0.99-4.945-1.364-7.438
						c-1.147,1.78-2.941,3.133-4.968,3.747c-0.063-1.404-0.012-2.955-0.424-4.234c-0.84,0.442-1.763,1.151-2.669,1.423
						c0.675-0.181,1.341,0.474,1.442,1.165s-0.189,1.373-0.479,2.009c-0.529,1.165-1.076,2.325-1.762,3.405
						c-0.991,1.561-2.266,2.94-3.744,4.051c1.627-2.879,3.255-5.759,4.882-8.638c-0.675,0.257-1.495-0.211-1.712-0.9
						c-0.218-0.688,0.113-1.48,0.698-1.903c0.991-0.717,2.598-0.552,3.217-1.608c0.244-0.418,0.256-0.929,0.261-1.414
						c0.015-1.537,0.726-6.438-1.093-7.188c-0.993-0.411-3.313,0.225-4.364,0.361c-25.672,3.341-21.923,20.941-15.174,34.069
						c1.985,0.605,4.093,0.933,6.28,0.933C252.18,160.953,260.975,153.206,262.499,143.116z"/>
					<g>
						<path fill="#FFFFFF" d="M238.39,154.165c-3.202-4.508-4.548-18.008,1.595-20.265c2.063-0.758,1.171-4.087-0.915-3.32
							c-4.57,1.68-6.271,5.059-6.569,9.779c-0.298,4.723,0.08,11.55,2.917,15.544C236.689,157.693,239.676,155.976,238.39,154.165
							L238.39,154.165z"/>
					</g>
					<g>
						<path fill="#FFFFFF" d="M245.277,131.471c0.61-0.416,1.077-0.57,1.701-0.581c0.9-0.014,1.764-0.781,1.722-1.721
							c-0.042-0.92-0.757-1.737-1.722-1.721c-1.223,0.02-2.423,0.358-3.438,1.05c-0.767,0.523-1.11,1.514-0.618,2.355
							C243.367,131.614,244.505,131.997,245.277,131.471L245.277,131.471z"/>
					</g>
				</g>
				<g>
					<path fill="#313F49" d="M149.765,246.363c-0.261,0.272-0.429,0.65-0.429,1.139c0,4.973,0,9.946,0,14.919
						c0,2.215,3.443,2.219,3.443,0c0-4.973,0-9.946,0-14.919c0-0.068-0.013-0.127-0.019-0.191c1.586,0,3.17,0.047,4.756,0.093
						c0.826,0.024,1.65-0.065,2.476-0.061c1.42,0.009,4.752,0.027,4.18-2.277c-0.315-1.268-2.223-2.496-3.135-3.408
						c-1.431-1.431-2.862-2.862-4.293-4.293c6.648,0,13.296,0,19.944,0c2.215,0,2.219-3.443,0-3.443c-7.523,0-15.046,0-22.57,0
						c-2.022,0-1.912,2.613-1.335,3.924c0.478,1.086,1.369,1.795,2.2,2.626c0.541,0.541,2.708,3.396,3.396,3.396
						c-2.185,0-4.37,0-6.555,0c-0.967,0-1.569,0.882-2.046,1.594c0.293-0.442,0.733-0.788,1.245-0.951"/>
					<circle fill="#7CE8FF" cx="151.058" cy="267.202" r="9.372"/>
					<path opacity="0.6" fill="#FFFFFF" d="M141.686,267.202c0,2.085,0.689,4.005,1.84,5.562c1.329,0.723,2.852,1.133,4.471,1.133
						c5.176,0,9.373-4.195,9.373-9.372c0-2.085-0.689-4.004-1.841-5.561c-1.329-0.723-2.852-1.134-4.471-1.134
						C145.881,257.83,141.686,262.026,141.686,267.202z"/>
				</g>
				<g>
					<path fill="#313F49" d="M352.489,206.597c-4.974,4.973-9.946,9.946-14.919,14.919c-0.003,0.002-0.004,0.005-0.006,0.007
						c-0.903,0.505-1.422,1.765-0.473,2.714c1.657,1.658,3.315,3.315,4.973,4.973c0.204,0.203,0.422,0.337,0.644,0.416
						c0,2.197,0,4.394,0,6.591c-8.352,0-16.704,0-25.056,0c-2.216,0-2.22,3.442,0,3.442c8.926,0,17.852,0,26.777,0
						c1.216,0,1.761-1.036,1.643-1.972c0.046-0.157,0.079-0.325,0.079-0.514c0-2.678,0-5.355,0-8.033
						c0-0.88-0.546-1.405-1.201-1.586c-0.068-0.268-0.206-0.534-0.451-0.778c-1.22-1.22-2.439-2.44-3.66-3.66
						c4.695-4.695,9.39-9.39,14.084-14.084C356.492,207.462,354.059,205.027,352.489,206.597z"/>
					<circle fill="#7CE8FF" cx="358.01" cy="202.554" r="9.372"/>
					<path opacity="0.6" fill="#FFFFFF" d="M365.087,197.581c0-0.43-0.039-0.85-0.096-1.264c-1.716-1.92-4.204-3.136-6.981-3.136
						c-5.176,0-9.372,4.196-9.372,9.373c0,0.429,0.039,0.849,0.095,1.263c1.716,1.92,4.204,3.136,6.982,3.136
						C360.891,206.953,365.087,202.757,365.087,197.581z"/>
				</g>
				<g>
					<path fill="#313F49" d="M291.828,347.658c4.666-2.333,7.663-2.655,11.103,1.579c2.782,3.425,4.628,7.748,6.575,11.675
						c4.152,8.371,6.941,18.103,12.17,25.848c9.964,14.761,29.831,8.744,35.078-6.793c2.822-8.356,1.331-17.228-0.581-25.6
						c-1.134-4.963-2.354-9.906-3.526-14.86c-1.084-4.582-3.047-10.215-1.471-14.914c1.353-4.034,5.478-6.547,9.671-5.502
						c4.865,1.212,6.003,5.913,7.514,10.021c2.627,7.144,7.249,14.214,14.383,17.526c7.93,3.683,15.901-0.307,19.108-8.158
						c3.641-8.913,0.356-18.714-5.675-25.674c-4.845-5.591-12.932,2.556-8.114,8.115c2.548,2.94,4.306,7.026,3.797,10.999
						c-0.622,4.857-3.45,5.508-6.869,2.525c-5.818-5.074-5.98-12.999-10.318-18.979c-8.658-11.937-27.622-10.025-33.59,3.531
						c-3.342,7.59-1.324,15.855,0.498,23.559c2.099,8.871,5.578,18.485,5.306,27.689c-0.182,6.122-5.732,18.483-13.633,12.563
						c-2.552-1.912-3.893-5.675-5.116-8.49c-1.791-4.118-3.525-8.255-5.421-12.327c-3.665-7.877-7.275-17.285-13.94-23.193
						c-7.022-6.226-14.958-4.941-22.739-1.05C279.431,341.054,285.235,350.956,291.828,347.658L291.828,347.658z"/>
					<path opacity="0.18" d="M291.828,347.658c4.666-2.333,7.663-2.655,11.103,1.579c2.782,3.425,4.628,7.748,6.575,11.675
						c4.152,8.371,6.941,18.103,12.17,25.848c9.964,14.761,29.831,8.744,35.078-6.793c2.822-8.356,1.331-17.228-0.581-25.6
						c-1.134-4.963-2.354-9.906-3.526-14.86c-1.084-4.582-3.047-10.215-1.471-14.914c1.353-4.034,5.478-6.547,9.671-5.502
						c4.865,1.212,6.003,5.913,7.514,10.021c2.627,7.144,7.249,14.214,14.383,17.526c7.93,3.683,15.901-0.307,19.108-8.158
						c3.641-8.913,0.356-18.714-5.675-25.674c-4.845-5.591-12.932,2.556-8.114,8.115c2.548,2.94,4.306,7.026,3.797,10.999
						c-0.622,4.857-3.45,5.508-6.869,2.525c-5.818-5.074-5.98-12.999-10.318-18.979c-8.658-11.937-27.622-10.025-33.59,3.531
						c-3.342,7.59-1.324,15.855,0.498,23.559c2.099,8.871,5.578,18.485,5.306,27.689c-0.182,6.122-5.732,18.483-13.633,12.563
						c-2.552-1.912-3.893-5.675-5.116-8.49c-1.791-4.118-3.525-8.255-5.421-12.327c-3.665-7.877-7.275-17.285-13.94-23.193
						c-7.022-6.226-14.958-4.941-22.739-1.05C279.431,341.054,285.235,350.956,291.828,347.658L291.828,347.658z"/>
					<path fill="#313F49" d="M386.651,316.298c1.394,1.909,2.428,4.172,2.818,6.521c1.74,2.68,2.797,5.921,2.39,9.102
						c-0.622,4.857-3.45,5.508-6.869,2.525c-3.796-3.311-5.187-7.833-6.897-12.238c-0.412-0.897-0.787-1.814-1.147-2.74
						c-0.635-1.389-1.358-2.739-2.273-4c-8.658-11.937-27.622-10.025-33.59,3.531c-3.342,7.59-1.324,15.855,0.498,23.559
						c2.099,8.871,5.578,18.485,5.306,27.689c-0.182,6.122-5.732,18.483-13.633,12.563c-2.552-1.912-3.893-5.675-5.116-8.49
						c-1.791-4.118-3.525-8.255-5.421-12.327c-3.665-7.877-7.275-17.285-13.94-23.193c-7.022-6.226-14.958-4.941-22.739-1.05
						c-1.682,0.841-2.556,2.11-2.82,3.48c1.63,1.34,3.92,1.89,6.317,0.69c4.665-2.333,7.663-2.655,11.103,1.579
						c2.782,3.425,4.627,7.748,6.575,11.675c4.152,8.371,6.94,18.103,12.17,25.849c9.964,14.76,29.83,8.743,35.078-6.793
						c2.822-8.357,1.331-17.228-0.581-25.601c-1.134-4.963-2.355-9.906-3.526-14.86c-1.084-4.582-3.047-10.215-1.472-14.914
						c1.354-4.034,5.479-6.547,9.672-5.502c4.864,1.212,6.003,5.913,7.513,10.021c0.006,0.015,0.012,0.029,0.018,0.044
						c0.631,1.164,1.12,2.448,1.581,3.741c2.757,5.755,6.92,11.019,12.785,13.742c7.93,3.683,15.901-0.308,19.108-8.159
						c1.892-4.632,1.902-9.501,0.64-14.09c-1.114-2.093-2.475-4.063-4.02-5.846C392.606,308.686,387.279,312.029,386.651,316.298z"
						/>
					<g>
						<path fill="#607189" d="M317.699,351.241c-0.611-1.198-1.253-2.379-1.928-3.534c-2.027,3.707-4.7,6.992-7.947,9.75
							c0.522,1.07,1.033,2.137,1.548,3.18C312.672,357.948,315.475,354.797,317.699,351.241z"/>
						<path fill="#607189" d="M310.163,340.131c-0.449-0.46-0.909-0.907-1.388-1.332c-0.532-0.472-1.071-0.887-1.613-1.274
							c-0.702,4.273-1.98,8.356-3.831,12.242c0.795,1.037,1.518,2.143,2.186,3.292C307.671,348.956,309.225,344.644,310.163,340.131
							z"/>
						<path fill="#607189" d="M351.052,325.025c0.041-0.145,0.076-0.29,0.124-0.433c0.334-0.996,0.838-1.897,1.469-2.678
							c-3.033-2.42-5.618-5.302-7.727-8.58c-0.833,0.846-1.593,1.785-2.271,2.812C344.979,319.541,347.796,322.507,351.052,325.025z
							"/>
						<path fill="#607189" d="M327.23,372.223c-0.531-1.232-1.063-2.465-1.598-3.696c-2.283,3.514-5.729,6.049-9.782,7.077
							c0.457,1.061,0.931,2.109,1.417,3.15C321.182,377.628,324.666,375.365,327.23,372.223z"/>
						<path fill="#607189" d="M323.15,362.965c-0.147-0.323-0.285-0.65-0.435-0.973c-0.361-0.776-0.723-1.57-1.085-2.371
							c-2.247,3.084-6.087,4.975-9.805,6.387c0.445,1.04,0.888,2.085,1.323,3.139C316.92,367.654,320.541,365.757,323.15,362.965z"
							/>
						<path fill="#607189" d="M299.183,346.28c1.039,0.369,2.048,1.075,3.084,2.191c0.854-4.32,1.196-8.652,1.049-13.023
							c-1.13-0.42-2.277-0.68-3.434-0.825C300.08,338.534,299.843,342.42,299.183,346.28z"/>
						<path fill="#607189" d="M346.715,371.982c-0.181,1.153-0.497,2.416-0.939,3.683c2.994,2.461,6.959,4.075,10.67,5.128
							c0.104-0.274,0.214-0.545,0.309-0.826c0.275-0.814,0.498-1.636,0.694-2.459C353.691,376.459,349.271,374.727,346.715,371.982z
							"/>
						<path fill="#607189" d="M329.224,376.855c-3.022,2.535-5.95,5.175-8.771,7.93c0.4,0.664,0.792,1.336,1.224,1.975
							c0.228,0.337,0.466,0.651,0.703,0.967c2.72-2.68,5.528-5.263,8.437-7.736C330.206,378.999,329.691,377.919,329.224,376.855z"
							/>
						<path fill="#607189" d="M383.498,332.929c-0.752-0.866-1.404-1.783-1.965-2.748c-3.019,2.248-6.366,4.688-8.763,7.618
							c0.671,0.981,1.392,1.926,2.167,2.819C377.032,337.603,380.461,335.126,383.498,332.929z"/>
						<path fill="#607189" d="M337.336,384.368c-1.025-0.007-2.114-0.316-3.256-1.005c-1.308,3.708-2.186,7.562-1.713,11.291
							c1.188,0.309,2.396,0.491,3.61,0.543C335.178,391.643,336.044,387.935,337.336,384.368z"/>
						<path fill="#607189" d="M379.13,324.916c-0.407-1.057-0.803-2.121-1.221-3.178c-3.801,1.284-6.93,3.843-9.755,6.803
							c0.068,0.191,0.137,0.382,0.206,0.571c0.361,0.982,0.765,1.963,1.202,2.933C372.273,328.994,375.307,326.129,379.13,324.916z"
							/>
						<path fill="#607189" d="M389.664,347.977c-0.72-4.031-0.63-8.049,0.302-12.087c-0.925,0.564-2.113,0.435-3.448-0.338
							c-0.882,4.047-1.023,8.131-0.404,12.188C387.318,347.981,388.507,348.057,389.664,347.977z"/>
						<path fill="#607189" d="M346.441,363.119c0.171,1.214,0.302,2.426,0.379,3.634c3.778,0.895,7.59,1.278,11.449,1.154
							c-0.05-1.132-0.141-2.264-0.267-3.395C354.1,364.615,350.243,364.138,346.441,363.119z"/>
						<path fill="#607189" d="M343.705,379.983c-0.771,1.202-1.667,2.259-2.672,3.032c1.213,3.487,3.148,6.663,5.753,9.354
							c0.996-0.589,1.955-1.262,2.864-2.016C346.743,387.455,344.707,383.929,343.705,379.983z"/>
						<path fill="#607189" d="M398.93,343.229c-0.234-6.458-1.879-12.604-7.65-16.7c-0.008-0.005-0.015-0.008-0.022-0.013
							c0.546,1.655,0.794,3.393,0.619,5.12c3.337,3.892,3.826,9.264,3.67,14.459C396.79,345.339,397.928,344.373,398.93,343.229z"/>
						<path fill="#607189" d="M402.305,323.742c-3.915-3.319-8.672-5.105-14.013-2.531c0.73,0.881,1.383,1.855,1.933,2.894
							c5.315-2.382,9.859,1.471,13.117,5.556C403.252,327.658,402.89,325.674,402.305,323.742z"/>
						<path fill="#607189" d="M354.382,308.089c-0.845,4.015-0.728,8.083,0.3,12.018c0.978-0.618,2.076-1.029,3.237-1.181
							c-0.911-3.724-0.867-7.558,0.124-11.338C356.811,307.644,355.584,307.811,354.382,308.089z"/>
						<path fill="#607189" d="M356.533,355.977c-0.118-0.538-0.238-1.075-0.36-1.609c-0.132-0.577-0.272-1.151-0.406-1.728
							c-3.236,1.481-7.398,1.271-11.265,1.125c0.283,1.11,0.554,2.224,0.808,3.339C349.187,357.152,353.147,357.222,356.533,355.977
							z"/>
						<path fill="#607189" d="M339.489,331.691c3.681,1.396,8.08,3.152,11.854,2.556c-0.258-1.145-0.477-2.305-0.611-3.46
							c-3.521,0.656-8.227-1.59-11.438-2.822C339.286,329.204,339.359,330.447,339.489,331.691z"/>
						<path fill="#607189" d="M372.964,313.425c-0.845-0.88-1.759-1.651-2.719-2.33c-3.245,2.274-5.779,5.291-7.446,8.776
							c1.097,0.621,1.947,1.47,2.632,2.466C366.944,318.696,369.56,315.604,372.964,313.425z"/>
						<path fill="#607189" d="M341.58,342.558c0.218,0.921,0.453,1.851,0.694,2.786c3.458,1.076,8.354,2.22,12.119,1.462
							c-0.267-1.11-0.531-2.222-0.798-3.332c-3.705,0.846-9.766-1.188-12.289-2.072C341.398,341.787,341.489,342.174,341.58,342.558
							z"/>
					</g>
				</g>
				<g>
					<g>
						<path fill="#313F49" d="M211.381,345.571c-6.705-14.291-18.03-33.635-34.093-38.767c-6.567-2.098-14.106-1.097-19.574,3.203
							c-6.241,4.907-7.012,12.215-5.832,19.633c1.514,9.521,5.634,18.313,7.937,27.629c0.856,3.462,2.735,9.915-0.624,12.578
							c-3.664,2.903-9.575-0.49-12.971-2.385c-7.008-3.911-13.722-9.691-16.273-17.551c-2.665-8.205-0.636-17.192-5.81-24.677
							c-10.634-15.382-33.819-10.358-38.543,7.181c-1.923,7.14,9.145,10.186,11.066,3.051c2.786-10.345,16.679-10.759,19.567-0.208
							c2.467,9.012,1.163,17.563,6.416,25.885c7.697,12.194,31.003,29.802,44.797,16.886c6.855-6.419,5.313-16.655,3.193-24.806
							c-1.383-5.317-3.366-10.451-5-15.69c-1.421-4.557-3.82-10.647-2.678-15.452c2.53-10.64,16.449-1.76,20.514,2.379
							c7.597,7.735,13.415,17.132,17.999,26.903C204.606,358.045,214.503,352.225,211.381,345.571L211.381,345.571z"/>
					</g>
					<g>
						<g opacity="0.18">
							<path d="M211.381,345.571c-6.705-14.291-18.03-33.635-34.093-38.767c-6.567-2.098-14.106-1.097-19.574,3.203
								c-6.241,4.907-7.012,12.215-5.832,19.633c1.514,9.521,5.634,18.313,7.937,27.629c0.856,3.462,2.735,9.915-0.624,12.578
								c-3.664,2.903-9.575-0.49-12.971-2.385c-7.008-3.911-13.722-9.691-16.273-17.551c-2.665-8.205-0.636-17.192-5.81-24.677
								c-10.634-15.382-33.819-10.358-38.543,7.181c-1.923,7.14,9.145,10.186,11.066,3.051c2.786-10.345,16.679-10.759,19.567-0.208
								c2.467,9.012,1.163,17.563,6.416,25.885c7.697,12.194,31.003,29.802,44.797,16.886c6.855-6.419,5.313-16.655,3.193-24.806
								c-1.383-5.317-3.366-10.451-5-15.69c-1.421-4.557-3.82-10.647-2.678-15.452c2.53-10.64,16.449-1.76,20.514,2.379
								c7.597,7.735,13.415,17.132,17.999,26.903C204.606,358.045,214.503,352.225,211.381,345.571L211.381,345.571z"/>
						</g>
						<path fill="#313F49" d="M209.963,342.623c-6.834-13.883-17.693-31.032-32.676-35.818c-6.567-2.098-14.106-1.097-19.574,3.203
							c-6.241,4.907-7.012,12.215-5.832,19.633c1.514,9.521,5.634,18.313,7.937,27.629c0.856,3.462,2.735,9.915-0.624,12.578
							c-3.664,2.903-9.575-0.49-12.971-2.385c-7.008-3.911-13.722-9.691-16.273-17.551c-0.269-0.828-0.48-1.665-0.666-2.507
							c-0.522-1.037-0.979-2.11-1.343-3.231c-1.8-5.544-1.464-11.443-2.648-16.997c-0.343-0.655-0.714-1.306-1.153-1.941
							c-10.634-15.382-33.819-10.358-38.543,7.181c-0.011,0.041-0.016,0.08-0.026,0.12c2.924,2.147,7.859,1.739,9.084-2.808
							c2.786-10.345,16.679-10.759,19.567-0.208c0.235,0.859,0.428,1.713,0.604,2.563c0.585,0.922,1.074,1.968,1.405,3.175
							c1.652,6.037,1.62,11.866,2.993,17.56c0.414,0.865,0.872,1.728,1.415,2.588c7.696,12.193,31.003,29.801,44.797,16.886
							c6.855-6.42,5.313-16.656,3.193-24.807c-1.383-5.317-3.366-10.451-5-15.69c-1.422-4.557-3.82-10.647-2.678-15.452
							c2.53-10.64,16.449-1.759,20.514,2.379c7.597,7.735,13.415,17.132,17.999,26.903
							C202.146,351.343,209.773,347.903,209.963,342.623z"/>
						<g>
							<path fill="#607189" d="M115.488,333.27c2.924-2.998,4.116-8.014,4.44-12.604c-1.063-0.865-2.183-1.602-3.345-2.216
								c-0.059,4.053-0.753,8.996-3.141,11.894C114.247,331.145,114.944,332.117,115.488,333.27z"/>
							<path fill="#607189" d="M128.221,339.604c-2.701,2.896-6.371,4.563-10.368,4.762c0.145,1.15,0.289,2.294,0.449,3.432
								c3.834-0.23,7.424-1.632,10.37-3.966C128.491,342.426,128.357,341.014,128.221,339.604z"/>
							<path fill="#607189" d="M116.561,336.578c0.277,1.17,0.502,2.332,0.69,3.486c4.03-1.738,7.382-4.553,9.813-8.147
								c-0.358-1.43-0.838-2.833-1.496-4.198C123.655,331.644,120.462,334.727,116.561,336.578z"/>
							<path fill="#607189" d="M124.789,364.154c3.787-0.837,8.479-1.656,11.572-4.045c-0.815-0.831-1.579-1.706-2.292-2.617
								c-2.971,2.263-8.105,2.854-11.433,3.633c0.004,0.006,0.007,0.013,0.011,0.019
								C123.262,362.118,123.987,363.129,124.789,364.154z"/>
							<path fill="#607189" d="M137.837,367.671c1.47-0.875,2.717-1.903,3.62-3.229c-0.929-0.668-1.836-1.369-2.709-2.111
								c-0.968,1.606-2.841,2.509-4.478,3.355c-1.843,0.954-3.628,1.983-5.38,3.082c0.824,0.825,1.691,1.643,2.596,2.445
								C133.584,369.995,135.745,368.914,137.837,367.671z"/>
							<path fill="#607189" d="M129.992,350.027c-3.261,1.919-6.866,3.004-10.663,3.244c0.287,1.124,0.637,2.242,1.065,3.356
								c3.88-0.367,7.554-1.523,10.926-3.431C130.806,352.18,130.355,351.126,129.992,350.027z"/>
							<path fill="#607189" d="M111.509,328.875c-0.003-0.106-0.011-0.215-0.034-0.328c-0.958-4.642-3.028-8.877-6.039-12.431
								c-1.373,0.093-2.736,0.316-4.072,0.663c3.031,3.042,5.161,6.688,6.33,10.824
								C109.028,327.751,110.323,328.182,111.509,328.875z"/>
							<path fill="#607189" d="M93.028,331.479c-2.053-1.35-4.21-1.741-6.459-1.888c-0.375,0.902-0.706,1.841-0.971,2.824
								c-0.049,0.183-0.084,0.361-0.117,0.539c2.031,0.061,3.999,0.281,5.81,1.497c1.472,0.987,2.678,2.323,3.772,3.736
								c0.715-0.65,1.285-1.545,1.602-2.722c0.048-0.179,0.124-0.33,0.178-0.503C95.718,333.646,94.482,332.435,93.028,331.479z"/>
							<path fill="#607189" d="M155.658,370.965c-1.229-0.009-2.522-0.307-3.79-0.76c1.328,3.899,1.525,7.986,0.605,12.084
								c1.167,0.18,2.326,0.265,3.47,0.258C156.742,378.644,156.63,374.734,155.658,370.965z"/>
							<path fill="#607189" d="M148.458,368.681c-0.816-0.424-1.573-0.85-2.234-1.218c-0.299-0.167-0.597-0.342-0.894-0.516
								c-0.8,3.941-2.528,7.544-5.126,10.646c1.007,0.594,2.03,1.146,3.063,1.652C145.757,376.104,147.51,372.543,148.458,368.681z"
								/>
							<path fill="#607189" d="M92.802,321.158c-0.937,0.774-1.818,1.628-2.626,2.566c3.627,1.532,6.6,4.11,8.685,7.478
								c0.774-0.935,1.669-1.697,2.654-2.274C99.345,325.578,96.341,322.929,92.802,321.158z"/>
							<path fill="#607189" d="M194.227,318.481c-0.779-0.848-1.577-1.668-2.394-2.458c-3.097,2.581-5.468,5.84-7.537,9.322
								c0.827,0.87,1.638,1.755,2.423,2.664C188.75,324.446,191.046,321.043,194.227,318.481z"/>
							<path fill="#607189" d="M171.513,356.978c-3.761-1.534-8.067-1.808-12.259-1.795c0.192,0.695,0.392,1.387,0.565,2.087
								c0.102,0.41,0.218,0.865,0.338,1.349c4.261,0.009,8.556,0.37,12.049,2.592C172.042,359.783,171.798,358.366,171.513,356.978z
								"/>
							<path fill="#607189" d="M181.972,308.763c-2.27,3.27-3.448,7.253-4.495,11.201c1.082,0.632,2.103,1.312,3.02,1.984
								c0.982-3.942,2.012-8.26,4.401-11.491C183.943,309.843,182.968,309.275,181.972,308.763z"/>
							<path fill="#607189" d="M194.894,332.236c1.265-1.714,3.087-5.414,5.23-6.416c-0.67-0.944-1.359-1.874-2.067-2.787
								c-1.806,1.142-2.985,3.195-4.252,4.912c-1.141,1.547-2.282,3.093-3.423,4.639c0.718,0.961,1.416,1.937,2.095,2.927
								C193.282,334.419,194.088,333.327,194.894,332.236z"/>
							<path fill="#607189" d="M163.131,321.479c0.392-1.298,0.968-2.272,1.691-2.968c-3.162-2.425-7.07-3.718-11.263-3.624
								c-0.611,1.12-1.074,2.299-1.409,3.521C156.233,317.907,160.136,319.044,163.131,321.479z"/>
							<path fill="#607189" d="M205.943,335.013c-0.569-1.002-1.158-2.006-1.766-3.008c-3.311,2.361-6.109,5.352-8.296,8.793
								c0.675,1.13,1.33,2.271,1.963,3.423C199.882,340.555,202.612,337.452,205.943,335.013z"/>
							<path fill="#607189" d="M168.428,376.997c-1.576-4.362-4.065-8.269-7.33-11.535c-0.078,1.421-0.432,2.726-1.241,3.717
								c2.616,2.979,4.56,6.441,5.757,10.326c0.624-0.444,1.238-0.922,1.83-1.476C167.799,377.697,168.118,377.349,168.428,376.997z
								"/>
							<path fill="#607189" d="M152.188,331.234c3.282-2.224,7.109-3.593,10.744-1.021c0.185,0.131,0.367,0.207,0.545,0.256
								c-0.363-1.438-0.643-2.892-0.757-4.309c-3.742-1.61-7.625-0.563-11.104,1.449c0.072,0.675,0.157,1.352,0.266,2.03
								C151.967,330.177,152.087,330.703,152.188,331.234z"/>
							<path fill="#607189" d="M153.796,337.885c0.322,1.11,0.656,2.218,1.008,3.319c3.025-1.438,6.492-1.583,9.813-0.367
								c0.876,0.32,1.539-0.085,1.864-0.716c-0.281-0.849-0.564-1.695-0.831-2.548c-0.041-0.018-0.075-0.041-0.117-0.057
								C161.618,336.084,157.452,336.287,153.796,337.885z"/>
							<path fill="#607189" d="M161.781,307.937c4.425,1.281,6.549,5.048,7.778,9.138c1.211,0.097,2.496,0.425,3.786,0.902
								c-1.18-4.703-3.224-9.22-7.209-11.792c-1.646,0.331-3.247,0.855-4.765,1.575C161.493,307.83,161.626,307.893,161.781,307.937
								z"/>
							<path fill="#607189" d="M169.88,352.284c0.19,0.136,0.378,0.215,0.563,0.264c-0.431-1.598-0.911-3.18-1.418-4.754
								c-3.879-1.851-8.275-2.153-12.353-0.92c0.364,1.088,0.725,2.177,1.077,3.269C161.841,348.919,166.205,349.66,169.88,352.284z
								"/>
						</g>
					</g>
				</g>
				<rect x="242.133" y="288.434" fill="#313F49" width="16.449" height="30.603"/>
				<path fill="#607189" d="M302.86,293.215H197.854c-12.624,0-22.952-10.328-22.952-22.952c0-22.29-2.37-45.988,11.927-64.976
					c15.34-20.372,40.521-18.799,63.241-18.799c20.782,0,44.55-0.966,61.46,14.632c7.694,7.097,12.337,14.632,13.198,26.682
					c0.994,13.919,1.083,28.503,1.083,42.461C325.813,282.887,315.484,293.215,302.86,293.215z"/>
				<path opacity="0.6" fill="#FFFFFF" d="M302.86,293.215H197.854c-12.624,0-22.952-10.328-22.952-22.952
					c0-22.29-2.37-45.988,11.927-64.976c15.34-20.372,40.521-18.799,63.241-18.799c20.782,0,44.55-0.966,61.46,14.632
					c7.694,7.097,12.337,14.632,13.198,26.682c0.994,13.919,1.083,28.503,1.083,42.461
					C325.813,282.887,315.484,293.215,302.86,293.215z"/>
				<path fill="#607189" d="M197.854,293.215H302.86c12.624,0,22.952-10.328,22.952-22.952c0-13.958-0.089-28.542-1.083-42.461
					c-0.809-11.307-4.947-18.639-11.811-25.364c-16.627-12.783-38.757-11.934-58.258-11.934c-22.719,0-47.901-1.573-63.241,18.799
					c-14.297,18.988-11.927,42.686-11.927,64.976c0,5.788,2.189,11.078,5.757,15.127
					C188.875,291.806,193.206,293.215,197.854,293.215z"/>
				<path opacity="0.36" fill="#313F49" d="M197.854,293.215H302.86c12.624,0,22.952-10.328,22.952-22.952
					c0-13.958-0.089-28.542-1.083-42.461c-0.809-11.307-4.947-18.639-11.811-25.364c-16.627-12.783-38.757-11.934-58.258-11.934
					c-22.719,0-47.901-1.573-63.241,18.799c-14.297,18.988-11.927,42.686-11.927,64.976c0,5.788,2.189,11.078,5.757,15.127
					C188.875,291.806,193.206,293.215,197.854,293.215z"/>
				<path fill="#607189" d="M192.882,286.329h105.006c12.624,0,22.952-10.328,22.952-22.952c0-13.958-0.09-28.542-1.084-42.461
					c-0.458-6.415-1.99-11.548-4.482-16.019c-0.745-0.832-1.529-1.65-2.354-2.459c-16.627-12.783-38.757-11.934-58.258-11.934
					c-22.719,0-47.901-1.573-63.241,18.799c-14.297,18.988-11.927,42.686-11.927,64.976c0,3.153,0.668,6.148,1.836,8.886
					C184.729,285.165,188.672,286.329,192.882,286.329z"/>
				<path fill="#607189" d="M303.505,384.45c0.134-1.956,0.217-3.93,0.217-5.93c0-37.289-14.568-67.518-53.364-67.518
					c-37.52,0-53.364,30.229-53.364,67.518c0,2,0.083,3.974,0.217,5.93H303.505z"/>
				<path opacity="0.36" fill="#313F49" d="M303.505,384.45c0.134-1.956,0.217-3.93,0.217-5.93
					c0-37.289-14.568-67.518-53.364-67.518c-37.52,0-53.364,30.229-53.364,67.518c0,2,0.083,3.974,0.217,5.93H303.505z"/>
				<path opacity="0.6" fill="#FFFFFF" d="M250.357,311.003c-37.456,0-53.307,30.126-53.361,67.326h101.535
					c0.135-1.955,0.217-3.93,0.217-5.929c0-18.477-3.583-35.213-11.911-47.404C278.391,316.229,266.469,311.003,250.357,311.003z"/>
				<path fill="#607189" d="M286.564,324.728c-8.118-6.682-18.882-10.568-32.764-10.568c-36.391,0-52.384,28.438-53.314,64.17
					h98.045c0.135-1.955,0.217-3.93,0.217-5.929c0-18.477-3.583-35.213-11.911-47.404
					C286.748,324.904,286.653,324.819,286.564,324.728z"/>
				<rect x="187.207" y="271.506" opacity="0.6" fill="#FFFFFF" width="126.429" height="6.217"/>
				<rect x="186.442" y="264.334" fill="#313F49" width="127.002" height="12.24"/>
				<rect x="187.016" y="270.358" opacity="0.18" width="126.428" height="6.216"/>
				<circle opacity="0.18" cx="211.929" cy="235.117" r="23.67"/>
				<g>
					<circle fill="#313F49" cx="210.972" cy="234.543" r="21.757"/>
					<circle opacity="0.6" fill="#FFFFFF" cx="210.972" cy="234.543" r="23.669"/>
					<circle opacity="0.6" fill="#FFFFFF" cx="210.972" cy="234.543" r="19.461"/>
					<circle fill="#7CE8FF" cx="210.972" cy="234.543" r="16.784"/>
					<path opacity="0.6" fill="#FFFFFF" d="M210.972,217.76c-9.269,0-16.784,7.514-16.784,16.784c0,1.558,0.229,3.059,0.626,4.49
						c3.011,2.87,7.079,4.643,11.567,4.643c9.27,0,16.784-7.515,16.784-16.784c0-1.558-0.229-3.059-0.625-4.49
						C219.528,219.533,215.461,217.76,210.972,217.76z"/>
					<g opacity="0.6">
						<g>
							<path fill="#FFFFFF" d="M204.753,240.21c-0.157-1.618,0.463-3.068,0.778-4.63c0.344-1.708,0.389-2.777,1.685-4.014
								c2.028-1.936,5.061-2.07,6.516-4.617c0.915-1.601,0.03-3.424-1.625-3.994c-3.726-1.284-8.994,2.31-10.903,5.461
								c-2.553,4.213-1.104,8.396,0.667,12.574C202.464,242.39,204.896,241.69,204.753,240.21L204.753,240.21z"/>
						</g>
					</g>
					<g opacity="0.6">
						<g>
							<path fill="#FFFFFF" d="M216.738,248.373c0.485-0.136,1.516-0.335,2.186-0.656c0.87-0.416,1.651-0.963,2.387-1.585
								c1.524-1.291,2.717-3.288,1.771-5.237c-0.247-0.509-0.958-0.758-1.482-0.603c-1.865,0.551-2.615,2.44-4.119,3.534
								c-0.809,0.588-1.61,0.978-2.096,1.917c-0.422,0.815-0.338,1.694,0.304,2.354
								C215.956,248.369,216.373,248.476,216.738,248.373L216.738,248.373z"/>
						</g>
					</g>
					<g>
						<path opacity="0.6" fill="#313F49" d="M232.217,229.541c-0.459-1.317-1.038-2.576-1.73-3.764
							c-2.025-2.449-4.918-5.559-8.362-8.173c-3.099-1.697-6.653-2.666-10.436-2.666c-12.016,0-21.757,9.741-21.757,21.757
							c0,1.531,0.162,3.023,0.463,4.465C196.09,236.881,214.445,224.641,232.217,229.541z"/>
						<path fill="#607189" d="M231.787,228.536c-0.459-1.317-1.038-2.575-1.73-3.764c-2.026-2.448-4.918-5.558-8.363-8.173
							c-3.098-1.697-6.653-2.665-10.435-2.665c-12.016,0-21.757,9.741-21.757,21.757c0,1.531,0.162,3.023,0.463,4.465
							C195.66,235.876,214.015,223.637,231.787,228.536z"/>
						<path fill="#313F49" d="M231.5,227.389c-0.459-1.317-1.038-2.575-1.73-3.764c-2.026-2.449-4.918-5.559-8.362-8.173
							c-3.099-1.697-6.653-2.666-10.436-2.666c-12.016,0-21.756,9.741-21.756,21.757c0,1.531,0.162,3.024,0.462,4.465
							C195.373,234.729,213.728,222.489,231.5,227.389z"/>
						<path opacity="0.6" fill="#FFFFFF" d="M223.928,226.276c-0.696-1.967-3.298-8.673-7.728-12.849
							c-1.675-0.415-3.424-0.641-5.228-0.641c-4.641,0-8.933,1.465-12.465,3.941c-0.969,3.211-1.931,8.974-0.054,16.632
							C205.158,229.672,214.352,225.986,223.928,226.276z"/>
					</g>
					<g>
						<path opacity="0.6" fill="#313F49" d="M195.946,249.171c3.808,3.273,8.75,5.265,14.166,5.265
							c9.976,0,18.363-6.723,20.931-15.879C217.773,236.303,201.283,245.795,195.946,249.171z"/>
						<path fill="#607189" d="M195.946,250.175c3.808,3.274,8.75,5.264,14.166,5.264c9.976,0,18.363-6.722,20.931-15.878
							C217.773,237.307,201.283,246.8,195.946,250.175z"/>
						<path fill="#313F49" d="M196.807,251.036c3.808,3.273,8.75,5.265,14.165,5.265c9.976,0,18.364-6.723,20.931-15.879
							C218.634,238.168,202.144,247.66,196.807,251.036z"/>
					</g>
				</g>
				<circle opacity="0.36" fill="#313F49" cx="285.949" cy="235.691" r="23.669"/>
				<g>
					<circle fill="#313F49" cx="287.479" cy="234.543" r="21.757"/>
					<circle opacity="0.6" fill="#FFFFFF" cx="287.479" cy="234.543" r="23.669"/>
					<circle opacity="0.6" fill="#FFFFFF" cx="287.479" cy="234.543" r="19.462"/>
					<circle fill="#7CE8FF" cx="287.479" cy="234.543" r="16.784"/>
					<path opacity="0.6" fill="#FFFFFF" d="M287.479,217.76c9.27,0,16.784,7.514,16.784,16.784c0,1.558-0.229,3.059-0.626,4.49
						c-3.012,2.87-7.079,4.643-11.567,4.643c-9.27,0-16.784-7.515-16.784-16.784c0-1.558,0.229-3.059,0.626-4.49
						C278.924,219.533,282.991,217.76,287.479,217.76z"/>
					<g opacity="0.6">
						<g>
							<path fill="#FFFFFF" d="M296.581,240.991c1.774-4.186,3.229-8.346,0.667-12.574c-1.919-3.167-7.169-6.748-10.903-5.461
								c-1.655,0.57-2.539,2.393-1.625,3.994c1.462,2.558,4.48,2.673,6.517,4.617c1.105,1.056,1.294,2.025,1.597,3.507
								c0.347,1.701,1.034,3.395,0.865,5.137C293.556,241.689,295.987,242.391,296.581,240.991L296.581,240.991z"/>
						</g>
					</g>
					<g opacity="0.6">
						<g>
							<path fill="#FFFFFF" d="M282.763,248.096c0.642-0.66,0.726-1.539,0.304-2.354c-0.485-0.938-1.286-1.328-2.096-1.917
								c-1.504-1.094-2.254-2.983-4.119-3.534c-0.52-0.154-1.234,0.093-1.481,0.603c-0.946,1.949,0.247,3.946,1.771,5.237
								c0.735,0.623,1.517,1.169,2.387,1.585c0.67,0.321,1.7,0.52,2.185,0.656C282.079,248.476,282.496,248.369,282.763,248.096
								L282.763,248.096z"/>
						</g>
					</g>
					<g>
						<path opacity="0.6" fill="#313F49" d="M266.234,229.541c0.459-1.317,1.038-2.576,1.73-3.764
							c2.025-2.449,4.918-5.559,8.362-8.173c3.099-1.697,6.653-2.666,10.436-2.666c12.016,0,21.756,9.741,21.756,21.757
							c0,1.531-0.161,3.023-0.462,4.465C302.361,236.881,284.007,224.641,266.234,229.541z"/>
						<path fill="#607189" d="M266.665,228.536c0.459-1.317,1.038-2.575,1.729-3.764c2.026-2.448,4.918-5.558,8.362-8.173
							c3.099-1.697,6.653-2.665,10.436-2.665c12.017,0,21.757,9.741,21.757,21.757c0,1.531-0.162,3.023-0.463,4.465
							C302.792,235.876,284.437,223.637,266.665,228.536z"/>
						<path fill="#313F49" d="M266.952,227.389c0.459-1.317,1.038-2.575,1.729-3.764c2.025-2.449,4.918-5.559,8.362-8.173
							c3.099-1.697,6.653-2.666,10.436-2.666c12.016,0,21.757,9.741,21.757,21.757c0,1.531-0.162,3.024-0.463,4.465
							C303.079,234.729,284.724,222.489,266.952,227.389z"/>
						<path opacity="0.6" fill="#FFFFFF" d="M274.524,226.276c0.696-1.967,3.298-8.673,7.728-12.849
							c1.675-0.415,3.425-0.641,5.228-0.641c4.641,0,8.934,1.465,12.466,3.941c0.969,3.211,1.931,8.974,0.054,16.632
							C293.294,229.672,284.101,225.986,274.524,226.276z"/>
					</g>
				</g>
				<g opacity="0.6">
					<path fill="#FFFFFF" d="M310.696,290.92h0.653c0.156-0.077,0.314-0.151,0.469-0.231v-14.202h-1.122V290.92z"/>
					<path fill="#FFFFFF" d="M187.876,276.192v13.94c0.287,0.17,0.576,0.336,0.87,0.492h0.251v-14.433H187.876z"/>
				</g>
				<g>
					<path fill="#313F49" d="M312.105,290.92h0.668c0.16-0.077,0.321-0.151,0.479-0.231v-14.202h-1.147V290.92z"/>
					<path fill="#313F49" d="M186.442,276.192v13.94c0.293,0.17,0.588,0.336,0.89,0.492h0.257v-14.433H186.442z"/>
				</g>
				<path opacity="0.6" fill="#FFFFFF" d="M271.978,185.756v21.102h-46.842V185.9c-0.371,0.035-0.74,0.076-1.109,0.115v21.989
					h49.061v-22.166C272.717,185.809,272.348,185.782,271.978,185.756z"/>
				<path fill="#313F49" d="M272.8,186.903v21.102h-48.487v-20.957c-0.383,0.035-0.765,0.076-1.147,0.115v21.99h50.782v-22.167
					C273.565,186.957,273.183,186.93,272.8,186.903z"/>
				<g>
					<path fill="#313F49" d="M233.972,202.339c0,1.664-1.349,3.012-3.012,3.012c-1.664,0-3.013-1.349-3.013-3.012
						c0-1.664,1.349-3.013,3.013-3.013C232.624,199.326,233.972,200.675,233.972,202.339z M266.679,199.326
						c-1.663,0-3.012,1.349-3.012,3.013c0,1.664,1.349,3.012,3.012,3.012c1.664,0,3.013-1.349,3.013-3.012
						C269.691,200.675,268.343,199.326,266.679,199.326z"/>
					<g>
						<path opacity="0.6" fill="#A7B8C9" d="M233.494,201.765c0,1.664-1.349,3.012-3.013,3.012c-1.664,0-3.012-1.349-3.012-3.012
							c0-1.664,1.349-3.013,3.012-3.013C232.146,198.752,233.494,200.101,233.494,201.765z M266.201,198.752
							c-1.664,0-3.013,1.349-3.013,3.013c0,1.664,1.349,3.012,3.013,3.012c1.663,0,3.012-1.349,3.012-3.012
							C269.213,200.101,267.864,198.752,266.201,198.752z"/>
						<g>
							<path opacity="0.6" fill="#FFFFFF" d="M230.481,198.752c-1.664,0-3.012,1.349-3.012,3.013c0,0.181,0.022,0.357,0.053,0.53
								c0.551,0.72,1.409,1.191,2.385,1.191c1.664,0,3.013-1.349,3.013-3.013c0-0.181-0.023-0.357-0.054-0.53
								C232.316,199.224,231.458,198.752,230.481,198.752z"/>
							<path opacity="0.6" fill="#FFFFFF" d="M268.64,200.474c0-0.181-0.022-0.357-0.054-0.53c-0.55-0.72-1.409-1.191-2.385-1.191
								c-1.664,0-3.013,1.349-3.013,3.013c0,0.181,0.022,0.357,0.054,0.53c0.55,0.72,1.409,1.191,2.385,1.191
								C267.291,203.486,268.64,202.138,268.64,200.474z"/>
						</g>
					</g>
				</g>
				<g>
					<path fill="#313F49" d="M236.044,345.302c0,1.663-1.349,3.012-3.012,3.012s-3.012-1.349-3.012-3.012
						c0-1.664,1.349-3.013,3.012-3.013S236.044,343.638,236.044,345.302z M268.751,342.289c-1.664,0-3.013,1.349-3.013,3.013
						c0,1.663,1.349,3.012,3.013,3.012s3.013-1.349,3.013-3.012C271.764,343.638,270.415,342.289,268.751,342.289z"/>
					<g>
						<path opacity="0.6" fill="#A7B8C9" d="M235.566,344.728c0,1.664-1.349,3.013-3.012,3.013c-1.664,0-3.013-1.349-3.013-3.013
							s1.349-3.013,3.013-3.013C234.217,341.715,235.566,343.063,235.566,344.728z M268.272,341.715
							c-1.663,0-3.012,1.349-3.012,3.013s1.349,3.013,3.012,3.013c1.664,0,3.013-1.349,3.013-3.013S269.937,341.715,268.272,341.715
							z"/>
						<g>
							<path opacity="0.6" fill="#FFFFFF" d="M232.554,341.715c-1.664,0-3.013,1.349-3.013,3.013c0,0.182,0.023,0.357,0.054,0.53
								c0.55,0.72,1.409,1.191,2.385,1.191c1.664,0,3.012-1.349,3.012-3.013c0-0.182-0.022-0.357-0.053-0.53
								C234.388,342.188,233.53,341.715,232.554,341.715z"/>
							<path opacity="0.6" fill="#FFFFFF" d="M270.712,343.437c0-0.182-0.023-0.357-0.054-0.53
								c-0.551-0.719-1.409-1.191-2.386-1.191c-1.663,0-3.012,1.349-3.012,3.013c0,0.182,0.022,0.357,0.053,0.53
								c0.551,0.72,1.409,1.191,2.386,1.191C269.363,346.449,270.712,345.101,270.712,343.437z"/>
						</g>
					</g>
				</g>
				<g>
					<path fill="#313F49" d="M236.04,378.733c0,1.664-1.349,3.013-3.012,3.013c-1.664,0-3.013-1.349-3.013-3.013
						s1.349-3.013,3.013-3.013C234.691,375.721,236.04,377.069,236.04,378.733z M268.747,375.721c-1.664,0-3.013,1.349-3.013,3.013
						s1.349,3.013,3.013,3.013s3.013-1.349,3.013-3.013S270.411,375.721,268.747,375.721z"/>
					<g>
						<path opacity="0.6" fill="#A7B8C9" d="M235.562,378.16c0,1.663-1.349,3.012-3.013,3.012c-1.664,0-3.012-1.349-3.012-3.012
							c0-1.664,1.349-3.013,3.012-3.013C234.213,375.147,235.562,376.496,235.562,378.16z M268.269,375.147
							c-1.663,0-3.013,1.349-3.013,3.013c0,1.663,1.35,3.012,3.013,3.012c1.664,0,3.013-1.349,3.013-3.012
							C271.281,376.496,269.933,375.147,268.269,375.147z"/>
						<g>
							<path opacity="0.6" fill="#FFFFFF" d="M232.549,375.147c-1.664,0-3.012,1.349-3.012,3.013c0,0.182,0.022,0.356,0.053,0.529
								c0.551,0.72,1.409,1.191,2.385,1.191c1.664,0,3.013-1.349,3.013-3.012c0-0.182-0.023-0.357-0.054-0.53
								C234.384,375.619,233.525,375.147,232.549,375.147z"/>
							<path opacity="0.6" fill="#FFFFFF" d="M270.707,376.869c0-0.182-0.022-0.357-0.053-0.53c-0.551-0.72-1.409-1.191-2.386-1.191
								c-1.663,0-3.013,1.349-3.013,3.013c0,0.182,0.023,0.356,0.054,0.529c0.551,0.72,1.409,1.191,2.386,1.191
								C269.358,379.881,270.707,378.532,270.707,376.869z"/>
						</g>
					</g>
				</g>
				<g opacity="0.18">
					<rect x="239.758" y="295.701" width="21.231" height="2.296"/>
					<rect x="239.758" y="300.865" width="21.231" height="2.296"/>
					<rect x="239.758" y="305.647" width="21.231" height="2.295"/>
					<rect x="239.758" y="311.194" width="21.231" height="2.295"/>
				</g>
				<g>
					<rect x="239.758" y="294.554" fill="#607189" width="21.231" height="2.295"/>
					<rect x="239.758" y="299.718" fill="#607189" width="21.231" height="2.296"/>
					<rect x="239.758" y="304.5" fill="#607189" width="21.231" height="2.295"/>
					<rect x="239.758" y="310.047" fill="#607189" width="21.231" height="2.295"/>
				</g>
				<polygon opacity="0.6" fill="#FFFFFF" points="276.816,384.45 276.816,337.541 224.887,337.541 224.887,384.45 225.998,384.45 
					225.998,338.665 275.705,338.665 275.705,384.45 				"/>
				<g>
					<g opacity="0.53">
						<path fill="#313F49" d="M236.328,327.665c0,0-0.469-1.603-1.271-3.387c-0.811-1.78-1.705-3.19-1.705-3.19
							s0.018,1.71,0.863,3.571C235.056,326.522,236.328,327.665,236.328,327.665z"/>
						<path fill="#313F49" d="M293.764,333.543c1.668,0.459,3.143,0.386,3.143,0.386s-1.229-0.817-2.897-1.276
							c-0.731-0.201-1.417-0.298-1.966-0.346c-0.166-0.687-0.694-1.285-1.599-1.323c-3.265-0.136-6.812,1.364-7.407,4.948
							c-0.34,2.046,0.74,3.295,1.227,5.154c0.439,1.68-0.183,3.028-1.568,3.979c-0.57,0.392-4.377,1.13-4.242,1.723
							c-0.121-0.529-0.413-0.872-0.776-1.059v4.04c2.57,0.312,6.278-1.254,7.618-2.373c1.464-1.224,2.561-3.047,2.632-4.992
							c0.04-1.124-0.324-2.106-0.714-3.141c-0.447-1.188-0.841-1.604-0.414-2.902c0.53-1.612,1.961-2.005,3.646-1.935
							c0.353,0.014,0.643-0.067,0.883-0.205c0.49,0.252,1.033,0.538,1.611,0.853c0.939,0.514,1.79,0.999,2.409,1.378
							c0.611,0.377,1.013,0.625,1.013,0.625s-0.227-0.406-0.714-0.977c-0.484-0.568-1.257-1.286-2.266-1.838
							c-0.506-0.274-1.014-0.478-1.487-0.623c0.115-0.217,0.18-0.461,0.198-0.713C292.557,333.141,293.128,333.367,293.764,333.543z
							"/>
						<path fill="#313F49" d="M282.021,390.68c-0.259,0.352-0.531,0.922-0.574,1.596c-0.042,0.675,0.156,1.274,0.368,1.655
							c0.212,0.386,0.414,0.575,0.414,0.575s0.015-0.285,0.035-0.682c0.029-0.416,0.065-0.938,0.104-1.49
							c0.031-0.554,0.061-1.075,0.085-1.492c0.029-0.396,0.05-0.681,0.05-0.681S282.28,390.323,282.021,390.68z"/>
						<path fill="#313F49" d="M278.135,368.662c1.45,0.917,5.558-2.728,6.488-3.992c1.485-2.017,2.393-4.834,1.51-7.283
							c-1.614-4.479-5.62-3.496-8.456-1.192v4.778c0.299-0.121,0.575-0.335,0.793-0.669c0.594-0.91,2.003-2.91,3.326-2.708
							c1.88,0.289,1.229,2.813,0.689,4.016c-0.971,2.165-2.95,2.784-4.809,3.877v6.359
							C278.898,371.489,279.556,369.56,278.135,368.662z"/>
						<path fill="#313F49" d="M266.202,329.127c-5.015,0.056-5.687,5.564-6.98,9.275h3.548c0.462-1.886,0.805-4.058,2.174-5.236
							c1.193-1.028,2.431-0.488,2.979,0.866c0.515,1.274,0.172,2.891-0.052,4.178c-0.012,0.066-0.01,0.128-0.015,0.192h3.455
							c0.337-2.074,0.536-4.241-0.438-6.18C269.979,330.447,268.25,329.104,266.202,329.127z"/>
						<path fill="#313F49" d="M264.651,326.154c0.997-0.361,1.301-1.32,1.119-2.133c0.061-0.023,0.116-0.045,0.184-0.07
							c0.51-0.186,1.196-0.393,1.95-0.59c0.754-0.194,1.455-0.349,1.991-0.435c0.529-0.079,0.891-0.132,0.891-0.132
							s-0.308-0.185-0.868-0.33c-0.555-0.147-1.381-0.222-2.246,0.002c-0.865,0.227-1.55,0.694-1.963,1.093
							c-0.025,0.024-0.042,0.045-0.065,0.068c-0.154-0.338-0.407-0.611-0.731-0.767c0.425-0.182,1.09-0.517,1.719-1.045
							c1.033-0.868,1.573-1.926,1.573-1.926s-1.134,0.351-2.167,1.218c-0.716,0.602-1.189,1.286-1.416,1.654
							c-0.263-0.057-0.557-0.047-0.885,0.072c-4.985,1.806-7.706,7.09-8.81,12.392c-0.039-0.192-0.071-0.384-0.125-0.576
							c-0.693-2.508-2.587-4.37-4.041-6.442c-0.361-0.514-0.862-0.733-1.365-0.753c-0.107-0.459-0.275-1.018-0.544-1.595
							c-0.63-1.349-1.56-2.246-1.56-2.246s0.092,1.289,0.723,2.638c0.232,0.496,0.504,0.93,0.756,1.282
							c-0.271,0.08-0.524,0.211-0.732,0.388c-0.101-0.178-0.21-0.356-0.334-0.534c-0.538-0.771-1.178-1.349-1.675-1.713
							c-0.498-0.367-0.846-0.537-0.846-0.537s0.762,1.328,1.763,2.778c0.197,0.28,0.391,0.546,0.579,0.8
							c-0.097,0.374-0.04,0.799,0.264,1.229c1.882,2.683,4.488,5.165,3.709,8.457h2.948h0.542h2.919
							C258.397,333.645,260.282,327.737,264.651,326.154z"/>
						<path fill="#313F49" d="M285.166,378.426c-1.266-1.089-2.812-1.367-4.433-1.47c-1.119-0.071-2.13-0.167-3.057-0.373v3.637
							c1.827,0.156,4.355-0.299,5.561,1.147c1.512,1.816-0.111,5.564-0.781,7.49c-0.326,0.938,0.16,1.633,0.86,1.933
							c-0.041,0.545-0.029,1.151,0.089,1.79c0.218,1.159,0.721,2.122,1.166,2.737c0.446,0.621,0.805,0.928,0.805,0.928
							s-0.169-0.442-0.392-1.136c-0.226-0.694-0.473-1.646-0.671-2.699c-0.096-0.513-0.17-1.006-0.228-1.463
							c0.695,0.007,1.4-0.342,1.69-1.175C286.968,386.346,288.443,381.245,285.166,378.426z"/>
						<path fill="#313F49" d="M282.186,385.879c0.514-0.877,0.131-1.798-0.617-2.354c-1.166-0.869-2.491-1.504-3.892-1.882v3.64
							c0.752,0.303,1.464,0.7,2.154,1.215C280.577,387.053,281.754,386.619,282.186,385.879z"/>
						<path fill="#313F49" d="M244.109,332.779c-1.367-2.166-3.546-3.779-5.717-5.064c-1.131-0.67-2.193,0.101-2.482,1.074
							c-0.058-0.117-0.13-0.253-0.236-0.415c-0.275-0.423-0.765-0.958-1.456-1.322c-0.692-0.363-1.41-0.465-1.914-0.452
							c-0.508,0.011-0.812,0.106-0.812,0.106s0.293,0.142,0.714,0.346c0.433,0.224,0.987,0.51,1.581,0.817
							c0.59,0.315,1.14,0.61,1.569,0.841c0.206,0.117,0.379,0.216,0.501,0.285c-0.109,0.617,0.098,1.278,0.797,1.692
							c1.161,0.688,2.37,1.473,3.355,2.449c-3.136,0.794-5.56,2.703-7.246,5.266h4.447c0.747-0.656,1.6-1.193,2.561-1.562
							c0.591-0.227,1.342-0.422,2.153-0.542c0.202,0.68,0.331,1.386,0.412,2.104h3.441c-0.068-0.681-0.173-1.357-0.306-2.024
							c1.157,0.276,2.146,0.856,2.654,1.887c0.025,0.052,0.058,0.091,0.086,0.138h2.685c0.391-0.488,0.552-1.165,0.202-1.876
							C249.875,334.042,246.967,332.963,244.109,332.779z"/>
					</g>
					<g>
						<g>
							<g>
								<path fill-rule="evenodd" clip-rule="evenodd" fill="#313F49" d="M234.484,323.131c0.802,1.784,1.271,3.387,1.271,3.387
									s-1.272-1.143-2.112-3.006c-0.845-1.861-0.863-3.571-0.863-3.571S233.673,321.351,234.484,323.131z"/>
							</g>
							<g>
								<path fill-rule="evenodd" clip-rule="evenodd" fill="#313F49" d="M233.645,325.904c0.691,0.364,1.181,0.899,1.456,1.322
									c0.279,0.425,0.372,0.729,0.372,0.729s-0.283-0.161-0.689-0.393c-0.429-0.23-0.979-0.525-1.569-0.841
									c-0.594-0.308-1.148-0.594-1.581-0.818c-0.42-0.203-0.714-0.346-0.714-0.346s0.303-0.095,0.811-0.105
									C232.235,325.439,232.953,325.541,233.645,325.904z"/>
							</g>
							<g>
								<path fill-rule="evenodd" clip-rule="evenodd" fill="#313F49" d="M265.463,319.961c1.033-0.867,2.168-1.218,2.168-1.218
									s-0.541,1.058-1.573,1.926c-1.033,0.867-2.168,1.217-2.168,1.217S264.431,320.829,265.463,319.961z"/>
							</g>
							<g>
								<path fill-rule="evenodd" clip-rule="evenodd" fill="#313F49" d="M267.098,321.319c0.866-0.224,1.691-0.149,2.246-0.002
									c0.561,0.146,0.868,0.33,0.868,0.33s-0.36,0.053-0.891,0.131c-0.536,0.087-1.236,0.241-1.991,0.436
									c-0.753,0.197-1.439,0.404-1.95,0.59c-0.501,0.19-0.842,0.319-0.842,0.319s0.179-0.311,0.597-0.711
									C265.548,322.014,266.232,321.546,267.098,321.319z"/>
							</g>
							<g>
								<path fill-rule="evenodd" clip-rule="evenodd" fill="#313F49" d="M247.13,326.24c0.537,0.771,0.857,1.572,1.027,2.164
									c0.171,0.595,0.209,0.98,0.209,0.98s-0.981-1.175-1.995-2.616c-1.001-1.45-1.763-2.778-1.763-2.778s0.349,0.17,0.847,0.537
									C245.952,324.892,246.592,325.47,247.13,326.24z"/>
							</g>
							<g>
								<path fill-rule="evenodd" clip-rule="evenodd" fill="#313F49" d="M248.277,324.713c0.63,1.349,0.723,2.637,0.723,2.637
									s-0.929-0.897-1.559-2.245c-0.63-1.349-0.723-2.638-0.723-2.638S247.647,323.364,248.277,324.713z"/>
							</g>
							<g>
								<path fill-rule="evenodd" clip-rule="evenodd" fill="#313F49" d="M292.807,333.115c1.01,0.552,1.782,1.27,2.267,1.838
									c0.487,0.57,0.714,0.976,0.714,0.976s-0.402-0.247-1.014-0.624c-0.619-0.379-1.469-0.864-2.409-1.379
									c-0.941-0.512-1.81-0.963-2.464-1.278c-0.647-0.31-1.073-0.514-1.073-0.514s0.464-0.029,1.207,0.072
									C290.774,332.305,291.796,332.565,292.807,333.115z"/>
							</g>
							<g>
								<path fill-rule="evenodd" clip-rule="evenodd" fill="#313F49" d="M293.435,331.505c1.668,0.459,2.898,1.276,2.898,1.276
									s-1.476,0.073-3.144-0.386s-2.897-1.277-2.897-1.277S291.768,331.045,293.435,331.505z"/>
							</g>
							<g>
								<path fill-rule="evenodd" clip-rule="evenodd" fill="#313F49" d="M281.795,391.187c-0.038,0.553-0.075,1.073-0.104,1.49
									c-0.021,0.396-0.036,0.682-0.036,0.682s-0.202-0.189-0.413-0.575c-0.212-0.381-0.411-0.98-0.369-1.655
									c0.043-0.675,0.316-1.244,0.574-1.596c0.259-0.356,0.483-0.519,0.483-0.519s-0.021,0.285-0.051,0.681
									C281.856,390.111,281.826,390.633,281.795,391.187z"/>
							</g>
							<g>
								<path fill-rule="evenodd" clip-rule="evenodd" fill="#313F49" d="M283.739,391.263c0.199,1.054,0.445,2.005,0.671,2.699
									c0.223,0.693,0.392,1.136,0.392,1.136s-0.358-0.307-0.804-0.928c-0.445-0.615-0.948-1.578-1.167-2.737
									c-0.215-1.16-0.094-2.239,0.1-2.975c0.191-0.739,0.415-1.154,0.415-1.154s0.002,0.473,0.044,1.199
									C283.431,389.232,283.544,390.208,283.739,391.263z"/>
							</g>
						</g>
						<g>
							<g>
								<path fill="#7CE8FF" d="M285.559,356.239c-1.614-4.479-5.62-3.496-8.455-1.192v4.778c0.298-0.121,0.575-0.335,0.793-0.67
									c0.593-0.909,2.003-2.909,3.325-2.707c1.88,0.288,1.23,2.813,0.69,4.016c-0.972,2.165-2.95,2.784-4.809,3.877v6.359
									c1.221-0.358,1.878-2.288,0.457-3.186c1.451,0.916,5.558-2.728,6.489-3.992
									C285.535,361.506,286.441,358.688,285.559,356.239z"/>
							</g>
							<g>
								<g>
									<path fill="#FF676B" d="M289.871,329.836c-3.266-0.136-6.813,1.364-7.408,4.948c-0.34,2.046,0.741,3.294,1.228,5.154
										c0.438,1.68-0.184,3.027-1.569,3.979c-0.569,0.391-4.377,1.13-4.241,1.723c-0.121-0.529-0.413-0.872-0.776-1.059v4.039
										c2.57,0.313,6.278-1.253,7.618-2.372c1.464-1.224,2.561-3.048,2.631-4.992c0.041-1.125-0.324-2.106-0.713-3.141
										c-0.447-1.188-0.842-1.604-0.415-2.902c0.531-1.612,1.961-2.005,3.646-1.936
										C292.086,333.371,292.082,329.928,289.871,329.836z"/>
								</g>
							</g>
							<g>
								<path fill="#FFC23E" d="M262.195,337.255c0.462-1.886,0.805-4.058,2.174-5.236c1.194-1.028,2.432-0.488,2.979,0.866
									c0.515,1.274,0.172,2.891-0.052,4.178c-0.011,0.066-0.009,0.128-0.014,0.192h3.455c0.337-2.074,0.536-4.241-0.439-6.18
									c-0.892-1.775-2.622-3.119-4.67-3.096c-5.015,0.056-5.686,5.564-6.979,9.275H262.195z"/>
							</g>
							<g>
								<path fill="#FFFFFF" d="M250.923,337.255h3.491c0.199-1.229,0.163-2.49-0.186-3.752c-0.694-2.508-2.587-4.37-4.042-6.442
									c-1.263-1.8-4.25-0.081-2.973,1.737C249.096,331.48,251.703,333.962,250.923,337.255z"/>
							</g>
							<g>
								<g>
									<path fill="#7CE8FF" d="M257.333,337.255c0.491-4.759,2.375-10.666,6.745-12.248c2.066-0.749,1.175-4.077-0.916-3.32
										c-5.989,2.17-8.718,9.359-9.29,15.568H257.333z"/>
								</g>
							</g>
							<g>
								<path fill="#FFFFFF" d="M284.593,377.278c-1.266-1.089-2.813-1.368-4.433-1.47c-1.119-0.071-2.131-0.167-3.057-0.373v3.636
									c1.827,0.157,4.355-0.299,5.56,1.148c1.513,1.816-0.111,5.564-0.78,7.489c-0.729,2.098,2.595,2.999,3.319,0.916
									C286.394,385.198,287.87,380.098,284.593,377.278z"/>
							</g>
							<g>
								<path fill="#FFC23E" d="M280.994,382.377c-1.166-0.869-2.491-1.504-3.891-1.882v3.64c0.752,0.303,1.463,0.7,2.153,1.215
									c0.746,0.556,1.923,0.121,2.355-0.618C282.126,383.854,281.742,382.934,280.994,382.377z"/>
							</g>
							<g>
								<path fill="#FFC23E" d="M236.081,329.54c1.843,1.092,3.81,2.424,4.802,4.387c0.517,1.021,0.75,2.166,0.881,3.328h3.441
									c-0.183-1.823-0.525-3.646-1.411-5.216c-1.34-2.377-3.669-4.106-5.976-5.472
									C235.908,325.436,234.174,328.411,236.081,329.54z"/>
							</g>
							<g>
								<g>
									<path fill="#FF676B" d="M236.638,337.255c0.747-0.656,1.6-1.193,2.561-1.563c2.298-0.881,7.01-1.304,8.355,1.424
										c0.025,0.053,0.058,0.092,0.086,0.139h2.685c0.391-0.488,0.552-1.165,0.202-1.876c-1.819-3.689-7.348-4.289-10.915-3.441
										c-3.223,0.767-5.703,2.706-7.421,5.317H236.638z"/>
								</g>
							</g>
						</g>
					</g>
				</g>
				<polygon opacity="0.53" fill="#313F49" points="277.677,384.45 277.677,336.537 224.026,336.537 224.026,384.45 225.174,384.45 
					225.174,337.685 276.529,337.685 276.529,384.45 				"/>
				<path fill="#607189" d="M292.213,330.799l5.356-1.147c0,0,8.798,10.329,7.268,25.63l-7.268-0.382L292.213,330.799z"/>
				<path fill="#607189" d="M212.754,330.817l-5.034-2.158c0,0-10.625,8.438-12.072,23.748l7.206,1.025L212.754,330.817z"/>
				<g>
					<g>
						<path fill-rule="evenodd" clip-rule="evenodd" fill="#FFC23E" d="M334.039,200.564c0,0-0.008,0.012,0.003,0.014l0.005,0.001
							c0,0-0.002,0.003,0.012-0.006l0.104-0.075l0.409-0.304c0.269-0.205,0.53-0.413,0.786-0.624
							c0.525-0.439,0.954-0.819,1.479-1.333c0.847-0.864,1.653-1.862,2.356-2.667c0.168,1.364,0.302,2.762,0.372,3.864
							c0.029,0.72,0.036,1.405,0.027,2.049c-0.014,1.288-0.092,2.412-0.182,3.335c-0.184,1.847-0.398,2.894-0.398,2.894
							s-0.019-1.071-0.138-2.903c-0.062-0.916-0.151-2.021-0.3-3.274c-0.073-0.626-0.159-1.291-0.264-1.985
							c-0.07-0.293-0.109-0.419-0.172-0.454c-0.065,0.11-0.132,0.224-0.201,0.341c-0.38,0.429-0.924,0.981-1.437,1.447
							c-0.265,0.241-0.538,0.479-0.821,0.71l-0.432,0.344l-0.314,0.237l-0.431,0.305c-0.578,0.411-1.161,0.78-1.764,1.184
							c-0.05,0.053-0.053-0.002-0.059-0.05l-0.023-0.131l-0.045-0.264l-0.092-0.529l-0.185-1.067l-0.136-0.868l-0.067-0.479
							c-0.042-0.319-0.082-0.636-0.123-0.95c-0.067-0.63-0.134-1.251-0.199-1.862c-0.106-1.223-0.185-2.405-0.221-3.532
							c-0.082-2.254-0.028-4.286,0.069-5.985c0.203-3.401,0.57-5.475,0.57-5.475s0.095,2.104,0.354,5.466
							c0.133,1.681,0.31,3.676,0.561,5.879c0.136,1.1,0.277,2.254,0.425,3.451C333.721,198.333,333.878,199.436,334.039,200.564z"/>
					</g>
					<g>
						<path fill-rule="evenodd" clip-rule="evenodd" fill="#FFC23E" d="M358.645,222.642c-0.204-0.187-0.404-0.455-0.605-0.677
							c-0.17-0.238-0.327-0.481-0.473-0.719l-0.395-0.719l-0.202-0.37c-0.014-0.029-0.041-0.065-0.043-0.089l0.1-0.024l0.198-0.048
							c0.535-0.125,1.037-0.259,1.583-0.37c0.426-0.068,0.849-0.135,1.267-0.202c1.154-0.192,2.265-0.405,3.319-0.629
							c2.11-0.448,3.994-0.955,5.57-1.423s2.841-0.905,3.713-1.217c0.873-0.315,1.356-0.49,1.356-0.49s-0.43,0.282-1.234,0.752
							c-0.804,0.471-1.987,1.125-3.51,1.819c-1.521,0.694-3.379,1.437-5.509,2.069c-1.064,0.316-2.195,0.607-3.38,0.856
							l-0.447,0.089c-0.112,0.023-0.036,0.012-0.063,0.02c-0.005,0.005-0.003,0.013-0.003,0.013
							c0.017,0.016,0.002-0.005,0.031,0.021c0.459,0.441,1.015,0.774,1.593,0.994c0.149,0.044,0.288,0.104,0.444,0.135
							c0.089,0.019,0.121,0.039,0.258,0.056l0.553,0.049c0.761,0.013,1.768-0.119,2.527-0.172c-0.895,1.366-2.303,3.295-2.784,3.666
							c-0.689,0.688-1.429,1.254-2.152,1.739c-1.459,0.961-2.9,1.534-4.124,1.851c-1.226,0.32-2.227,0.417-2.908,0.436
							c-0.684,0.016-1.051-0.007-1.051-0.007s0.36-0.072,1.023-0.205c0.655-0.146,1.597-0.417,2.7-0.898
							c1.104-0.477,2.363-1.196,3.596-2.215c0.61-0.515,1.227-1.089,1.792-1.754c0.146-0.162,0.275-0.341,0.417-0.512
							c0.087-0.108,0.112-0.142,0.106-0.143l0.013-0.037c0.006-0.038,0.033-0.085-0.018-0.071l-0.08,0.022l-0.011,0.003
							l-0.281-0.059c-0.206-0.037-0.415-0.111-0.623-0.171C360.087,223.728,359.303,223.272,358.645,222.642z"/>
					</g>
					<g>
						<path fill-rule="evenodd" clip-rule="evenodd" fill="#FFC23E" d="M136.97,244.29c1.339-1.968,2.631-3.866,3.822-5.616
							c0.317,0.814,0.628,1.614,0.934,2.398c0.12,0.314,0.238,0.625,0.354,0.933c0.073,0.202,0.145,0.401,0.216,0.599
							c0.278,0.792,0.543,1.549,0.794,2.265c0.493,1.434,0.91,2.708,1.249,3.77c0.676,2.123,1.034,3.396,1.034,3.396
							s-0.641-1.156-1.652-3.142c-0.506-0.993-1.104-2.192-1.762-3.559c-0.325-0.685-0.668-1.41-1.027-2.169
							c-0.088-0.19-0.177-0.383-0.268-0.577c-0.034-0.07-0.115-0.257-0.11-0.232l-0.029-0.037c-0.037-0.044-0.063-0.068-0.082-0.076
							c-0.023,0.059-0.037,0.101-0.044,0.13l-0.004,0.02l-0.001,0.008l-0.074,0.117l-0.348,0.547
							c-0.475,0.73-0.964,1.482-1.461,2.248c-0.295,0.443-0.588,0.884-0.88,1.322l-0.499,0.747l-0.247,0.37
							c-0.081,0.091-0.168,0.361-0.237,0.118c-0.521-0.938-1.034-1.861-1.539-2.769c-0.555-1.003-1.089-1.971-1.6-2.894
							c-1.04-1.838-1.978-3.494-2.766-4.887c-1.608-2.778-2.606-4.502-2.606-4.502s1.378,1.447,3.372,3.986
							c0.996,1.27,2.141,2.815,3.329,4.589c0.594,0.887,1.199,1.831,1.802,2.824l0.113,0.187l0.056,0.094
							c0.009,0.013,0.007,0.008,0.007,0.008l0.012,0.005c0.006,0.001,0.012-0.004,0.012-0.004l0.002-0.016l-0.001-0.002
							c0,0-0.002,0.003,0.002-0.004L136.97,244.29z"/>
					</g>
					<g>
						<path fill-rule="evenodd" clip-rule="evenodd" fill="#FFC23E" d="M131.184,264.932c0.485,0.186,0.967,0.359,1.445,0.523
							l0.358,0.12l0.642,0.197c0.484,0.142,0.963,0.282,1.439,0.422c-0.189,0.396-0.376,0.788-0.562,1.177
							c-0.167,0.362-0.415,0.842-0.485,0.961c-0.214,0.394-0.439,0.771-0.669,1.135c-0.455,0.729-0.943,1.395-1.428,2.002
							c-0.972,1.216-1.96,2.182-2.83,2.923c-0.87,0.74-1.615,1.265-2.139,1.604c-0.53,0.326-0.82,0.505-0.82,0.505
							s0.239-0.241,0.676-0.681c0.431-0.442,1.042-1.1,1.746-1.956c0.704-0.856,1.494-1.919,2.27-3.173
							c0.387-0.628,0.778-1.298,1.144-2.017c0.186-0.358,0.368-0.727,0.542-1.107c0.126-0.269,0.073-0.177,0.084-0.214
							c-0.002-0.013-0.004-0.021-0.009-0.025l-0.041,0.006l-0.006,0.002l-0.001,0.001l-0.094-0.027l-0.383-0.117
							c-0.512-0.16-1.027-0.338-1.541-0.535c-0.52-0.2-1.027-0.415-1.52-0.643l-0.367-0.172l-0.625-0.308
							c-0.46-0.224-0.882-0.459-1.302-0.687c-0.413-0.228-0.822-0.453-1.228-0.676l-0.075-0.042
							c-0.009-0.014,0.043-0.026,0.063-0.04l0.159-0.079l0.317-0.156l0.624-0.308c0.421-0.198,0.838-0.396,1.251-0.59
							c0.339-0.153,0.675-0.306,1.007-0.456c1.723-0.744,3.292-1.38,4.617-1.897c2.65-1.036,4.329-1.597,4.329-1.597
							s-1.476,0.977-3.924,2.427c-1.224,0.726-2.691,1.569-4.338,2.469l-0.155,0.084l-0.077,0.042l-0.009,0.009l-0.031,0.032
							c-0.018,0.02-0.03,0.036-0.036,0.049c-0.036,0.025,0.028,0.04,0.076,0.045c0.019,0.002,0.033,0.003,0.042,0.002
							c0.032,0.012-0.054-0.03,0.077,0.027l0.351,0.153C130.214,264.547,130.694,264.743,131.184,264.932z"/>
					</g>
					<g>
						<path fill-rule="evenodd" clip-rule="evenodd" fill="#FFC23E" d="M166.041,262.118l0.002,0.002l0.13-0.415
							c0.151-0.461,0.325-0.906,0.518-1.333c0.096-0.214,0.198-0.423,0.304-0.627c0.049-0.097,0.111-0.216,0.184-0.335
							c0.082-0.139,0.217-0.333,0.35-0.468c0.536-0.603,1.443-0.665,2.029-0.211c0.668,0.543,0.727,0.895,0.951,1.218
							c0.191,0.333,0.377,0.656,0.557,0.97c0.35,0.631,0.676,1.219,0.975,1.757c1.172,2.161,1.825,3.547,1.825,3.547
							s-1.036-1.128-2.592-3.032c-0.384-0.479-0.805-1.005-1.256-1.568c-0.222-0.284-0.451-0.579-0.687-0.883
							c-0.215-0.294-0.53-0.681-0.524-0.605c-0.061-0.024-0.122,0.021-0.129,0.067c-0.008,0.02,0.007,0.001-0.017,0.05l-0.107,0.239
							l-0.232,0.567c-0.148,0.385-0.283,0.782-0.403,1.189l-0.087,0.308l-0.152,0.603c-0.1,0.461-0.187,0.934-0.25,1.479
							c-0.115,1.031-0.229,2.052-0.336,3.012c-0.827-1.489-1.632-2.937-2.407-4.332c-0.122-0.229-0.243-0.458-0.363-0.684
							l-0.268-0.522c-0.173-0.346-0.343-0.685-0.508-1.014c-0.654-1.322-1.212-2.521-1.667-3.532
							c-0.909-2.021-1.399-3.289-1.399-3.289s0.846,1.064,2.131,2.87c0.642,0.902,1.394,1.99,2.205,3.223
							c0.371,0.573,0.761,1.175,1.167,1.801c0.057,0.035,0.067,0.01,0.062-0.027L166.041,262.118z"/>
					</g>
				</g>
				<g>
					<path fill="#313F49" d="M358.706,301.726l6.477-6.216l7.459-2.008c0,0,4.017,13.484,11.476,12.05
						c7.46-1.435,12.624-4.017,12.911-11.189c0.287-7.172-1.946-6.563-1.946-6.563l4.815-6.347l7.746-4.878
						c0,0,12.624,27.543-9.468,37.011S358.706,301.726,358.706,301.726z"/>
					<path opacity="0.18" d="M407.924,277.231l-11.109,18.978c-1.053,5.777-5.921,8.04-12.697,9.343
						c-6.943,1.335-10.902-10.253-11.416-11.86l-5.511,7.557v0.957c-0.246,2.053,7.551,7.773,16.525,13.634
						c4.462,0.469,9.331-0.056,14.46-2.254C418.255,304.979,409.657,281.448,407.924,277.231z"/>
					<g>
						<path fill="#607189" d="M380.848,319.369c-4.077,0-7.788-0.942-11.1-2.824c-8.624-4.903-10.948-14.417-11.042-14.819
							l8.93-2.132c0.015,0.061,1.582,6.135,6.719,9.009c3.552,1.987,8.206,2.095,13.833,0.318c4.801-1.517,7.85-3.887,9.062-7.045
							c2.349-6.126-2.121-14-2.167-14.077l7.909-4.66c0.279,0.475,6.785,11.714,2.829,22.025
							c-2.264,5.901-7.267,10.111-14.869,12.512C387.376,318.805,384.002,319.369,380.848,319.369z"/>
					</g>
					<g opacity="0.6">
						<path fill="#FFFFFF" d="M380.848,319.369c-4.077,0-7.788-0.942-11.1-2.824c-8.624-4.903-10.948-14.417-11.042-14.819
							l8.93-2.132c0.015,0.061,1.582,6.135,6.719,9.009c3.552,1.987,8.206,2.095,13.833,0.318c4.801-1.517,7.85-3.887,9.062-7.045
							c2.349-6.126-2.121-14-2.167-14.077l7.909-4.66c0.279,0.475,6.785,11.714,2.829,22.025
							c-2.264,5.901-7.267,10.111-14.869,12.512C387.376,318.805,384.002,319.369,380.848,319.369z"/>
					</g>
					<g>
						<path fill="#607189" d="M381.708,321.091c-4.077,0-7.788-0.942-11.1-2.824c-8.624-4.903-10.948-14.417-11.042-14.819
							l8.93-2.132c0.015,0.061,1.582,6.135,6.719,9.009c3.553,1.986,8.207,2.094,13.833,0.318c4.801-1.517,7.851-3.887,9.062-7.045
							c2.35-6.126-2.121-14-2.167-14.078l7.91-4.659c0.279,0.474,6.784,11.714,2.828,22.025c-2.264,5.901-7.267,10.11-14.869,12.512
							C388.236,320.525,384.863,321.091,381.708,321.091z"/>
					</g>
				</g>
				<g>
					<path fill="#313F49" d="M55.645,353.494l7.16,5.414l7.644,1.12c0,0,2.409-13.862,9.985-13.312s13.007,2.511,14.132,9.6
						c1.125,7.09-1.164,6.747-1.164,6.747l5.526,5.739l8.265,3.936c0,0,9.31-28.832-13.739-35.646
						C70.406,330.277,55.645,353.494,55.645,353.494z"/>
					<path opacity="0.18" d="M107.395,372.054l-13.256-17.546c-1.723-5.614-6.823-7.29-13.704-7.791
						c-7.053-0.513-9.627,11.46-9.949,13.117l-6.358-6.859l-0.112-0.95c-0.485-2.01,6.588-8.605,14.814-15.477
						c4.376-0.988,9.274-1.038,14.625,0.544C114.403,343.286,108.622,367.663,107.395,372.054z"/>
					<g>
						<path fill="#607189" d="M75.567,333.378c-4.049,0.478-7.624,1.849-10.692,4.105c-7.99,5.88-9.184,15.601-9.23,16.011
							l9.118,1.07c0.007-0.062,0.853-6.277,5.617-9.733c3.295-2.39,7.905-3.041,13.701-1.937c4.946,0.943,8.252,2.94,9.825,5.935
							c3.051,5.809-0.466,14.152-0.503,14.234l8.401,3.701c0.222-0.504,5.366-12.428,0.229-22.205
							c-2.94-5.596-8.401-9.19-16.233-10.684C82.117,333.174,78.701,333.009,75.567,333.378z"/>
					</g>
					<g opacity="0.6">
						<path fill="#FFFFFF" d="M75.567,333.378c-4.049,0.478-7.624,1.849-10.692,4.105c-7.99,5.88-9.184,15.601-9.23,16.011
							l9.118,1.07c0.007-0.062,0.853-6.277,5.617-9.733c3.295-2.39,7.905-3.041,13.701-1.937c4.946,0.943,8.252,2.94,9.825,5.935
							c3.051,5.809-0.466,14.152-0.503,14.234l8.401,3.701c0.222-0.504,5.366-12.428,0.229-22.205
							c-2.94-5.596-8.401-9.19-16.233-10.684C82.117,333.174,78.701,333.009,75.567,333.378z"/>
					</g>
					<g>
						<path fill="#607189" d="M76.221,331.567c-4.049,0.479-7.624,1.849-10.692,4.105c-7.99,5.88-9.184,15.601-9.23,16.011
							l9.118,1.07c0.008-0.062,0.853-6.277,5.617-9.732c3.295-2.39,7.905-3.042,13.7-1.938c4.946,0.943,8.252,2.94,9.825,5.935
							c3.05,5.809-0.467,14.152-0.503,14.234l8.402,3.701c0.221-0.503,5.365-12.428,0.229-22.205
							c-2.939-5.596-8.401-9.189-16.233-10.684C82.77,331.364,79.354,331.198,76.221,331.567z"/>
					</g>
				</g>
			</g>
		</g>
		<g>
			<path fill="#313F49" d="M135.417,190.583c-8.698,0-15.75,7.051-15.75,15.75c0,8.698,7.052,15.75,15.75,15.75
				c8.699,0,15.75-7.052,15.75-15.75C151.167,197.635,144.115,190.583,135.417,190.583z M135.417,217.083
				c-5.937,0-10.75-4.813-10.75-10.75s4.813-10.75,10.75-10.75s10.75,4.813,10.75,10.75S141.354,217.083,135.417,217.083z"/>
			<g>
				<rect x="132.083" y="184.417" fill="#313F49" width="6.667" height="7.667"/>
				<rect x="132.083" y="219.917" fill="#313F49" width="6.667" height="7.667"/>
			</g>
			<g>
				
					<rect x="119.532" y="189.615" transform="matrix(0.7071 -0.7071 0.7071 0.7071 -100.805 143.5504)" fill="#313F49" width="6.667" height="7.667"/>
				
					<rect x="144.635" y="214.718" transform="matrix(0.7071 -0.7071 0.7071 0.7071 -111.2003 168.6412)" fill="#313F49" width="6.666" height="7.666"/>
			</g>
			<g>
				<rect x="113.833" y="202.667" fill="#313F49" width="7.667" height="6.667"/>
				<rect x="149.333" y="202.667" fill="#313F49" width="7.667" height="6.667"/>
			</g>
			<g>
				
					<rect x="119.532" y="214.718" transform="matrix(-0.7071 -0.7071 0.7071 -0.7071 55.1935 459.9656)" fill="#313F49" width="6.667" height="7.666"/>
				
					<rect x="144.635" y="189.616" transform="matrix(-0.7071 -0.7071 0.7071 -0.7071 115.8077 434.8671)" fill="#313F49" width="6.666" height="7.667"/>
			</g>
		</g>
		<g>
			<path fill="#607189" d="M162.917,180.979c-5.983,0-10.834,4.851-10.834,10.834s4.851,10.834,10.834,10.834
				s10.834-4.851,10.834-10.834S168.9,180.979,162.917,180.979z M162.917,199.208c-4.084,0-7.395-3.311-7.395-7.395
				s3.311-7.395,7.395-7.395s7.395,3.311,7.395,7.395S167,199.208,162.917,199.208z"/>
			<g>
				<rect x="160.624" y="176.737" fill="#607189" width="4.585" height="5.273"/>
				<rect x="160.624" y="201.156" fill="#607189" width="4.585" height="5.273"/>
			</g>
			<g>
				
					<rect x="151.99" y="180.313" transform="matrix(0.7071 -0.7071 0.7071 0.7071 -84.1765 162.6794)" fill="#607189" width="4.586" height="5.274"/>
				
					<rect x="169.257" y="197.58" transform="matrix(0.7071 -0.7071 0.7071 0.7071 -91.3287 179.9465)" fill="#607189" width="4.586" height="5.274"/>
			</g>
			<g>
				<rect x="148.07" y="189.291" fill="#607189" width="5.273" height="4.585"/>
				<rect x="172.49" y="189.291" fill="#607189" width="5.273" height="4.585"/>
			</g>
			<g>
				
					<rect x="151.99" y="197.58" transform="matrix(-0.7071 -0.7071 0.7071 -0.7071 121.8033 450.8861)" fill="#607189" width="4.586" height="5.274"/>
				
					<rect x="169.257" y="180.313" transform="matrix(-0.7071 -0.7071 0.7071 -0.7071 163.4897 433.619)" fill="#607189" width="4.586" height="5.274"/>
			</g>
		</g>
		<g>
			<path fill="#607189" d="M355.017,254.781c-8.698,0-15.75,7.051-15.75,15.75c0,8.698,7.052,15.75,15.75,15.75
				s15.75-7.052,15.75-15.75C370.767,261.832,363.715,254.781,355.017,254.781z M355.017,281.281c-5.938,0-10.75-4.813-10.75-10.75
				c0-5.938,4.813-10.75,10.75-10.75c5.937,0,10.75,4.813,10.75,10.75C365.767,276.468,360.953,281.281,355.017,281.281z"/>
			<g>
				<rect x="351.683" y="248.614" fill="#607189" width="6.667" height="7.667"/>
				<rect x="351.683" y="284.114" fill="#607189" width="6.667" height="7.667"/>
			</g>
			<g>
				
					<rect x="339.132" y="253.813" transform="matrix(0.7071 -0.7071 0.7071 0.7071 -81.8778 317.6225)" fill="#607189" width="6.666" height="7.667"/>
				
					<rect x="364.234" y="278.916" transform="matrix(0.7071 -0.7071 0.7071 0.7071 -92.2758 342.7247)" fill="#607189" width="6.666" height="7.666"/>
			</g>
			<g>
				<rect x="333.433" y="266.864" fill="#607189" width="7.667" height="6.667"/>
				<rect x="368.934" y="266.864" fill="#607189" width="7.666" height="6.667"/>
			</g>
			<g>
				
					<rect x="339.132" y="278.915" transform="matrix(-0.707 -0.7072 0.7072 -0.707 384.6458 724.8459)" fill="#607189" width="6.667" height="7.667"/>
				
					<rect x="364.234" y="253.813" transform="matrix(-0.7071 -0.7071 0.7071 -0.7071 445.2932 699.7394)" fill="#607189" width="6.666" height="7.666"/>
			</g>
		</g>
		<g>
			<path fill="#FFFFFF" d="M179.658,149.445c-5.765,1.928-8.876,8.164-6.948,13.929s8.164,8.876,13.929,6.948
				s8.876-8.164,6.948-13.929S185.423,147.518,179.658,149.445z M185.531,167.009c-3.935,1.316-8.191-0.808-9.507-4.742
				c-1.316-3.935,0.808-8.191,4.742-9.507c3.935-1.316,8.191,0.808,9.507,4.742C191.589,161.437,189.465,165.693,185.531,167.009z"
				/>
			<g>
				
					<rect x="176.811" y="145.22" transform="matrix(0.9484 -0.3171 0.3171 0.9484 -37.6571 64.4473)" fill="#FFFFFF" width="4.659" height="5.357"/>
				
					<rect x="184.679" y="168.748" transform="matrix(0.9484 -0.3171 0.3171 0.9484 -44.7128 68.1569)" fill="#FFFFFF" width="4.659" height="5.358"/>
			</g>
			<g>
				
					<rect x="169.645" y="151.447" transform="matrix(0.4464 -0.8948 0.8948 0.4464 -42.7101 239.2185)" fill="#FFFFFF" width="4.659" height="5.358"/>
				
					<rect x="191.845" y="162.521" transform="matrix(0.4464 -0.8948 0.8948 0.4464 -40.329 265.2151)" fill="#FFFFFF" width="4.659" height="5.358"/>
			</g>
			<g>
				
					<rect x="168.981" y="160.918" transform="matrix(-0.3171 -0.9484 0.9484 -0.3171 70.4874 377.9468)" fill="#FFFFFF" width="4.659" height="5.358"/>
				
					<rect x="192.509" y="153.05" transform="matrix(-0.317 -0.9484 0.9484 -0.317 108.916 389.8895)" fill="#FFFFFF" width="4.659" height="5.358"/>
			</g>
			<g>
				
					<rect x="175.208" y="168.084" transform="matrix(-0.8949 -0.4463 0.4463 -0.8949 260.1924 402.8143)" fill="#FFFFFF" width="4.659" height="5.358"/>
				
					<rect x="186.282" y="145.884" transform="matrix(-0.8948 -0.4464 0.4464 -0.8948 291.0746 365.6954)" fill="#FFFFFF" width="4.659" height="5.358"/>
			</g>
		</g>
		<g>
			<path fill="#FFFFFF" d="M306.623,146.631c-5.765,1.928-8.876,8.164-6.948,13.929s8.164,8.875,13.93,6.948
				c5.765-1.928,8.876-8.164,6.948-13.929S312.389,144.703,306.623,146.631z M312.496,164.194c-3.935,1.315-8.191-0.808-9.507-4.742
				c-1.316-3.935,0.808-8.191,4.742-9.507s8.191,0.807,9.507,4.742C318.555,158.622,316.431,162.878,312.496,164.194z"/>
			<g>
				
					<rect x="303.776" y="142.406" transform="matrix(0.9484 -0.3171 0.3171 0.9484 -30.2092 104.5565)" fill="#FFFFFF" width="4.659" height="5.358"/>
				
					<rect x="311.644" y="165.933" transform="matrix(0.9484 -0.3172 0.3172 0.9484 -37.268 108.289)" fill="#FFFFFF" width="4.658" height="5.358"/>
			</g>
			<g>
				
					<rect x="296.61" y="148.633" transform="matrix(0.4465 -0.8948 0.8948 0.4465 30.0814 351.2499)" fill="#FFFFFF" width="4.659" height="5.357"/>
				
					<rect x="318.811" y="159.707" transform="matrix(0.4465 -0.8948 0.8948 0.4465 32.4611 377.2446)" fill="#FFFFFF" width="4.659" height="5.357"/>
			</g>
			<g>
				
					<rect x="295.946" y="158.104" transform="matrix(-0.3171 -0.9484 0.9484 -0.3171 240.3875 494.651)" fill="#FFFFFF" width="4.659" height="5.358"/>
				
					<rect x="319.474" y="150.236" transform="matrix(-0.3171 -0.9484 0.9484 -0.3171 278.8392 506.602)" fill="#FFFFFF" width="4.659" height="5.358"/>
			</g>
			<g>
				
					<rect x="302.174" y="165.27" transform="matrix(-0.8948 -0.4464 0.4464 -0.8948 502.018 454.1595)" fill="#FFFFFF" width="4.659" height="5.358"/>
				
					<rect x="313.248" y="143.07" transform="matrix(-0.8948 -0.4464 0.4464 -0.8948 532.9116 417.0368)" fill="#FFFFFF" width="4.659" height="5.358"/>
			</g>
		</g>
		<g>
			<path fill="#313F49" d="M339.157,279.445c-5.765,1.928-8.875,8.164-6.947,13.93c1.928,5.765,8.164,8.875,13.929,6.947
				s8.876-8.164,6.948-13.929C351.159,280.628,344.923,277.518,339.157,279.445z M345.03,297.009
				c-3.935,1.315-8.191-0.808-9.507-4.742s0.808-8.191,4.742-9.507c3.936-1.316,8.191,0.807,9.508,4.742
				C351.089,291.437,348.966,295.693,345.03,297.009z"/>
			<g>
				
					<rect x="336.311" y="275.22" transform="matrix(0.9484 -0.3172 0.3172 0.9484 -70.6569 121.7554)" fill="#313F49" width="4.658" height="5.359"/>
				
					<rect x="344.179" y="298.748" transform="matrix(0.9484 -0.3172 0.3172 0.9484 -77.7132 125.4654)" fill="#313F49" width="4.658" height="5.359"/>
			</g>
			<g>
				
					<rect x="329.145" y="281.447" transform="matrix(0.4463 -0.8949 0.8949 0.4463 -70.7207 453.9553)" fill="#313F49" width="4.659" height="5.358"/>
				
					<rect x="351.345" y="292.521" transform="matrix(0.4463 -0.8949 0.8949 0.4463 -68.3384 479.9539)" fill="#313F49" width="4.659" height="5.358"/>
			</g>
			<g>
				
					<rect x="328.48" y="290.918" transform="matrix(-0.3171 -0.9484 0.9484 -0.3171 157.2686 700.4353)" fill="#313F49" width="4.659" height="5.358"/>
				
					<rect x="352.009" y="283.05" transform="matrix(-0.3172 -0.9484 0.9484 -0.3172 195.7474 712.3979)" fill="#313F49" width="4.658" height="5.359"/>
			</g>
			<g>
				
					<rect x="334.708" y="298.084" transform="matrix(-0.8948 -0.4465 0.4465 -0.8948 504.3409 720.3605)" fill="#313F49" width="4.659" height="5.357"/>
				
					<rect x="345.782" y="275.884" transform="matrix(-0.8948 -0.4465 0.4465 -0.8948 535.2358 683.2397)" fill="#313F49" width="4.659" height="5.357"/>
			</g>
		</g>
	</g>
</g>
<g id="DESIGNED_BY_FREEPIK">
</g>
</svg>
