<?xml version="1.0" encoding="utf-8"?>
<!-- Generator: Adobe Illustrator 16.0.0, SVG Export Plug-In . SVG Version: 6.00 Build 0)  -->
<!DOCTYPE svg PUBLIC "-//W3C//DTD SVG 1.1//EN" "http://www.w3.org/Graphics/SVG/1.1/DTD/svg11.dtd">
<svg version="1.1" id="Layer_1" xmlns="http://www.w3.org/2000/svg" xmlns:xlink="http://www.w3.org/1999/xlink" x="0px" y="0px"
	 width="800px" height="800px" viewBox="0 0 800 800" enable-background="new 0 0 800 800" xml:space="preserve">
<linearGradient id="SVGID_1_" gradientUnits="userSpaceOnUse" x1="0" y1="400" x2="800" y2="400">
	<stop  offset="0" style="stop-color:#645875"/>
	<stop  offset="1" style="stop-color:#545870"/>
</linearGradient>
<circle fill="url(#SVGID_1_)" cx="400" cy="400" r="400"/>
<g id="Layer_2">
	<g>
		<path fill="#7E9689" d="M194.663,527.796c-0.002,9.977,26.869,18.101,60.017,18.139c33.148,0.043,60.022-8.009,60.024-17.985
			c0.001-9.979-26.87-18.099-60.017-18.139C221.539,509.768,194.665,517.821,194.663,527.796z"/>
		<polygon fill="#56655F" points="237.111,102.317 242.57,528.925 264.064,528.925 269.595,107.583 		"/>
		<polygon fill="#F3F3F3" points="247.724,123.671 249.568,157.486 379.736,163.884 406.998,137.745 381.119,117.274 		"/>
		<polygon fill="#F3F3F3" points="261.703,169.978 260.781,202.878 146.405,207.905 118.218,188.027 144.029,161.343 		"/>
		<polygon fill="#F3F3F3" points="249.568,214.303 250.491,246.291 367.948,249.801 389.077,230.296 365.571,208.049 		"/>
		<polygon fill="#F3F3F3" points="260.781,257.106 259.86,291.294 156.375,301.816 119.745,277.296 154.992,252.008 		"/>
		<polygon fill="#F3F3F3" points="249.414,307.064 250.336,336.311 354.841,344.079 377.886,325.572 355.763,300.211 		"/>
		<polygon fill="#F3F3F3" points="256.69,349.787 258.534,382.23 172.028,394.04 141.366,371.504 171.784,349.954 		"/>
	</g>
	<g>
		<g>
			<g>
				<path fill="#7E9689" d="M453.923,632.069c-0.005,10.279,37.486,18.645,83.735,18.678c46.252,0.037,83.746-8.268,83.752-18.548
					c0.004-10.28-37.486-18.643-83.734-18.676C491.426,613.487,453.927,621.79,453.923,632.069z"/>
				<path fill="#563726" d="M486.464,569.11l3.162,45.379c0,0-14.041-10.354-20.78,1.553c-9.492,16.78,29.453,7.856,29.453,7.856
					l1.046-43.313c0,0,43.869,7.757,98.181,1.036l2.09,37.529c0,0-15.929-14.238-21.413,0c-7.334,19.044,29.245,6.487,29.245,6.487
					l4.721-52.76C612.167,572.877,564.973,561.012,486.464,569.11z"/>
				<g>
					<g>
						<path fill="#FCDBBF" d="M479.306,475.355c0,0-17.621-152.474,104.134-103.8c0,0,38.563,27.159,40.324,105.051
							C506.191,501.548,479.306,475.355,479.306,475.355z"/>
						<path fill="#563726" d="M454.998,326.608c0,0-1.075,94.467,121.035,70.113l11.603,28.569c0,0,12.708-13.178,16.788,0.604
							c4.078,13.783-13.334,9.368-13.334,9.368s15.123,32.394,32.675,41.343c-0.583,1.156,39.962-153.801-25.622-127.176
							c0,0-5.229-22.76-44.594-23.492C512.753,325.179,492.291,365.697,454.998,326.608z"/>
						<path fill="#563726" d="M500.635,428.784c-0.119,3.215-1.739,5.768-3.622,5.699c-1.876-0.068-3.305-2.729-3.187-5.946
							c0.117-3.217,1.736-5.771,3.618-5.704C499.322,422.902,500.751,425.565,500.635,428.784z"/>
						
							<ellipse transform="matrix(-0.9994 -0.036 0.036 -0.9994 1078.6357 876.8326)" fill="#563726" cx="547.207" cy="428.711" rx="3.407" ry="5.827"/>
					</g>
				</g>
				<path fill="#F5F6F6" d="M479.306,475.355l7.157,93.754c0,0,49.315,12.243,125.704,3.768l11.597-96.271
					C623.765,476.606,527.824,491.139,479.306,475.355z"/>
			</g>
			<g>
				<path fill="#F5F6F6" d="M480.716,478.325l0.603,16.142c-4.167,1.526-7.678,3.643-10.633,6.196l-8.486-13.53
					C471.59,479.316,480.716,478.325,480.716,478.325z"/>
				<path fill="#FCDBBF" d="M462.201,487.133l8.485,13.53c-25.94,22.411-8.687,79.175-8.687,79.175l3.432,10.87
					c0.192,0.762,1.119,5.588-1.16,6.011c-1.094,0.203-1.875-0.511-2.41-1.394c-0.122,0.989-0.51,1.935-1.528,2.127
					c-0.989,0.182-1.723-0.386-2.252-1.153c-0.159,0.883-0.562,1.672-1.481,1.843c-1.095,0.205-1.873-0.509-2.411-1.393
					c-0.122,0.993-0.51,1.938-1.524,2.125c-2.13,0.394-3.076-2.664-3.337-3.729l-2.574-12.968
					C434.392,524.204,448.572,498.478,462.201,487.133z"/>
			</g>
			<polygon fill="#563726" points="517.962,496.382 514.992,501.968 519.235,508.488 511.6,545.077 522.205,560.639 
				534.083,546.695 527.507,509.117 532.385,502.18 529.773,497.644 			"/>
		</g>
		<g>
			<path fill="#FCDBBF" d="M625.215,359.043c0.117-0.004,0.186-0.009,0.186-0.009S625.33,359.036,625.215,359.043z"/>
			<path fill="#F5F6F6" d="M621.639,480.156l-2.18,16.182c8.531-1.318,17.807-5.86,26.348-12.887l-11.711-10.729
				C630.018,475.925,625.786,478.446,621.639,480.156z"/>
			<path fill="#FCDBBF" d="M676.343,417.973c-1.702-37.37-31.103-60.447-31.103-60.447s-23.555-15.537-31.302-2.174
				c0,0-1.805,2.736,1.062,2.525c2.865-0.21,6.367-4.629,10.4-2.42c0,0-3.993-1.068-4.033,2.104c-0.02,1.52,3.057,1.51,3.848,1.483
				c0.115-0.008,0.186-0.01,0.186-0.01s-0.07,0.005-0.186,0.01c-0.743,0.044-3.526,0.327-3.604,2.082
				c-0.115,2.577,2.185,2.54,2.924,2.463c0.139-0.023,0.229-0.03,0.229-0.03s-0.089,0.016-0.229,0.03
				c-0.675,0.114-2.585,0.649-1.789,3.021c0.85,2.525,4.776,0.631,4.776,0.631s9.021-1.473,13.472,3.608
				c34.898,41.942,16.651,83.376-6.898,101.875l11.711,10.728C662.695,469.555,676.704,445.901,676.343,417.973z"/>
			<path fill="#FCDBBF" d="M624.535,363.589c0.14-0.014,0.229-0.03,0.229-0.03S624.674,363.566,624.535,363.589z"/>
		</g>
		<g>
			<path fill="#563726" d="M484.236,426.851c-0.026,0.089,0.161,0.117,0.019,0.098C484.203,426.875,484.17,426.814,484.236,426.851z
				"/>
			<path fill="#563726" d="M500.176,412.97c0.197,0.6-0.443,0.386-0.406,0.843c-0.01,0.04-0.204-0.242-0.209-0.135
				c0.1,0.512-0.397,0.593-0.877,0.549l-0.045-0.078c-0.088-0.008,0.052,0.266-0.026,0.276l-0.106-0.129
				c0.107,0.146-0.034,0.141,0.035,0.259l-0.238-0.178l0.109,0.176c0.245,0.434-0.215,0.145-0.155,0.428l-0.079-0.105
				c0.024,0.374-0.229,0.523-0.353,0.775l-0.185-0.217c0.135,0.169,0.11,0.262,0.088,0.34c-0.174-0.145,0.045,0.228-0.098,0.19
				l-0.028-0.039c0.109,0.213-0.153-0.04-0.007,0.198l-0.145-0.104c0.188,0.248-0.174-0.064-0.106,0.086l0.045,0.049
				c0.015,0.085-0.106-0.015-0.104,0.053l-0.026-0.022c-0.022,0.126-0.183,0.036-0.019,0.216c-0.156-0.122,0.015-0.13-0.216-0.306
				c-0.084,0.409-0.375,0.599-0.623,0.824l-0.199-0.117c0.008,0.059-0.065,0.117-0.005,0.229c0.005-0.01-0.1-0.078-0.121-0.074
				c-0.107-0.028,0.127,0.243,0.004,0.206l-0.137-0.192c0.087,0.179,0.009,0.206-0.001,0.297l-0.077-0.122
				c0.088,0.21-0.131,0.055-0.089,0.199l-0.076-0.12c-0.192-0.059,0.173,0.239,0.037,0.223l-0.091-0.129
				c0.106,0.246-0.051,0.272-0.055,0.393l-0.037-0.046c-0.047,0.084-0.173,0.088-0.174,0.239c-0.068-0.024-0.22-0.264-0.259-0.161
				c0.192,0.207-0.045,0.195,0.211,0.395c-0.093,0.021-0.261,0.029-0.238,0.136c-0.044-0.104-0.261-0.229-0.225-0.293l-0.154-0.092
				c-0.072-0.093,0.067-0.009-0.043-0.105c-0.017,0.032-0.018,0.182-0.072,0.167c0.068,0.171,0.24,0.451,0.185,0.546
				c-0.035-0.113-0.228-0.214-0.234-0.271l0.253,0.498c-0.019,0.033-0.155-0.159-0.144-0.072l0.097,0.157
				c-0.033-0.015-0.063,0.146-0.258-0.051c-0.084-0.07,0.004-0.08-0.091-0.128c-0.048,0.042,0.015,0.116-0.029,0.161l-0.026-0.027
				c-0.059-0.003-0.014,0.171,0.123,0.254c0.027-0.012-0.119-0.116-0.035-0.084c0.086,0.139,0.061,0.221,0.015,0.266l-0.11-0.165
				c0.083,0.219,0.06,0.33,0.048,0.46c0.088,0.101-0.133-0.203-0.074-0.158c-0.215-0.057-0.016,0.359-0.271,0.228
				c-0.003-0.03,0.131,0.132,0.105,0.105c-0.055,0.026-0.18-0.118-0.162-0.04c-0.078-0.081-0.011,0.059-0.018,0.111
				c0.037,0.074-0.044-0.036-0.027-0.066c0.021,0.106-0.028,0.381-0.231,0.344c0.052,0.054,0.122,0.254,0.096,0.268l-0.106-0.136
				c-0.089-0.06-0.063,0.075-0.166-0.033c0.093,0.199,0.06-0.292,0.105-0.115c-0.113-0.094,0.096,0.284-0.049,0.096
				c-0.039,0.044,0.049,0.227-0.104,0.143c0.033,0.012-0.125-0.211-0.151-0.171c-0.042,0.078,0.036,0.078,0.025,0.165l0.014,0.082
				c0.111,0.129-0.07,0.032,0.08,0.153c-0.102-0.098-0.035,0.144-0.215-0.071l-0.138-0.173c-0.016,0.036,0.11,0.214,0.152,0.304
				l-0.074-0.066c0.223,0.257-0.085,0.036,0.059,0.259c-0.135-0.036-0.152,0.12-0.318-0.013c0.024,0.114,0.065,0.24-0.032,0.229
				l-0.051-0.107c-0.099-0.047-0.045,0.026-0.037,0.093c-0.026-0.044-0.195-0.093-0.31-0.152c0.023,0.114,0.159,0.238,0.231,0.323
				c-0.265-0.213,0.021,0.269-0.231,0.087c-0.015-0.049-0.046-0.178-0.138-0.209c-0.263-0.214,0.084,0.253-0.087,0.19l0.201,0.193
				c-0.143-0.103,0.013,0.202-0.17-0.012c0.046,0.092-0.135-0.003,0.051,0.191c-0.256-0.077-0.162,0.329-0.551,0.024
				c0.015,0.048-0.053,0.047,0.047,0.142c0.128,0.091-0.036-0.11,0.042-0.042l0.061,0.105c-0.074-0.017-0.113-0.009-0.231-0.204
				c-0.184-0.061,0.231,0.408,0.068,0.41c-0.069-0.086-0.105-0.112-0.12-0.075l0.077,0.188c-0.09,0.02-0.204-0.159-0.332-0.298
				c-0.012,0.05-0.057,0.078,0.023,0.197l-0.197-0.143c0.143,0.104,0.051,0.108,0.065,0.154l-0.015-0.046
				c-0.061-0.056-0.063,0.014-0.066,0.048c0.083,0.083,0.152,0.086,0.195,0.093c0.041,0.076,0.002,0.083,0.045,0.175
				c-0.116-0.143-0.14-0.052-0.178-0.043c-0.057-0.005,0.079,0.151,0.065,0.156c-0.064-0.072-0.06,0.029-0.126-0.091
				c-0.011-0.032,0.085,0.049,0.043-0.028c-0.064-0.036-0.177-0.165-0.133-0.037c0.033,0.095,0.253,0.267,0.117,0.229l-0.098-0.166
				l-0.116-0.026l0.11,0.129l-0.059-0.057c0.104,0.148-0.045,0.114,0.078,0.273c-0.016,0.036-0.135-0.038-0.175-0.03l-0.006-0.014
				c-0.097-0.046-0.096,0.038-0.045,0.147l-0.022-0.028c-0.026,0.004-0.05,0.06-0.005,0.152c-0.13-0.058-0.441-0.463-0.347-0.263
				c-0.04,0.043,0.138,0.293,0.229,0.357c-0.155-0.015-0.061,0.269-0.311,0.138l0.074,0.136c-0.16,0.054-0.11,0.365-0.424,0.199
				c-0.015-0.082-0.111-0.129-0.178-0.199c0.073,0.137-0.137-0.086,0.025,0.115c0.106,0.11,0.152,0.169,0.225,0.186
				c-0.014,0.123-0.118,0.216-0.253,0.144c0.067,0.036,0.083,0.083,0.1,0.13c-0.158-0.186-0.232-0.169-0.215-0.069l0.093,0.115
				l-0.126-0.092c0.017,0.047,0.192,0.246,0.058,0.174l-0.118-0.106c0.042,0.125,0.126,0.328-0.004,0.271l-0.179-0.129
				c-0.004,0.034,0.054,0.158,0.128,0.175c-0.162-0.032-0.22-0.002-0.369-0.122c0.179,0.454,0.007,0.63-0.163,0.736l-0.07-0.085
				c-0.108-0.043,0.107,0.162,0.03,0.129c-0.06-0.091-0.184-0.145-0.241-0.27c-0.135-0.036,0.058,0.209,0.053,0.279
				c0.094,0.113-0.034-0.097,0.084,0.049c0.029,0.044-0.152-0.016-0.015,0.155c-0.073-0.052-0.17-0.182-0.224-0.256l0.037,0.11
				c-0.215-0.155-0.211-0.43-0.468-0.628l-0.01,0.055c-0.185-0.145-0.091-0.268-0.224-0.257c0.037,0.112,0.223,0.378,0.319,0.422
				c-0.034,0.11,0.318,0.425,0.226,0.479c-0.107-0.078,0.041-0.078-0.096-0.199c-0.155-0.102-0.006,0.139-0.08,0.121
				c0.092,0.03,0.208,0.224,0.214,0.275c-0.11-0.044-0.113-0.18-0.186-0.146c0.075,0.103,0.087,0.22,0.192,0.245
				c0.174,0.233-0.112-0.008,0.008,0.186c-0.154-0.135-0.256-0.4-0.387-0.423c0.141,0.138,0.102,0.268,0.327,0.454
				c-0.061-0.02-0.166-0.132-0.229-0.239c-0.114-0.058,0.155,0.342-0.114,0.062l0.126,0.16l-0.194-0.128
				c-0.032,0.025,0.084,0.291-0.115,0.062c0.01,0.032-0.067,0.082,0.098,0.215c0.129,0.057-0.052-0.156,0.161,0.032
				c-0.184-0.145-0.04,0.079-0.014,0.157l-0.084-0.082c0.017,0.046-0.034,0.058,0.041,0.159l-0.125-0.124l0.104,0.146
				c0,0.119-0.225-0.223-0.247-0.13l-0.049-0.143c0.011,0.031-0.121-0.076-0.111-0.01l0.283,0.396
				c0.012,0.083-0.139-0.123-0.06,0.03l-0.088-0.183c-0.028-0.046-0.208-0.175-0.249-0.132c0.01,0.065,0.122,0.279,0.226,0.307
				c-0.021,0.022-0.117-0.024-0.179-0.129c-0.012,0.087,0.124,0.126,0.148,0.239c-0.091-0.063-0.249-0.13-0.389-0.219l-0.136-0.244
				l-0.032,0.024c-0.107-0.197-0.131-0.106-0.262-0.296c-0.044-0.01-0.018,0.072,0.003,0.133c0.304,0.223,0.267,0.435,0.508,0.668
				c-0.02,0.143-0.597-0.562-0.33-0.095c0.071,0.053,0.201,0.278,0.189,0.161c-0.077,0.019,0.189,0.281,0.036,0.229
				c-0.049-0.141-0.276-0.209-0.345-0.415c0.069,0.085,0.092,0.03,0.082-0.001c-0.106-0.077-0.222-0.256-0.273-0.209
				c-0.011,0.052-0.051,0.094,0.073,0.22c0.131,0.142,0.035-0.058,0.144,0.105c-0.017,0.104-0.223-0.103-0.023,0.176
				c0.022-0.057,0.166,0.082,0.251,0.182l0.009,0.102l-0.078-0.104c-0.134-0.002,0.133,0.193,0.037,0.231l-0.202-0.158
				c-0.129-0.177,0.172-0.021-0.078-0.274c-0.059,0.032,0.047,0.18-0.06,0.152l-0.013-0.082c-0.025,0.006-0.354-0.329-0.239-0.064
				c0.035,0.109,0.075,0.103,0.163,0.201c-0.051,0.097,0.017,0.219-0.019,0.275c-0.162-0.199-0.104,0.059-0.224-0.187
				c0.126,0.092,0.224-0.017,0.087-0.224c-0.233-0.203,0.088-0.021-0.102-0.266c-0.066,0.046-0.265-0.179-0.407-0.317
				c-0.027,0.005,0.014,0.082,0.023,0.112c0.116,0.145,0.137,0.125,0.268,0.266c-0.103,0.022-0.099,0.157-0.016,0.326
				c-0.082-0.05-0.199-0.195-0.185-0.231c-0.045,0.112-0.148,0.171-0.263,0.197c0.252,0.181-0.037,0.129,0.165,0.286
				c0.086,0.015,0.264,0.146,0.333,0.267c-0.036,0.008-0.086-0.101-0.142-0.139c0.08,0.152-0.227-0.153-0.085,0.07
				c0.01-0.139-0.232-0.289-0.377-0.478c0.035,0.146-0.111-0.129-0.164-0.082c0.035,0.146,0.037,0.28,0.014,0.37
				c-0.225-0.103-0.191,0.163-0.25,0.228c-0.115-0.058-0.272-0.279-0.342-0.28c-0.039,0.042,0.227,0.186,0.08,0.151l-0.03-0.045
				c0.021,0.063-0.241-0.031-0.003,0.274l-0.174-0.235c-0.032-0.01,0.003,0.052,0.012,0.083l-0.156-0.187
				c-0.176-0.113-0.063,0.1-0.102,0.144l0.143,0.104c0.016,0.168-0.149,0.083-0.182,0.192l-0.11-0.127l0.024,0.112
				c-0.098-0.131-0.209-0.175-0.14-0.053l-0.164-0.406c0.098,0.047,0.104,0.182,0.232,0.288c0.114,0.094,0.151,0,0.053-0.131
				c-0.036,0.01-0.014,0.037,0.008,0.103c-0.166-0.169-0.121-0.197-0.205-0.33c-0.008,0.02-0.074-0.016-0.027,0.04
				c-0.05-0.107-0.036-0.145,0.005-0.188c0.032,0.093,0.114,0.093,0.146,0.153c-0.135-0.157-0.135-0.242-0.041-0.246
				c0.199,0.144,0-0.204,0.106-0.212c0.114,0.178,0.194,0.331,0.212,0.43c0.11,0.043,0.041-0.043,0.15,0
				c-0.085-0.133-0.23-0.322-0.242-0.439l0.106,0.114c-0.009-0.103-0.159-0.271-0.069-0.292c0.152-0.034,0.257-0.127,0.347-0.181
				l0.107,0.11c-0.178-0.284,0.063-0.219,0.024-0.378c0.198,0.021,0.117-0.3,0.346-0.148c0.097-0.243,0.173-0.464,0.392-0.582
				l0.119,0.192c-0.078-0.15,0.107,0.079,0.117,0.024c-0.156-0.1-0.11-0.211-0.179-0.333c0.197,0.059,0.174-0.176,0.14-0.354
				l0.107,0.112c-0.12-0.28,0.136-0.167,0.257-0.211c0.053,0.036,0.165,0.131,0.182,0.095c-0.117-0.229-0.081-0.239-0.112-0.419
				c0.054-0.046,0.179-0.075,0.297-0.049c-0.035-0.436,0.315-0.446,0.381-0.784l0.135,0.123c-0.06-0.465,0.42-0.419,0.458-0.717
				l0.191,0.246c0.116,0.023,0.066-0.169-0.095-0.318c0.118,0.023,0.034-0.229,0.238-0.07c0.093-0.006-0.028-0.165-0.012-0.236
				c0.188-0.011,0.211-0.064,0.273-0.199l-0.036,0.009c0.033,0.061,0.12,0.159,0.159,0.152c-0.019-0.1,0.197-0.063-0.087-0.305
				c0.25,0.063,0.14-0.354,0.438-0.235c-0.076-0.066-0.061-0.104-0.096-0.167c0.094-0.088,0.333-0.023,0.296-0.221
				c0.049,0.025,0.089,0.152,0.135,0.124l-0.097-0.167c0.031-0.277,0.447-0.134,0.556-0.296c0.124-0.368,0.453-0.526,0.674-0.765
				l0.047,0.059c-0.108-0.282,0.385,0.048,0.163-0.326c0.066,0.036,0.096-0.04,0.178,0.079c-0.069-0.206,0.306-0.019,0.23-0.291
				l0.002,0.051c0.203,0.039,0.138-0.201,0.336-0.178l0.056,0.124c0.134,0.071-0.118-0.314,0.144-0.065
				c0.02-0.021-0.105-0.147-0.11-0.129c0.311-0.088,0.39-0.464,0.563-0.724c0.304,0.015,0.412,0.439,0.363,0.128
				c0.055,0.043-0.085-0.108-0.035-0.055c-0.017-0.119,0.345,0.229,0.253,0.06c-0.161-0.151-0.059-0.112-0.147-0.213
				c0.193,0.019,0.348,0.148,0.315-0.046l0.07,0.092c-0.126-0.323,0.098-0.287-0.077-0.638c0.462-0.498,0.809-1.082,1.273-1.551
				c0.536-0.377,0.902-0.924,1.533-1.211c0.318,0.123,0.321,0.107,0.366-0.097l0.066,0.085c-0.159-0.192,0.075-0.098-0.072-0.286
				c0.215-0.129,0.34-0.327,0.525-0.495c-0.011,0.047,0.108,0.211,0.133,0.168l-0.068-0.151l0.054,0.047
				c0-0.049-0.057-0.164-0.135-0.201c0.33-0.578,1.131-0.618,1.556-1.073c0.179-0.019,0.271-0.229,0.358-0.371
				c0.576-0.065,1.076-0.149,1.281-0.641C499.842,412.207,500.227,412.728,500.176,412.97z"/>
			<path fill="#563726" d="M484.291,426.769c0.096,0.082,0.183,0.097,0.26,0.247L484.291,426.769z"/>
			<path fill="#563726" d="M486.25,426.752c-0.022-0.029,0.051,0.023,0.066,0.034c-0.01,0.02,0.051,0.109-0.004,0.07L486.25,426.752
				z"/>
			<path fill="#563726" d="M486.58,426.56c0.071,0.084,0.068,0.203,0.043,0.245L486.58,426.56z"/>
			<path fill="#563726" d="M487.148,426.668c0.088,0.05,0.114,0.093,0.081,0.117L487.148,426.668z"/>
			<path fill="#563726" d="M486.999,426.463c0.021-0.021,0.076,0.018,0.129,0.058C487.062,426.448,487.117,426.607,486.999,426.463z
				"/>
			<path fill="#563726" d="M487.785,426.2c0.008-0.02-0.023-0.114,0.071-0.033C487.784,426.116,487.883,426.331,487.785,426.2z"/>
			<path fill="#563726" d="M487.94,425.842l0.019-0.021c0.05,0.022,0.086,0.099,0.081,0.118L487.94,425.842z"/>
			<polygon fill="#563726" points="492.469,421.256 492.478,421.322 492.407,421.238 			"/>
			<path fill="#563726" d="M494.579,419.387c-0.019-0.076,0.09,0.061,0.106,0.069C494.667,419.487,494.601,419.347,494.579,419.387z
				"/>
			<polygon fill="#563726" points="495.352,417.971 495.342,417.98 495.193,417.808 			"/>
		</g>
		<g>
			<path fill="#563726" d="M559.723,427.519c0.085,0.021,0.117-0.159,0.098-0.021C559.744,427.549,559.686,427.583,559.723,427.519z
				"/>
			<path fill="#563726" d="M546.471,412.629c0.593-0.207,0.365,0.417,0.818,0.364c0.039,0.009-0.244,0.205-0.141,0.205
				c0.508-0.11,0.575,0.365,0.522,0.825l-0.082,0.046c-0.008,0.087,0.263-0.057,0.271,0.017l-0.128,0.107
				c0.145-0.108,0.139,0.027,0.256-0.041l-0.184,0.233l0.179-0.108c0.431-0.249,0.135,0.201,0.414,0.135l-0.104,0.08
				c0.365-0.034,0.508,0.204,0.752,0.313l-0.217,0.186c0.169-0.135,0.26-0.114,0.337-0.093c-0.147,0.167,0.224-0.052,0.185,0.086
				l-0.041,0.027c0.211-0.112-0.044,0.15,0.195,0.001l-0.106,0.142c0.249-0.189-0.066,0.168,0.083,0.098l0.047-0.044
				c0.086-0.018-0.015,0.104,0.051,0.099l-0.023,0.026c0.125,0.019,0.032,0.174,0.212,0.013c-0.122,0.152-0.128-0.013-0.306,0.217
				c0.399,0.066,0.579,0.341,0.795,0.573l-0.121,0.196c0.059-0.01,0.113,0.06,0.227-0.003c-0.013-0.004-0.08,0.099-0.078,0.118
				c-0.03,0.104,0.243-0.13,0.204-0.012l-0.192,0.136c0.176-0.084,0.202-0.011,0.292-0.005l-0.122,0.076
				c0.208-0.09,0.051,0.125,0.194,0.081l-0.121,0.077c-0.061,0.187,0.241-0.174,0.223-0.044l-0.13,0.092
				c0.245-0.109,0.269,0.04,0.385,0.042l-0.045,0.035c0.083,0.042,0.083,0.163,0.229,0.158c-0.022,0.068-0.263,0.221-0.164,0.253
				c0.209-0.19,0.191,0.038,0.395-0.214c0.017,0.089,0.02,0.25,0.127,0.226c-0.104,0.045-0.232,0.257-0.294,0.224l-0.096,0.152
				c-0.09,0.07-0.004-0.064-0.104,0.044c0.032,0.015,0.178,0.011,0.164,0.063c0.17-0.07,0.448-0.243,0.539-0.195
				c-0.111,0.04-0.215,0.226-0.271,0.235l0.495-0.258c0.033,0.017-0.161,0.152-0.075,0.139l0.16-0.096
				c-0.018,0.029,0.141,0.054-0.059,0.247c-0.071,0.082-0.079-0.001-0.129,0.091c0.041,0.044,0.115-0.017,0.159,0.023l-0.028,0.025
				c-0.004,0.059,0.168,0.009,0.252-0.126c-0.011-0.025-0.118,0.119-0.083,0.035c0.14-0.085,0.219-0.063,0.262-0.021l-0.165,0.11
				c0.217-0.084,0.326-0.068,0.454-0.061c0.101-0.086-0.201,0.135-0.158,0.079c-0.061,0.207,0.354,0.004,0.218,0.253
				c-0.028,0.004,0.135-0.131,0.106-0.106c0.027,0.053-0.12,0.177-0.042,0.157c-0.082,0.076,0.058,0.01,0.107,0.014
				c0.074-0.039-0.035,0.044-0.065,0.028c0.106-0.024,0.374,0.015,0.331,0.212c0.055-0.051,0.254-0.125,0.268-0.101l-0.137,0.107
				c-0.061,0.087,0.072,0.058-0.036,0.159c0.198-0.096-0.286-0.048-0.111-0.098c-0.095,0.112,0.282-0.101,0.093,0.044
				c0.042,0.036,0.225-0.053,0.138,0.095c0.013-0.03-0.212,0.126-0.172,0.15c0.077,0.038,0.079-0.037,0.163-0.03l0.08-0.016
				c0.13-0.109,0.032,0.066,0.153-0.081c-0.099,0.101,0.141,0.027-0.074,0.209l-0.175,0.139c0.037,0.013,0.213-0.114,0.305-0.159
				l-0.068,0.076c0.258-0.222,0.034,0.079,0.255-0.065c-0.038,0.132,0.114,0.143-0.021,0.307c0.113-0.026,0.238-0.069,0.227,0.025
				l-0.109,0.052c-0.048,0.094,0.025,0.043,0.091,0.033c-0.044,0.027-0.097,0.188-0.156,0.302c0.112-0.026,0.236-0.161,0.323-0.231
				c-0.217,0.258,0.265-0.028,0.078,0.219c-0.046,0.017-0.176,0.05-0.207,0.139c-0.217,0.258,0.251-0.088,0.186,0.079l0.194-0.199
				c-0.104,0.14,0.199-0.019-0.017,0.163c0.094-0.048-0.006,0.131,0.19-0.056c-0.082,0.248,0.319,0.146,0.01,0.527
				c0.046-0.015,0.045,0.051,0.143-0.05c0.091-0.122-0.11,0.038-0.042-0.036l0.105-0.063c-0.019,0.071-0.014,0.108-0.205,0.229
				c-0.064,0.178,0.407-0.234,0.406-0.079c-0.088,0.069-0.113,0.105-0.079,0.117l0.188-0.078c0.017,0.084-0.163,0.201-0.304,0.328
				c0.053,0.008,0.08,0.05,0.197-0.03l-0.146,0.194c0.104-0.141,0.106-0.052,0.154-0.068l-0.048,0.017
				c-0.055,0.059,0.014,0.059,0.046,0.063c0.085-0.083,0.088-0.151,0.097-0.191c0.077-0.039,0.083-0.004,0.176-0.048
				c-0.146,0.114-0.057,0.137-0.048,0.173c-0.007,0.055,0.151-0.08,0.153-0.068c-0.072,0.065,0.028,0.056-0.092,0.125
				c-0.033,0.012,0.051-0.084-0.027-0.043c-0.037,0.065-0.165,0.176-0.039,0.13c0.095-0.033,0.27-0.25,0.228-0.119l-0.163,0.099
				l-0.03,0.112l0.13-0.11l-0.057,0.059c0.146-0.104,0.109,0.039,0.271-0.082c0.037,0.013-0.038,0.131-0.032,0.168l-0.017,0.006
				c-0.048,0.095,0.037,0.09,0.146,0.038l-0.029,0.024c0.004,0.024,0.059,0.044,0.15-0.002c-0.059,0.127-0.466,0.438-0.267,0.341
				c0.04,0.036,0.289-0.142,0.357-0.23c-0.019,0.15,0.263,0.051,0.129,0.293l0.137-0.075c0.048,0.152,0.354,0.097,0.184,0.402
				c-0.082,0.016-0.13,0.111-0.2,0.177c0.137-0.074-0.09,0.135,0.112-0.028c0.112-0.104,0.171-0.15,0.189-0.223
				c0.12,0.012,0.208,0.108,0.134,0.239c0.036-0.064,0.083-0.083,0.131-0.099c-0.188,0.157-0.173,0.229-0.074,0.207l0.115-0.093
				l-0.094,0.125c0.049-0.018,0.247-0.192,0.171-0.061l-0.107,0.116c0.126-0.044,0.327-0.129,0.269-0.006l-0.132,0.178
				c0.035,0.002,0.157-0.057,0.178-0.128c-0.035,0.155-0.008,0.211-0.13,0.357c0.45-0.186,0.62-0.024,0.72,0.136l-0.088,0.069
				c-0.043,0.105,0.164-0.11,0.132-0.033c-0.092,0.059-0.149,0.182-0.272,0.238c-0.039,0.131,0.206-0.059,0.275-0.059
				c0.114-0.092-0.096,0.036,0.049-0.081c0.046-0.029-0.019,0.149,0.155,0.011c-0.053,0.07-0.186,0.169-0.258,0.222l0.108-0.038
				c-0.157,0.211-0.428,0.215-0.628,0.469l0.053,0.008c-0.146,0.181-0.266,0.092-0.259,0.222c0.112-0.041,0.378-0.225,0.425-0.318
				c0.105,0.026,0.422-0.318,0.475-0.234c-0.079,0.105-0.076-0.037-0.199,0.098c-0.104,0.152,0.137,0.002,0.117,0.075
				c0.031-0.089,0.225-0.209,0.275-0.214c-0.046,0.106-0.18,0.114-0.15,0.182c0.104-0.075,0.22-0.091,0.249-0.192
				c0.233-0.173-0.013,0.107,0.182-0.012c-0.139,0.153-0.401,0.258-0.427,0.384c0.14-0.139,0.265-0.105,0.456-0.329
				c-0.021,0.06-0.135,0.164-0.241,0.229c-0.061,0.112,0.34-0.159,0.06,0.109l0.159-0.123l-0.131,0.189
				c0.023,0.031,0.286-0.089,0.058,0.11c0.032-0.012,0.081,0.061,0.214-0.103c0.058-0.125-0.155,0.055,0.035-0.156
				c-0.146,0.183,0.078,0.038,0.154,0.012l-0.084,0.082c0.047-0.016,0.059,0.032,0.158-0.042l-0.126,0.122l0.147-0.105
				c0.119-0.003-0.223,0.223-0.133,0.243l-0.141,0.05c0.029-0.01-0.078,0.119-0.012,0.108l0.396-0.283
				c0.083-0.017-0.124,0.135,0.028,0.055l-0.183,0.091c-0.045,0.029-0.176,0.206-0.137,0.243c0.066-0.011,0.28-0.125,0.309-0.224
				c0.021,0.017-0.027,0.111-0.132,0.175c0.086,0.01,0.128-0.123,0.238-0.148c-0.064,0.088-0.134,0.242-0.224,0.378l-0.243,0.139
				l0.022,0.03c-0.196,0.107-0.106,0.129-0.296,0.26c-0.011,0.043,0.068,0.015,0.13-0.007c0.225-0.302,0.435-0.27,0.671-0.51
				c0.137,0.016-0.568,0.591-0.103,0.321c0.054-0.07,0.279-0.203,0.163-0.187c0.016,0.071,0.281-0.19,0.229-0.043
				c-0.142,0.05-0.214,0.271-0.42,0.344c0.087-0.069,0.034-0.09,0.002-0.08c-0.079,0.106-0.258,0.223-0.213,0.27
				c0.051,0.01,0.092,0.046,0.22-0.076c0.142-0.129-0.06-0.032,0.106-0.144c0.104,0.017-0.106,0.222,0.172,0.019
				c-0.055-0.02,0.085-0.161,0.184-0.248l0.103-0.01l-0.105,0.076c-0.006,0.131,0.193-0.131,0.228-0.041l-0.159,0.198
				c-0.178,0.129-0.018-0.163-0.271,0.085c0.031,0.053,0.178-0.051,0.147,0.051l-0.083,0.017c0.007,0.022-0.332,0.351-0.068,0.232
				c0.11-0.04,0.103-0.077,0.201-0.164c0.095,0.045,0.215-0.023,0.271,0.009c-0.201,0.161,0.054,0.098-0.188,0.223
				c0.092-0.125-0.013-0.219-0.221-0.08c-0.206,0.229-0.019-0.083-0.264,0.106c0.045,0.061-0.184,0.26-0.322,0.399
				c0.003,0.025,0.082-0.015,0.111-0.024c0.146-0.118,0.125-0.137,0.268-0.267c0.02,0.1,0.15,0.091,0.32,0.005
				c-0.05,0.082-0.195,0.198-0.231,0.185c0.108,0.039,0.163,0.138,0.185,0.247c0.187-0.249,0.127,0.033,0.286-0.166
				c0.017-0.085,0.149-0.262,0.271-0.33c0.009,0.036-0.102,0.086-0.138,0.141c0.151-0.08-0.157,0.224,0.065,0.081
				c-0.135-0.005-0.29,0.23-0.479,0.376c0.145-0.037-0.129,0.11-0.083,0.159c0.145-0.037,0.274-0.045,0.364-0.024
				c-0.107,0.219,0.155,0.179,0.219,0.235c-0.06,0.111-0.281,0.269-0.286,0.334c0.04,0.038,0.19-0.222,0.154-0.081l-0.046,0.03
				c0.063-0.021-0.036,0.233,0.27-0.006l-0.234,0.176c-0.011,0.029,0.051-0.005,0.082-0.015l-0.187,0.157
				c-0.116,0.171,0.096,0.057,0.139,0.092l0.105-0.141c0.164-0.018,0.077,0.141,0.185,0.169l-0.13,0.109l0.113-0.026
				c-0.131,0.1-0.178,0.205-0.056,0.137l-0.403,0.169c0.048-0.097,0.18-0.104,0.288-0.232c0.096-0.112,0.004-0.146-0.127-0.047
				c0.009,0.036,0.037,0.013,0.101-0.009c-0.17,0.163-0.196,0.121-0.329,0.207c0.019,0.007-0.02,0.07,0.039,0.024
				c-0.108,0.053-0.146,0.038-0.186,0.001c0.094-0.033,0.096-0.111,0.152-0.146c-0.155,0.134-0.239,0.137-0.241,0.048
				c0.145-0.197-0.201,0.006-0.205-0.098c0.179-0.114,0.331-0.196,0.425-0.216c0.046-0.106-0.039-0.036,0.008-0.146
				c-0.134,0.086-0.325,0.231-0.439,0.247l0.114-0.105c-0.1,0.01-0.272,0.161-0.288,0.078c-0.031-0.148-0.12-0.245-0.171-0.332
				l0.112-0.104c-0.283,0.179-0.212-0.055-0.371-0.012c0.028-0.192-0.292-0.104-0.136-0.33c-0.236-0.083-0.453-0.151-0.563-0.358
				l0.195-0.12c-0.151,0.079,0.079-0.107,0.026-0.113c-0.104,0.153-0.213,0.113-0.334,0.184c0.063-0.192-0.168-0.163-0.346-0.126
				l0.114-0.105c-0.279,0.124-0.161-0.125-0.202-0.241c0.039-0.053,0.135-0.163,0.1-0.177c-0.229,0.12-0.236,0.084-0.414,0.12
				c-0.045-0.05-0.07-0.169-0.041-0.284c-0.43,0.049-0.433-0.289-0.763-0.34l0.124-0.134c-0.459,0.071-0.398-0.392-0.692-0.417
				l0.246-0.191c0.026-0.112-0.163-0.059-0.316,0.1c0.025-0.113-0.225-0.025-0.063-0.225c-0.002-0.088-0.163,0.032-0.232,0.018
				c-0.005-0.181-0.059-0.2-0.188-0.259l0.009,0.036c0.059-0.034,0.16-0.12,0.152-0.158c-0.098,0.022-0.057-0.187-0.301,0.094
				c0.066-0.243-0.346-0.124-0.222-0.414c-0.067,0.076-0.104,0.063-0.165,0.098c-0.084-0.086-0.018-0.318-0.21-0.277
				c0.024-0.047,0.151-0.09,0.124-0.135l-0.165,0.099c-0.272-0.021-0.121-0.425-0.275-0.525c-0.361-0.105-0.508-0.418-0.738-0.623
				l0.06-0.046c-0.28,0.112,0.057-0.37-0.317-0.148c0.036-0.063-0.036-0.089,0.083-0.174c-0.205,0.073-0.012-0.292-0.281-0.211
				l0.051-0.004c0.043-0.197-0.195-0.127-0.168-0.318l0.124-0.057c0.073-0.13-0.313,0.123-0.061-0.135
				c-0.021-0.018-0.149,0.106-0.13,0.111c-0.079-0.297-0.445-0.362-0.697-0.52c0.024-0.295,0.443-0.41,0.135-0.352
				c0.042-0.057-0.108,0.082-0.056,0.033c-0.116,0.019,0.234-0.338,0.065-0.246c-0.153,0.159-0.112,0.06-0.212,0.148
				c0.022-0.188,0.152-0.338-0.037-0.3l0.092-0.07c-0.32,0.131-0.28-0.087-0.628,0.092c-0.479-0.427-1.045-0.743-1.494-1.176
				c-0.357-0.504-0.886-0.838-1.153-1.436c0.13-0.312,0.116-0.313-0.084-0.35l0.084-0.066c-0.192,0.159-0.094-0.068-0.282,0.078
				c-0.119-0.202-0.313-0.315-0.474-0.489c0.046,0.01,0.211-0.112,0.167-0.134l-0.15,0.07l0.049-0.051
				c-0.049,0.001-0.163,0.059-0.201,0.135c-0.56-0.3-0.578-1.065-1.017-1.46c-0.015-0.173-0.219-0.256-0.358-0.334
				c-0.051-0.552-0.117-1.03-0.596-1.213C545.711,412.974,546.235,412.59,546.471,412.629z"/>
			<path fill="#563726" d="M559.644,427.469c0.083-0.096,0.099-0.179,0.251-0.258L559.644,427.469z"/>
			<path fill="#563726" d="M559.676,425.586c-0.029,0.023,0.026-0.048,0.036-0.064c0.019,0.007,0.108-0.051,0.069,0.002
				L559.676,425.586z"/>
			<path fill="#563726" d="M559.495,425.273c0.086-0.069,0.205-0.072,0.243-0.048L559.495,425.273z"/>
			<path fill="#563726" d="M559.617,424.725c0.05-0.082,0.095-0.111,0.117-0.081L559.617,424.725z"/>
			<path fill="#563726" d="M559.41,424.875c-0.021-0.018,0.021-0.073,0.059-0.127C559.398,424.814,559.556,424.759,559.41,424.875z"
				/>
			<path fill="#563726" d="M559.173,424.129c-0.018-0.008-0.112,0.026-0.03-0.067C559.09,424.131,559.304,424.03,559.173,424.129z"
				/>
			<path fill="#563726" d="M558.822,423.992l-0.018-0.019c0.022-0.048,0.098-0.086,0.115-0.08L558.822,423.992z"/>
			<polygon fill="#563726" points="554.428,419.781 554.493,419.771 554.406,419.84 			"/>
			<path fill="#563726" d="M552.643,417.812c-0.076,0.02,0.062-0.086,0.069-0.104C552.742,417.725,552.603,417.79,552.643,417.812z"
				/>
			<polygon fill="#563726" points="551.268,417.113 551.276,417.121 551.104,417.269 			"/>
		</g>
		<path fill="#563726" d="M515.459,455.156c0,0,15.705-5.743,27.475-1.684c0,0,5.211,13.827-10.766,13.827
			C515.671,467.3,515.459,455.156,515.459,455.156z"/>
		<g>
			<path fill="#563726" d="M637.311,308.85c-0.885-0.032-1.865-0.229-2.947-0.591c-1.084-0.363-2.088-0.89-3.007-1.581
				c-0.636-0.476-1.179-1.039-1.632-1.693c-0.454-0.653-0.709-1.36-0.762-2.12c0.552-0.844,1.068-1.58,1.547-2.209
				c0.48-0.627,0.915-1.201,1.309-1.716c0.346-0.455,0.629-0.827,0.85-1.113c0.218-0.287,0.437-0.548,0.663-0.782
				c0.226-0.236,0.449-0.474,0.677-0.708c0.223-0.235,0.537-0.56,0.946-0.975c0.839-0.986,1.949-1.637,3.325-1.953
				c1.372-0.317,2.813-0.54,4.316-0.672c1.502-0.129,2.949-0.302,4.339-0.521c1.386-0.217,2.487-0.739,3.301-1.568
				c0.087-0.113,0.21-0.247,0.369-0.396c0.159-0.151,0.282-0.281,0.372-0.396c0.523-0.687,0.986-1.416,1.395-2.188
				c0.406-0.773,0.562-1.6,0.465-2.481c-0.098-0.881-0.533-1.858-1.302-2.928c-0.771-1.07-2.077-2.298-3.921-3.681
				c-0.809-0.606-1.566-1.04-2.272-1.298c-1.2-0.448-2.601-0.331-4.209,0.35c-1.605,0.682-2.956,1.738-4.044,3.166
				c-0.35,0.459-0.582,0.822-0.697,1.094c-0.539,0.943-0.745,1.868-0.618,2.771c0.126,0.904,0.315,1.786,0.563,2.646
				c0.25,0.859,0.431,1.692,0.544,2.495c0.111,0.805-0.093,1.549-0.615,2.234c-1.162,1.283-2.488,1.839-3.985,1.661
				c-1.494-0.178-2.877-0.744-4.145-1.693c-0.864-0.647-1.62-1.438-2.269-2.373c-1.251-1.924-1.564-4.337-0.938-7.236
				c0.625-2.9,1.92-5.636,3.88-8.208c1.307-1.716,2.851-3.207,4.634-4.476c1.566-0.984,3.222-1.582,4.973-1.799
				c1.75-0.216,3.53-0.116,5.344,0.3c1.812,0.413,3.617,1.074,5.423,1.976c1.802,0.902,3.54,1.977,5.213,3.233l0.432,0.324
				c4.383,3.282,6.948,6.956,7.7,11.023c0.75,4.065-0.813,8.643-4.691,13.73c-0.655,0.857-1.787,1.513-3.4,1.964
				c-1.616,0.454-3.289,0.837-5.024,1.154c-1.735,0.315-3.328,0.562-4.774,0.735c-1.446,0.175-2.285,0.354-2.517,0.538
				c-0.727,0.715-1.14,1.079-1.239,1.093c-0.102,0.013-0.26,0.164-0.479,0.449c-0.347,0.459-0.649,0.908-0.894,1.351
				c-0.249,0.443-0.721,1.123-1.419,2.037L637.311,308.85z M626.991,308.124c0.88,0.39,1.726,0.887,2.531,1.492
				c1.499,1.124,2.519,2.427,3.065,3.914c0.542,1.484,0.379,2.799-0.492,3.942c-0.523,0.686-1.218,1.242-2.088,1.669
				c-1.073,0.455-2.388,0.548-3.946,0.276c-1.562-0.273-2.947-0.86-4.158-1.768c-1.154-0.866-1.895-1.913-2.222-3.146
				c-0.328-1.234-0.056-2.422,0.815-3.566c0.741-0.97,1.756-1.738,3.044-2.3C624.83,308.076,625.979,307.904,626.991,308.124z"/>
		</g>
		<g>
			<path fill="#563726" d="M590.119,289.234c-0.746,0.686-1.71,1.316-2.894,1.892c-1.184,0.579-2.44,0.954-3.758,1.134
				c-0.91,0.123-1.818,0.1-2.725-0.072c-0.905-0.168-1.693-0.542-2.36-1.119c-0.241-1.135-0.423-2.154-0.547-3.055
				c-0.124-0.9-0.237-1.721-0.339-2.458c-0.089-0.654-0.162-1.187-0.219-1.596c-0.055-0.409-0.09-0.802-0.099-1.176
				c-0.01-0.375-0.021-0.748-0.025-1.123c-0.011-0.375-0.02-0.894-0.027-1.561c-0.121-1.484,0.251-2.911,1.116-4.28
				c0.863-1.368,1.858-2.709,2.979-4.031c1.126-1.318,2.166-2.625,3.125-3.926c0.956-1.294,1.428-2.611,1.412-3.944
				c-0.021-0.162-0.03-0.371-0.021-0.622c0.009-0.251,0.002-0.458-0.021-0.623c-0.137-0.983-0.354-1.955-0.654-2.915
				c-0.302-0.96-0.854-1.762-1.654-2.405c-0.804-0.643-1.962-1.091-3.467-1.345c-1.508-0.255-3.583-0.207-6.227,0.15
				c-1.157,0.156-2.134,0.412-2.924,0.77c-1.35,0.601-2.399,1.826-3.156,3.68c-0.754,1.853-0.99,3.805-0.709,5.852
				c0.09,0.657,0.197,1.142,0.325,1.458c0.333,1.206,0.923,2.127,1.769,2.764c0.844,0.637,1.723,1.206,2.632,1.71
				c0.909,0.502,1.74,1.038,2.491,1.602c0.75,0.569,1.193,1.342,1.329,2.324c0.104,1.988-0.528,3.512-1.897,4.573
				c-1.368,1.062-2.963,1.714-4.779,1.958c-1.237,0.168-2.505,0.131-3.801-0.112c-2.603-0.566-4.839-2.289-6.704-5.165
				c-1.87-2.875-3.056-6.157-3.562-9.843c-0.339-2.458-0.296-4.921,0.121-7.398c0.475-2.066,1.338-3.892,2.593-5.481
				c1.253-1.586,2.793-2.942,4.618-4.064c1.82-1.123,3.841-2.04,6.055-2.757c2.215-0.715,4.521-1.236,6.92-1.558l0.618-0.084
				c6.278-0.848,11.393,0.089,15.342,2.81c3.949,2.722,6.425,7.728,7.425,15.016c0.169,1.228-0.223,2.68-1.17,4.35
				c-0.947,1.672-2.002,3.335-3.163,4.994c-1.162,1.656-2.264,3.141-3.304,4.45c-1.038,1.31-1.578,2.133-1.616,2.469
				c-0.009,1.172-0.048,1.803-0.116,1.894c-0.074,0.093-0.08,0.345-0.024,0.755c0.092,0.656,0.216,1.264,0.377,1.825
				c0.159,0.564,0.332,1.5,0.512,2.809L590.119,289.234z M581.082,296.96c1.041-0.391,2.139-0.666,3.295-0.822
				c2.148-0.29,4.053-0.045,5.717,0.731c1.664,0.777,2.607,1.985,2.834,3.623c0.134,0.982,0.021,1.999-0.339,3.049
				c-0.506,1.236-1.507,2.374-3.003,3.408c-1.499,1.035-3.116,1.671-4.853,1.905c-1.653,0.224-3.118-0.037-4.397-0.783
				c-1.281-0.745-2.033-1.935-2.257-3.574c-0.19-1.392,0.009-2.836,0.601-4.335C579.278,298.664,580.078,297.597,581.082,296.96z"/>
		</g>
	</g>
</g>
</svg>
