<?xml version="1.0" encoding="utf-8"?>
<!-- Generator: Adobe Illustrator 16.0.0, SVG Export Plug-In . SVG Version: 6.00 Build 0)  -->
<!DOCTYPE svg PUBLIC "-//W3C//DTD SVG 1.1//EN" "http://www.w3.org/Graphics/SVG/1.1/DTD/svg11.dtd">
<svg version="1.1" id="Layer_1" xmlns="http://www.w3.org/2000/svg" xmlns:xlink="http://www.w3.org/1999/xlink" x="0px" y="0px"
	 width="1200px" height="1200px" viewBox="0 0 1200 1200" enable-background="new 0 0 1200 1200" xml:space="preserve">
<g id="Layer_1_1_">
</g>
<g id="Layer_2">
	<g>
		<path fill="#7E9689" d="M240.954,882.561c-0.004,17.778,47.474,32.257,106.04,32.325c58.568,0.076,106.05-14.273,106.053-32.054
			c0.003-17.781-47.475-32.253-106.04-32.324C288.44,850.433,240.957,864.784,240.954,882.561z"/>
		<polygon fill="#55645E" points="315.953,124.319 325.599,884.571 363.574,884.571 373.348,133.704 		"/>
		<polygon fill="#F2F2F2" points="334.704,162.374 337.963,222.635 567.949,234.036 616.117,187.455 570.392,150.973 		"/>
		<polygon fill="#F2F2F2" points="359.405,244.896 357.775,303.528 155.69,312.486 105.887,277.062 151.491,229.509 		"/>
		<polygon fill="#F2F2F2" points="337.963,323.887 339.592,380.893 547.12,387.149 584.452,352.389 542.922,312.743 		"/>
		<polygon fill="#F2F2F2" points="357.775,400.167 356.147,461.093 173.304,479.844 108.585,436.146 170.861,391.081 		"/>
		<polygon fill="#F2F2F2" points="337.69,489.196 339.319,541.317 523.963,555.16 564.681,522.179 525.592,476.983 		"/>
		<polygon fill="#F2F2F2" points="350.546,565.332 353.804,623.15 200.961,644.194 146.786,604.034 200.531,565.63 		"/>
	</g>
	<g>
		<g>
			<g>
				<path fill="#7E9689" d="M699.026,1068.385c-0.009,18.318,66.231,33.227,147.947,33.286
					c81.718,0.065,147.967-14.733,147.975-33.055c0.009-18.319-66.229-33.223-147.943-33.282
					C765.287,1035.27,699.033,1050.067,699.026,1068.385z"/>
				<path fill="#553625" d="M756.521,956.188l5.588,80.868c0,0-24.81-18.454-36.716,2.769c-16.772,29.901,52.04,13.998,52.04,13.998
					l1.847-77.187c0,0,77.509,13.824,173.469,1.849l3.692,66.88c0,0-28.143-25.376-37.832,0
					c-12.958,33.938,51.672,11.562,51.672,11.562l8.34-94.023C978.619,962.898,895.233,941.754,756.521,956.188z"/>
				<g>
					<g>
						<path fill="#FDDCBE" d="M743.872,789.107c0,0-31.134-271.722,183.99-184.982c0,0,68.132,48.4,71.245,187.211
							C791.375,835.784,743.872,789.107,743.872,789.107z"/>
						<path fill="#553625" d="M700.928,524.025c0,0-1.901,168.348,213.848,124.948l20.5,50.912c0,0,22.454-23.483,29.66,1.077
							c7.208,24.563-23.556,16.695-23.556,16.695s26.718,57.729,57.729,73.676c-1.028,2.061,70.607-274.086-45.269-226.64
							c0,0-9.241-40.561-78.79-41.864C802.969,521.479,766.817,593.685,700.928,524.025z"/>
						<path fill="#553625" d="M781.559,706.111c-0.211,5.729-3.072,10.28-6.396,10.158c-3.317-0.121-5.844-4.863-5.635-10.598
							c0.209-5.733,3.069-10.284,6.394-10.164C779.24,695.631,781.766,700.377,781.559,706.111z"/>
						
							<ellipse transform="matrix(-0.9993 -0.0363 0.0363 -0.9993 1701.5239 1442.8234)" fill="#553625" cx="863.845" cy="705.983" rx="6.02" ry="10.383"/>
					</g>
				</g>
				<path fill="#F5F5F5" d="M743.872,789.107l12.647,167.077c0,0,87.132,21.819,222.1,6.714l20.488-171.563
					C999.109,791.336,829.598,817.233,743.872,789.107z"/>
			</g>
			<g>
				<path fill="#F5F5F5" d="M746.365,794.399l1.064,28.766c-7.363,2.72-13.565,6.49-18.787,11.043l-14.993-24.112
					C730.24,796.165,746.365,794.399,746.365,794.399z"/>
				<path fill="#FDDCBE" d="M713.651,810.096l14.993,24.112c-45.834,39.937-15.348,141.095-15.348,141.095l6.063,19.373
					c0.342,1.358,1.979,9.958-2.048,10.711c-1.934,0.361-3.313-0.909-4.26-2.482c-0.214,1.763-0.9,3.448-2.698,3.789
					c-1.751,0.325-3.044-0.686-3.98-2.054c-0.28,1.571-0.991,2.979-2.617,3.284c-1.934,0.363-3.311-0.907-4.26-2.483
					c-0.216,1.77-0.9,3.453-2.694,3.788c-3.763,0.702-5.436-4.748-5.896-6.646l-4.546-23.11
					C664.518,876.159,689.573,830.313,713.651,810.096z"/>
			</g>
			<polygon fill="#553625" points="812.172,826.578 806.927,836.533 814.422,848.152 800.931,913.358 819.671,941.089 
				840.656,916.24 829.037,849.273 837.656,836.909 833.041,828.826 			"/>
		</g>
		<g>
			<path fill="#FDDCBE" d="M1001.673,581.828c0.205-0.007,0.327-0.016,0.327-0.016S1001.877,581.815,1001.673,581.828z"/>
			<path fill="#F5F5F5" d="M995.354,797.661l-3.852,28.839c15.072-2.352,31.461-10.444,46.552-22.966l-20.69-19.119
				C1010.158,790.122,1002.68,794.613,995.354,797.661z"/>
			<path fill="#FDDCBE" d="M1092.006,686.845c-3.006-66.595-54.951-107.721-54.951-107.721s-41.617-27.688-55.307-3.874
				c0,0-3.188,4.875,1.875,4.5c5.063-0.375,11.25-8.25,18.375-4.313c0,0-7.053-1.902-7.125,3.75c-0.033,2.708,5.4,2.689,6.8,2.643
				c0.202-0.014,0.325-0.018,0.325-0.018s-0.122,0.01-0.325,0.018c-1.315,0.079-6.231,0.582-6.369,3.71
				c-0.203,4.593,3.861,4.526,5.167,4.391c0.245-0.042,0.402-0.054,0.402-0.054s-0.156,0.028-0.402,0.054
				c-1.192,0.203-4.567,1.157-3.158,5.383c1.5,4.5,8.438,1.125,8.438,1.125s15.938-2.625,23.803,6.43
				c61.658,74.745,29.42,148.585-12.188,181.55l20.69,19.119C1067.895,778.77,1092.645,736.617,1092.006,686.845z"/>
			<path fill="#FDDCBE" d="M1000.471,589.929c0.246-0.024,0.404-0.054,0.404-0.054S1000.716,589.888,1000.471,589.929z"/>
		</g>
		<g>
			<path fill="#553625" d="M752.585,702.666c-0.047,0.16,0.284,0.209,0.032,0.175C752.527,702.709,752.467,702.604,752.585,702.666z
				"/>
			<path fill="#553625" d="M780.746,677.93c0.351,1.069-0.783,0.688-0.716,1.503c-0.015,0.07-0.361-0.431-0.371-0.241
				c0.177,0.912-0.702,1.058-1.548,0.979l-0.08-0.141c-0.156-0.015,0.092,0.472-0.046,0.493l-0.188-0.229
				c0.189,0.259-0.061,0.251,0.062,0.461l-0.42-0.318l0.191,0.315c0.434,0.771-0.378,0.258-0.272,0.761l-0.142-0.187
				c0.044,0.665-0.405,0.932-0.619,1.38l-0.329-0.384c0.237,0.301,0.195,0.466,0.154,0.604c-0.305-0.258,0.08,0.407-0.172,0.34
				l-0.049-0.069c0.193,0.379-0.273-0.072-0.013,0.353l-0.256-0.185c0.333,0.442-0.306-0.114-0.187,0.155l0.078,0.084
				c0.027,0.153-0.188-0.025-0.185,0.096l-0.047-0.042c-0.04,0.228-0.322,0.066-0.031,0.387c-0.278-0.217,0.025-0.232-0.384-0.545
				c-0.146,0.729-0.66,1.066-1.098,1.468l-0.355-0.208c0.015,0.105-0.113,0.208-0.007,0.41c0.009-0.021-0.176-0.141-0.214-0.135
				c-0.189-0.05,0.227,0.434,0.009,0.368l-0.24-0.342c0.149,0.317,0.012,0.367-0.006,0.528l-0.135-0.217
				c0.155,0.372-0.231,0.098-0.158,0.354l-0.134-0.215c-0.34-0.104,0.307,0.428,0.065,0.397l-0.159-0.229
				c0.188,0.438-0.091,0.485-0.1,0.699l-0.063-0.082c-0.084,0.15-0.306,0.158-0.309,0.426c-0.121-0.041-0.388-0.47-0.455-0.286
				c0.337,0.369-0.08,0.349,0.371,0.704c-0.163,0.036-0.462,0.051-0.422,0.241c-0.078-0.187-0.46-0.409-0.396-0.521l-0.271-0.166
				c-0.126-0.163,0.117-0.013-0.076-0.186c-0.031,0.057-0.033,0.321-0.128,0.298c0.119,0.305,0.423,0.804,0.327,0.972
				c-0.064-0.202-0.403-0.381-0.417-0.483l0.447,0.888c-0.031,0.06-0.273-0.285-0.253-0.128l0.171,0.279
				c-0.06-0.027-0.107,0.262-0.456-0.091c-0.148-0.125,0.007-0.143-0.161-0.229c-0.082,0.076,0.027,0.208-0.051,0.288l-0.046-0.05
				c-0.104-0.006-0.024,0.305,0.217,0.452c0.048-0.021-0.211-0.208-0.061-0.15c0.15,0.249,0.106,0.396,0.024,0.475l-0.194-0.294
				c0.146,0.39,0.105,0.589,0.087,0.821c0.153,0.178-0.234-0.362-0.136-0.285c-0.378-0.1-0.026,0.643-0.479,0.406
				c-0.006-0.053,0.231,0.237,0.188,0.188c-0.097,0.049-0.317-0.209-0.287-0.07c-0.138-0.145-0.021,0.104-0.03,0.196
				c0.065,0.134-0.079-0.063-0.049-0.116c0.038,0.19-0.05,0.679-0.408,0.612c0.091,0.095,0.217,0.452,0.168,0.477l-0.188-0.242
				c-0.158-0.106-0.111,0.135-0.294-0.059c0.167,0.354,0.106-0.521,0.188-0.206c-0.201-0.166,0.169,0.507-0.087,0.172
				c-0.069,0.076,0.087,0.403-0.183,0.253c0.058,0.021-0.221-0.375-0.27-0.305c-0.073,0.141,0.066,0.139,0.046,0.295l0.026,0.146
				c0.195,0.229-0.127,0.058,0.141,0.272c-0.18-0.175-0.063,0.256-0.38-0.127l-0.244-0.308c-0.029,0.063,0.194,0.379,0.271,0.542
				l-0.134-0.119c0.393,0.457-0.146,0.063,0.104,0.461c-0.238-0.064-0.271,0.213-0.563-0.023c0.044,0.205,0.116,0.429-0.056,0.41
				l-0.09-0.192c-0.175-0.083-0.08,0.047-0.066,0.166c-0.048-0.078-0.344-0.166-0.546-0.271c0.042,0.202,0.284,0.424,0.407,0.576
				c-0.467-0.381,0.038,0.479-0.407,0.154c-0.028-0.086-0.082-0.317-0.244-0.372c-0.464-0.38,0.149,0.452-0.153,0.341l0.355,0.343
				c-0.252-0.183,0.022,0.36-0.298-0.021c0.079,0.166-0.241-0.005,0.089,0.343c-0.453-0.139-0.287,0.585-0.976,0.043
				c0.027,0.083-0.094,0.082,0.086,0.253c0.222,0.161-0.064-0.197,0.071-0.076l0.107,0.188c-0.13-0.031-0.197-0.017-0.408-0.363
				c-0.325-0.107,0.41,0.729,0.121,0.73c-0.124-0.153-0.188-0.199-0.214-0.134l0.137,0.335c-0.158,0.036-0.36-0.282-0.586-0.531
				c-0.021,0.092-0.099,0.142,0.043,0.353l-0.35-0.255c0.252,0.185,0.09,0.193,0.114,0.277l-0.024-0.084
				c-0.107-0.099-0.113,0.024-0.118,0.087c0.146,0.146,0.269,0.151,0.346,0.165c0.07,0.137,0.001,0.148,0.078,0.313
				c-0.206-0.257-0.247-0.094-0.313-0.078c-0.101-0.009,0.138,0.271,0.113,0.277c-0.112-0.127-0.103,0.054-0.222-0.162
				c-0.02-0.058,0.15,0.089,0.079-0.05c-0.117-0.063-0.313-0.292-0.238-0.065c0.059,0.168,0.446,0.476,0.207,0.408l-0.169-0.295
				l-0.208-0.046l0.195,0.229l-0.104-0.1c0.185,0.263-0.08,0.201,0.138,0.486c-0.026,0.065-0.237-0.067-0.308-0.054l-0.01-0.025
				c-0.172-0.083-0.17,0.068-0.08,0.264l-0.041-0.053c-0.047,0.009-0.087,0.107-0.008,0.273c-0.229-0.103-0.779-0.825-0.613-0.468
				c-0.07,0.075,0.244,0.521,0.404,0.636c-0.274-0.026-0.107,0.479-0.547,0.246l0.131,0.243c-0.284,0.094-0.196,0.649-0.752,0.354
				c-0.024-0.148-0.195-0.23-0.313-0.355c0.13,0.244-0.242-0.155,0.045,0.205c0.188,0.197,0.27,0.301,0.398,0.331
				c-0.025,0.219-0.211,0.384-0.447,0.255c0.117,0.063,0.146,0.149,0.175,0.232c-0.278-0.331-0.411-0.301-0.38-0.124l0.166,0.205
				l-0.225-0.163c0.029,0.085,0.339,0.438,0.103,0.309l-0.208-0.189c0.073,0.224,0.221,0.586-0.008,0.485l-0.315-0.23
				c-0.008,0.061,0.094,0.281,0.226,0.313c-0.286-0.059-0.389-0.005-0.652-0.218c0.315,0.809,0.013,1.122-0.289,1.312l-0.122-0.152
				c-0.192-0.076,0.19,0.29,0.053,0.23c-0.104-0.161-0.326-0.259-0.425-0.479c-0.238-0.064,0.099,0.371,0.093,0.497
				c0.164,0.202-0.06-0.172,0.147,0.086c0.052,0.079-0.271-0.026-0.027,0.278c-0.128-0.093-0.299-0.325-0.394-0.457l0.065,0.196
				c-0.38-0.274-0.374-0.765-0.828-1.117l-0.016,0.098c-0.327-0.259-0.159-0.479-0.396-0.458c0.067,0.199,0.395,0.672,0.564,0.752
				c-0.06,0.195,0.563,0.754,0.4,0.853c-0.189-0.14,0.073-0.142-0.169-0.356c-0.273-0.18-0.013,0.248-0.144,0.217
				c0.163,0.053,0.371,0.396,0.379,0.489c-0.194-0.077-0.201-0.319-0.328-0.262c0.134,0.185,0.154,0.394,0.34,0.438
				c0.308,0.416-0.197-0.015,0.015,0.331c-0.274-0.241-0.454-0.715-0.685-0.753c0.249,0.244,0.18,0.475,0.58,0.808
				c-0.107-0.034-0.296-0.234-0.406-0.424c-0.203-0.104,0.274,0.606-0.203,0.108L760,700.09l-0.343-0.229
				c-0.058,0.044,0.147,0.518-0.204,0.109c0.02,0.057-0.118,0.146,0.175,0.383c0.227,0.103-0.093-0.279,0.283,0.059
				c-0.325-0.259-0.072,0.14-0.025,0.279l-0.146-0.147c0.027,0.084-0.063,0.104,0.07,0.286l-0.219-0.223l0.184,0.262
				c-0.001,0.212-0.396-0.396-0.438-0.232l-0.083-0.254c0.018,0.057-0.217-0.135-0.199-0.017l0.5,0.706
				c0.023,0.146-0.243-0.221-0.104,0.054l-0.154-0.327c-0.053-0.082-0.368-0.313-0.441-0.234c0.019,0.117,0.216,0.498,0.4,0.548
				c-0.037,0.038-0.21-0.044-0.317-0.229c-0.021,0.152,0.219,0.223,0.262,0.425c-0.159-0.114-0.439-0.233-0.686-0.391l-0.241-0.435
				l-0.057,0.044c-0.188-0.352-0.23-0.188-0.463-0.528c-0.078-0.016-0.03,0.129,0.005,0.239c0.54,0.396,0.475,0.772,0.899,1.19
				c-0.035,0.252-1.056-1.003-0.586-0.171c0.127,0.096,0.357,0.497,0.336,0.287c-0.136,0.032,0.335,0.501,0.063,0.411
				c-0.084-0.253-0.486-0.375-0.608-0.741c0.123,0.152,0.163,0.054,0.146-0.002c-0.188-0.139-0.391-0.455-0.482-0.373
				c-0.02,0.092-0.09,0.169,0.128,0.393c0.229,0.253,0.063-0.104,0.257,0.188c-0.033,0.188-0.397-0.183-0.043,0.313
				c0.039-0.101,0.291,0.146,0.444,0.324l0.013,0.181l-0.136-0.186c-0.239-0.005,0.234,0.343,0.065,0.412l-0.358-0.281
				c-0.226-0.315,0.303-0.038-0.139-0.488c-0.103,0.057,0.083,0.319-0.104,0.271l-0.022-0.147c-0.044,0.013-0.627-0.585-0.422-0.112
				c0.063,0.194,0.132,0.181,0.287,0.357c-0.089,0.173,0.029,0.389-0.031,0.492c-0.287-0.357-0.184,0.104-0.398-0.334
				c0.226,0.163,0.398-0.03,0.155-0.398c-0.409-0.363,0.157-0.037-0.18-0.475c-0.117,0.085-0.467-0.318-0.719-0.564
				c-0.048,0.008,0.022,0.146,0.042,0.2c0.204,0.259,0.241,0.221,0.472,0.472c-0.181,0.04-0.174,0.28-0.026,0.581
				c-0.146-0.087-0.354-0.346-0.328-0.411c-0.078,0.201-0.261,0.305-0.463,0.352c0.445,0.323-0.065,0.229,0.29,0.511
				c0.154,0.025,0.47,0.258,0.59,0.475c-0.064,0.015-0.152-0.179-0.25-0.247c0.14,0.271-0.401-0.272-0.15,0.125
				c0.016-0.246-0.41-0.514-0.667-0.851c0.063,0.261-0.196-0.229-0.288-0.146c0.062,0.259,0.066,0.499,0.022,0.66
				c-0.396-0.185-0.337,0.289-0.441,0.405c-0.204-0.104-0.479-0.498-0.603-0.501c-0.07,0.075,0.399,0.332,0.141,0.271l-0.053-0.08
				c0.038,0.111-0.428-0.055-0.006,0.489l-0.308-0.419c-0.056-0.018,0.006,0.091,0.021,0.146l-0.276-0.332
				c-0.31-0.202-0.111,0.177-0.181,0.257l0.253,0.185c0.027,0.298-0.265,0.148-0.32,0.344l-0.194-0.229l0.042,0.202
				c-0.174-0.233-0.367-0.312-0.247-0.095l-0.289-0.724c0.173,0.082,0.183,0.322,0.41,0.513c0.202,0.167,0.266,0,0.094-0.231
				c-0.065,0.017-0.024,0.065,0.013,0.181c-0.292-0.299-0.213-0.35-0.361-0.586c-0.014,0.033-0.131-0.03-0.049,0.071
				c-0.088-0.192-0.063-0.258,0.009-0.336c0.056,0.168,0.2,0.167,0.259,0.273c-0.237-0.28-0.238-0.431-0.073-0.438
				c0.353,0.256,0-0.364,0.189-0.377c0.202,0.316,0.343,0.592,0.373,0.766c0.195,0.077,0.072-0.076,0.267,0
				c-0.148-0.236-0.408-0.575-0.429-0.782l0.188,0.201c-0.014-0.182-0.281-0.483-0.123-0.52c0.27-0.062,0.455-0.227,0.614-0.322
				l0.188,0.198c-0.313-0.507,0.111-0.39,0.043-0.676c0.351,0.041,0.209-0.534,0.612-0.263c0.171-0.434,0.304-0.827,0.69-1.038
				l0.211,0.346c-0.138-0.271,0.19,0.139,0.207,0.043c-0.275-0.179-0.193-0.378-0.316-0.595c0.349,0.104,0.308-0.313,0.248-0.633
				l0.188,0.2c-0.213-0.499,0.24-0.298,0.455-0.376c0.094,0.064,0.293,0.232,0.321,0.17c-0.208-0.409-0.145-0.426-0.198-0.746
				c0.093-0.082,0.314-0.135,0.523-0.089c-0.063-0.775,0.558-0.795,0.672-1.397l0.238,0.219c-0.104-0.826,0.743-0.745,0.811-1.275
				l0.336,0.438c0.207,0.043,0.12-0.3-0.164-0.567c0.206,0.042,0.059-0.408,0.419-0.124c0.164-0.011-0.05-0.295-0.02-0.422
				c0.33-0.019,0.37-0.114,0.483-0.354l-0.065,0.016c0.06,0.107,0.214,0.283,0.28,0.271c-0.032-0.176,0.352-0.11-0.152-0.542
				c0.442,0.109,0.247-0.633,0.775-0.419c-0.137-0.12-0.109-0.188-0.171-0.298c0.165-0.157,0.588-0.042,0.521-0.394
				c0.087,0.044,0.158,0.27,0.24,0.221l-0.172-0.297c0.057-0.495,0.79-0.239,0.983-0.527c0.217-0.656,0.8-0.938,1.188-1.362
				l0.083,0.104c-0.19-0.504,0.681,0.087,0.29-0.581c0.117,0.063,0.168-0.071,0.313,0.141c-0.122-0.366,0.541-0.033,0.406-0.519
				l0.006,0.091c0.358,0.067,0.242-0.357,0.594-0.317l0.097,0.221c0.237,0.128-0.208-0.56,0.252-0.116
				c0.035-0.038-0.185-0.264-0.194-0.229c0.549-0.157,0.689-0.825,0.995-1.289c0.538,0.026,0.729,0.782,0.642,0.228
				c0.099,0.075-0.148-0.193-0.059-0.098c-0.03-0.211,0.607,0.407,0.445,0.106c-0.283-0.271-0.104-0.201-0.261-0.38
				c0.345,0.033,0.614,0.266,0.556-0.081l0.126,0.165c-0.223-0.579,0.173-0.514-0.136-1.137c0.815-0.889,1.428-1.931,2.25-2.765
				c0.948-0.673,1.594-1.646,2.708-2.16c0.563,0.22,0.568,0.193,0.649-0.17l0.116,0.148c-0.282-0.341,0.132-0.173-0.129-0.507
				c0.381-0.229,0.6-0.584,0.931-0.883c-0.021,0.082,0.189,0.375,0.233,0.299l-0.122-0.271l0.096,0.084
				c0-0.088-0.102-0.293-0.238-0.358c0.583-1.03,1.997-1.103,2.747-1.912c0.316-0.033,0.479-0.407,0.634-0.662
				c1.02-0.117,1.902-0.265,2.265-1.141C780.157,676.57,780.838,677.499,780.746,677.93z"/>
			<path fill="#553625" d="M752.681,702.521c0.17,0.145,0.323,0.172,0.46,0.44L752.681,702.521z"/>
			<path fill="#553625" d="M756.144,702.49c-0.041-0.051,0.088,0.043,0.117,0.063c-0.016,0.033,0.088,0.191-0.008,0.124
				L756.144,702.49z"/>
			<path fill="#553625" d="M756.729,702.146c0.123,0.152,0.12,0.364,0.073,0.438L756.729,702.146z"/>
			<path fill="#553625" d="M757.732,702.342c0.151,0.088,0.201,0.165,0.144,0.209L757.732,702.342z"/>
			<path fill="#553625" d="M757.468,701.977c0.035-0.036,0.132,0.031,0.226,0.102C757.577,701.95,757.674,702.234,757.468,701.977z"
				/>
			<path fill="#553625" d="M758.856,701.508c0.015-0.033-0.042-0.202,0.126-0.059C758.854,701.357,759.029,701.74,758.856,701.508z"
				/>
			<path fill="#553625" d="M759.128,700.869l0.032-0.038c0.09,0.041,0.154,0.176,0.145,0.21L759.128,700.869z"/>
			<polygon fill="#553625" points="767.13,692.697 767.145,692.815 767.021,692.663 			"/>
			<path fill="#553625" d="M770.859,689.367c-0.032-0.139,0.158,0.105,0.188,0.122C771.014,689.545,770.9,689.293,770.859,689.367z"
				/>
			<polygon fill="#553625" points="772.222,686.842 772.209,686.859 771.944,686.552 			"/>
		</g>
		<g>
			<path fill="#553625" d="M885.956,703.856c0.153,0.038,0.209-0.283,0.173-0.038C885.997,703.912,885.892,703.972,885.956,703.856z
				"/>
			<path fill="#553625" d="M862.544,677.324c1.05-0.37,0.646,0.74,1.445,0.647c0.068,0.014-0.431,0.366-0.248,0.366
				c0.897-0.196,1.016,0.65,0.922,1.471l-0.143,0.082c-0.016,0.154,0.462-0.103,0.479,0.029l-0.228,0.19
				c0.256-0.193,0.243,0.05,0.452-0.073l-0.322,0.416l0.313-0.193c0.761-0.443,0.238,0.357,0.731,0.24l-0.184,0.143
				c0.646-0.062,0.896,0.364,1.328,0.56l-0.383,0.331c0.3-0.24,0.461-0.205,0.594-0.167c-0.26,0.299,0.396-0.093,0.327,0.153
				l-0.07,0.049c0.372-0.199-0.079,0.27,0.343,0.002l-0.188,0.253c0.44-0.337-0.117,0.299,0.146,0.173l0.084-0.076
				c0.152-0.032-0.026,0.185,0.089,0.176l-0.042,0.047c0.223,0.03,0.059,0.31,0.376,0.02c-0.218,0.273-0.227-0.02-0.54,0.39
				c0.705,0.117,1.022,0.606,1.403,1.021l-0.213,0.349c0.104-0.018,0.201,0.104,0.4-0.006c-0.021-0.007-0.143,0.176-0.138,0.211
				c-0.055,0.186,0.428-0.231,0.358-0.021l-0.34,0.242c0.313-0.15,0.358-0.021,0.518-0.009l-0.216,0.137
				c0.368-0.161,0.091,0.223,0.343,0.144l-0.213,0.137c-0.108,0.332,0.424-0.31,0.393-0.078l-0.229,0.164
				c0.433-0.196,0.473,0.071,0.68,0.073l-0.08,0.063c0.146,0.075,0.146,0.29,0.405,0.283c-0.042,0.12-0.467,0.394-0.291,0.449
				c0.37-0.338,0.337,0.069,0.696-0.381c0.03,0.158,0.038,0.447,0.226,0.403c-0.184,0.078-0.412,0.457-0.521,0.398l-0.168,0.27
				c-0.161,0.126-0.009-0.114-0.185,0.079c0.056,0.027,0.313,0.021,0.287,0.114c0.302-0.126,0.793-0.436,0.955-0.348
				c-0.198,0.069-0.381,0.401-0.48,0.418l0.876-0.459c0.057,0.028-0.285,0.271-0.135,0.247l0.28-0.172
				c-0.028,0.055,0.252,0.097-0.1,0.442c-0.126,0.146-0.142-0.003-0.229,0.161c0.074,0.078,0.204-0.029,0.281,0.041l-0.049,0.046
				c-0.008,0.104,0.295,0.017,0.446-0.224c-0.021-0.046-0.208,0.212-0.148,0.063c0.246-0.153,0.388-0.113,0.463-0.038l-0.291,0.196
				c0.383-0.148,0.575-0.12,0.802-0.106c0.18-0.155-0.354,0.24-0.28,0.14c-0.105,0.369,0.626,0.007,0.385,0.451
				c-0.048,0.007,0.238-0.233,0.19-0.188c0.045,0.093-0.214,0.315-0.077,0.278c-0.145,0.138,0.104,0.02,0.191,0.026
				c0.13-0.07-0.063,0.077-0.114,0.05c0.187-0.044,0.659,0.026,0.585,0.378c0.097-0.091,0.447-0.224,0.472-0.179l-0.243,0.189
				c-0.105,0.156,0.129,0.104-0.063,0.286c0.35-0.171-0.508-0.087-0.196-0.175c-0.168,0.199,0.496-0.18,0.164,0.078
				c0.073,0.063,0.396-0.095,0.243,0.167c0.021-0.054-0.374,0.226-0.305,0.27c0.137,0.067,0.138-0.066,0.289-0.053l0.143-0.03
				c0.229-0.194,0.055,0.119,0.27-0.143c-0.173,0.178,0.249,0.048-0.132,0.371l-0.308,0.247c0.063,0.023,0.375-0.202,0.536-0.283
				l-0.12,0.136c0.456-0.395,0.062,0.142,0.452-0.116c-0.069,0.234,0.2,0.256-0.037,0.547c0.199-0.049,0.42-0.123,0.397,0.044
				l-0.19,0.092c-0.085,0.169,0.045,0.076,0.16,0.06c-0.077,0.05-0.171,0.338-0.276,0.537c0.198-0.047,0.417-0.287,0.57-0.411
				c-0.383,0.46,0.468-0.052,0.142,0.391c-0.084,0.028-0.313,0.088-0.368,0.247c-0.384,0.46,0.444-0.157,0.327,0.139l0.344-0.354
				c-0.186,0.25,0.354-0.032-0.029,0.29c0.164-0.083-0.011,0.234,0.337-0.098c-0.146,0.443,0.563,0.261,0.017,0.939
				c0.084-0.025,0.078,0.092,0.252-0.088c0.162-0.22-0.195,0.069-0.073-0.065l0.185-0.112c-0.031,0.127-0.021,0.192-0.361,0.408
				c-0.114,0.316,0.719-0.419,0.717-0.143c-0.154,0.124-0.2,0.188-0.138,0.211l0.331-0.142c0.028,0.152-0.287,0.358-0.536,0.584
				c0.092,0.015,0.139,0.091,0.347-0.053l-0.256,0.346c0.184-0.25,0.188-0.091,0.271-0.122l-0.084,0.031
				c-0.098,0.104,0.022,0.104,0.081,0.111c0.149-0.146,0.156-0.269,0.171-0.342c0.135-0.069,0.147-0.007,0.311-0.086
				c-0.258,0.206-0.099,0.243-0.085,0.309c-0.012,0.096,0.268-0.144,0.271-0.121c-0.127,0.116,0.05,0.098-0.163,0.222
				c-0.057,0.021,0.091-0.148-0.048-0.075c-0.065,0.116-0.291,0.313-0.069,0.231c0.167-0.06,0.476-0.446,0.401-0.213l-0.289,0.174
				l-0.051,0.201l0.229-0.195l-0.099,0.104c0.259-0.187,0.193,0.068,0.479-0.146c0.063,0.023-0.071,0.232-0.06,0.299l-0.027,0.01
				c-0.085,0.171,0.063,0.161,0.255,0.069l-0.052,0.042c0.008,0.045,0.104,0.08,0.269-0.002c-0.105,0.225-0.824,0.78-0.473,0.607
				c0.072,0.064,0.514-0.252,0.631-0.41c-0.033,0.267,0.466,0.09,0.227,0.521l0.242-0.133c0.083,0.271,0.628,0.17,0.325,0.717
				c-0.146,0.028-0.229,0.198-0.354,0.313c0.242-0.133-0.158,0.242,0.2-0.05c0.198-0.187,0.301-0.27,0.334-0.396
				c0.213,0.02,0.368,0.192,0.236,0.425c0.063-0.114,0.147-0.146,0.231-0.176c-0.332,0.281-0.304,0.408-0.133,0.37l0.205-0.165
				l-0.165,0.223c0.085-0.03,0.438-0.343,0.305-0.107l-0.191,0.206c0.221-0.078,0.577-0.229,0.475-0.008l-0.233,0.314
				c0.061,0.004,0.277-0.101,0.313-0.228c-0.063,0.275-0.015,0.376-0.229,0.637c0.795-0.329,1.096-0.044,1.271,0.241l-0.154,0.125
				c-0.077,0.188,0.289-0.196,0.229-0.061c-0.16,0.104-0.261,0.324-0.479,0.426c-0.068,0.233,0.365-0.104,0.486-0.104
				c0.203-0.163-0.168,0.063,0.088-0.146c0.08-0.053-0.033,0.268,0.273,0.02c-0.095,0.126-0.327,0.301-0.457,0.396l0.192-0.069
				c-0.276,0.376-0.756,0.385-1.108,0.836l0.093,0.014c-0.26,0.323-0.471,0.166-0.458,0.396c0.198-0.072,0.667-0.401,0.75-0.568
				c0.188,0.048,0.747-0.567,0.84-0.417c-0.141,0.188-0.135-0.066-0.354,0.174c-0.184,0.271,0.241,0.004,0.209,0.134
				c0.055-0.157,0.396-0.372,0.485-0.382c-0.081,0.189-0.316,0.204-0.264,0.325c0.183-0.136,0.387-0.162,0.438-0.343
				c0.412-0.31-0.021,0.19,0.32-0.021c-0.243,0.271-0.709,0.459-0.752,0.686c0.244-0.249,0.467-0.189,0.804-0.588
				c-0.038,0.105-0.237,0.294-0.426,0.407c-0.106,0.199,0.601-0.284,0.104,0.193l0.281-0.217l-0.229,0.337
				c0.041,0.055,0.507-0.158,0.103,0.195c0.057-0.021,0.143,0.109,0.378-0.183c0.104-0.223-0.274,0.098,0.063-0.277
				c-0.26,0.325,0.133,0.068,0.271,0.021l-0.148,0.146c0.084-0.029,0.102,0.059,0.283-0.076l-0.224,0.219l0.26-0.188
				c0.208-0.006-0.396,0.396-0.236,0.433l-0.249,0.088c0.052-0.017-0.138,0.213-0.021,0.194l0.7-0.505
				c0.146-0.028-0.221,0.24,0.05,0.099l-0.321,0.161c-0.08,0.053-0.313,0.366-0.242,0.434c0.117-0.02,0.494-0.224,0.545-0.4
				c0.037,0.031-0.048,0.2-0.232,0.313c0.15,0.019,0.225-0.219,0.42-0.266c-0.113,0.157-0.236,0.433-0.396,0.674l-0.428,0.247
				l0.039,0.055c-0.348,0.192-0.188,0.229-0.525,0.464c-0.018,0.076,0.123,0.025,0.232-0.013c0.396-0.536,0.767-0.48,1.186-0.908
				c0.244,0.027-1.005,1.053-0.182,0.573c0.095-0.128,0.492-0.362,0.289-0.333c0.025,0.128,0.496-0.341,0.401-0.076
				c-0.25,0.089-0.379,0.482-0.741,0.612c0.154-0.124,0.06-0.16,0.004-0.143c-0.14,0.188-0.455,0.396-0.376,0.48
				c0.09,0.017,0.163,0.082,0.388-0.138c0.252-0.229-0.104-0.058,0.188-0.253c0.185,0.026-0.188,0.393,0.305,0.03
				c-0.098-0.033,0.149-0.286,0.325-0.439l0.179-0.018l-0.185,0.135c-0.011,0.234,0.341-0.234,0.402-0.073l-0.282,0.354
				c-0.314,0.229-0.03-0.291-0.479,0.149c0.053,0.096,0.313-0.09,0.26,0.093l-0.146,0.028c0.012,0.042-0.587,0.625-0.121,0.413
				c0.192-0.069,0.18-0.136,0.354-0.291c0.167,0.081,0.38-0.042,0.479,0.016c-0.356,0.288,0.097,0.174-0.335,0.396
				c0.164-0.223-0.021-0.389-0.388-0.141c-0.364,0.408-0.032-0.149-0.466,0.188c0.08,0.109-0.324,0.463-0.57,0.712
				c0.006,0.045,0.145-0.026,0.198-0.045c0.256-0.209,0.22-0.242,0.472-0.475c0.033,0.177,0.27,0.162,0.565,0.009
				c-0.088,0.147-0.345,0.354-0.41,0.331c0.194,0.069,0.29,0.244,0.329,0.438c0.328-0.442,0.224,0.059,0.506-0.297
				c0.029-0.149,0.264-0.465,0.479-0.588c0.013,0.064-0.179,0.155-0.246,0.251c0.268-0.143-0.275,0.397,0.117,0.144
				c-0.239-0.008-0.513,0.414-0.848,0.672c0.256-0.067-0.229,0.196-0.146,0.284c0.254-0.067,0.486-0.082,0.645-0.044
				c-0.188,0.39,0.273,0.318,0.386,0.418c-0.106,0.199-0.498,0.479-0.505,0.596c0.072,0.067,0.335-0.396,0.271-0.144l-0.081,0.053
				c0.11-0.039-0.063,0.416,0.477-0.009L886,702.195c-0.018,0.053,0.089-0.009,0.146-0.027l-0.329,0.279
				c-0.205,0.305,0.168,0.104,0.245,0.166l0.186-0.25c0.29-0.034,0.14,0.25,0.326,0.301l-0.228,0.195l0.198-0.05
				c-0.23,0.179-0.313,0.367-0.099,0.244l-0.713,0.302c0.085-0.171,0.318-0.186,0.511-0.414c0.168-0.198,0.007-0.258-0.225-0.082
				c0.014,0.063,0.063,0.021,0.176-0.017c-0.298,0.291-0.345,0.216-0.581,0.369c0.032,0.012-0.033,0.127,0.068,0.044
				c-0.189,0.092-0.254,0.068-0.327,0.001c0.167-0.059,0.17-0.199,0.271-0.259c-0.276,0.237-0.425,0.244-0.429,0.084
				c0.258-0.35-0.355,0.012-0.363-0.173c0.316-0.204,0.587-0.35,0.756-0.386c0.079-0.188-0.072-0.065,0.009-0.257
				c-0.235,0.151-0.572,0.411-0.774,0.438l0.201-0.188c-0.177,0.018-0.479,0.287-0.51,0.139c-0.054-0.264-0.21-0.438-0.302-0.59
				l0.199-0.188c-0.501,0.318-0.376-0.097-0.656-0.021c0.05-0.343-0.517-0.188-0.239-0.588c-0.418-0.148-0.801-0.27-0.995-0.639
				l0.343-0.216c-0.267,0.143,0.14-0.188,0.048-0.2c-0.182,0.272-0.374,0.2-0.59,0.325c0.111-0.341-0.297-0.288-0.61-0.223
				l0.2-0.188c-0.492,0.223-0.284-0.223-0.354-0.429c0.067-0.094,0.236-0.292,0.175-0.315c-0.402,0.213-0.417,0.149-0.73,0.214
				c-0.079-0.088-0.125-0.302-0.074-0.505c-0.758,0.084-0.763-0.517-1.347-0.606l0.219-0.239c-0.81,0.128-0.707-0.696-1.224-0.744
				l0.435-0.339c0.047-0.201-0.287-0.105-0.56,0.177c0.046-0.202-0.396-0.045-0.111-0.401c-0.004-0.157-0.288,0.06-0.41,0.031
				c-0.009-0.319-0.104-0.355-0.333-0.46l0.015,0.065c0.104-0.063,0.283-0.217,0.271-0.282c-0.173,0.039-0.101-0.334-0.531,0.167
				c0.117-0.436-0.612-0.222-0.392-0.74c-0.119,0.137-0.186,0.113-0.293,0.175c-0.147-0.153-0.027-0.566-0.37-0.492
				c0.044-0.085,0.267-0.162,0.22-0.24l-0.293,0.175c-0.48-0.037-0.214-0.758-0.487-0.938c-0.638-0.188-0.896-0.745-1.303-1.108
				l0.104-0.083c-0.495,0.201,0.101-0.661-0.56-0.264c0.063-0.114-0.064-0.161,0.146-0.31c-0.362,0.13-0.021-0.521-0.497-0.378
				l0.088-0.007c0.078-0.352-0.342-0.227-0.294-0.567l0.218-0.1c0.131-0.231-0.551,0.219-0.106-0.24
				c-0.036-0.031-0.263,0.188-0.229,0.196c-0.141-0.527-0.788-0.644-1.233-0.925c0.043-0.524,0.783-0.73,0.238-0.626
				c0.075-0.102-0.191,0.146-0.097,0.059c-0.206,0.035,0.413-0.603,0.114-0.438c-0.271,0.283-0.197,0.106-0.375,0.264
				c0.04-0.334,0.271-0.602-0.064-0.534l0.162-0.126c-0.566,0.232-0.496-0.152-1.109,0.165c-0.847-0.762-1.846-1.324-2.64-2.095
				c-0.632-0.899-1.565-1.494-2.039-2.559c0.229-0.555,0.205-0.56-0.146-0.625l0.146-0.118c-0.34,0.283-0.166-0.12-0.498,0.141
				c-0.213-0.36-0.554-0.562-0.837-0.873c0.081,0.019,0.373-0.197,0.298-0.237l-0.267,0.126l0.084-0.092
				c-0.086,0.003-0.287,0.104-0.356,0.241c-0.988-0.534-1.021-1.901-1.794-2.604c-0.025-0.308-0.386-0.455-0.632-0.595
				c-0.09-0.982-0.21-1.836-1.055-2.161C861.2,677.938,862.127,677.253,862.544,677.324z"/>
			<path fill="#553625" d="M885.818,703.769c0.147-0.171,0.175-0.318,0.444-0.46L885.818,703.769z"/>
			<path fill="#553625" d="M885.875,700.414c-0.053,0.042,0.045-0.086,0.064-0.116c0.032,0.012,0.19-0.091,0.121,0.003
				L885.875,700.414z"/>
			<path fill="#553625" d="M885.555,699.857c0.154-0.125,0.361-0.131,0.431-0.086L885.555,699.857z"/>
			<path fill="#553625" d="M885.771,698.879c0.089-0.146,0.167-0.199,0.208-0.146L885.771,698.879z"/>
			<path fill="#553625" d="M885.406,699.146c-0.036-0.033,0.034-0.131,0.104-0.225C885.385,699.04,885.663,698.938,885.406,699.146z
				"/>
			<path fill="#553625" d="M884.986,697.815c-0.032-0.015-0.199,0.048-0.054-0.119C884.839,697.821,885.217,697.641,884.986,697.815
				z"/>
			<path fill="#553625" d="M884.368,697.573l-0.034-0.033c0.041-0.087,0.174-0.154,0.205-0.144L884.368,697.573z"/>
			<polygon fill="#553625" points="876.603,690.069 876.718,690.052 876.565,690.174 			"/>
			<path fill="#553625" d="M873.448,686.558c-0.135,0.035,0.108-0.154,0.123-0.185C873.625,686.402,873.377,686.52,873.448,686.558z
				"/>
			<polygon fill="#553625" points="871.02,685.315 871.033,685.327 870.729,685.591 			"/>
		</g>
		<path fill="#553625" d="M807.75,753.109c0,0,27.75-10.234,48.545-3c0,0,9.205,24.641-19.022,24.641
			C808.125,774.75,807.75,753.109,807.75,753.109z"/>
		<g>
			<path fill="#553625" d="M1023.043,492.379c-1.563-0.058-3.295-0.409-5.207-1.055c-1.914-0.646-3.688-1.586-5.313-2.816
				c-1.123-0.849-2.083-1.853-2.883-3.019c-0.8-1.164-1.251-2.424-1.345-3.776c0.974-1.505,1.887-2.816,2.731-3.937
				c0.849-1.119,1.618-2.141,2.313-3.059c0.611-0.812,1.112-1.475,1.5-1.983c0.386-0.511,0.772-0.978,1.173-1.395
				c0.396-0.421,0.793-0.844,1.194-1.262c0.396-0.419,0.95-0.997,1.674-1.736c1.481-1.757,3.442-2.918,5.873-3.48
				c2.427-0.566,4.969-0.963,7.627-1.198c2.654-0.231,5.211-0.539,7.666-0.928c2.448-0.388,4.396-1.318,5.833-2.794
				c0.153-0.202,0.37-0.44,0.651-0.706c0.281-0.27,0.499-0.501,0.656-0.706c0.925-1.225,1.745-2.523,2.465-3.898
				c0.718-1.378,0.992-2.852,0.821-4.421c-0.172-1.571-0.941-3.312-2.299-5.219c-1.361-1.906-3.67-4.095-6.929-6.559
				c-1.428-1.081-2.768-1.853-4.016-2.313c-2.12-0.799-4.594-0.59-7.435,0.624c-2.839,1.215-5.224,3.098-7.146,5.642
				c-0.618,0.818-1.028,1.465-1.233,1.951c-0.95,1.68-1.313,3.328-1.091,4.938c0.224,1.61,0.557,3.183,0.996,4.716
				c0.442,1.532,0.761,3.017,0.961,4.446c0.197,1.435-0.163,2.76-1.087,3.981c-2.054,2.287-4.396,3.277-7.042,2.96
				c-2.641-0.316-5.084-1.324-7.321-3.017c-1.528-1.153-2.864-2.562-4.009-4.229c-2.211-3.43-2.764-7.73-1.656-12.896
				c1.104-5.167,3.393-10.043,6.854-14.626c2.31-3.059,5.039-5.715,8.19-7.977c2.765-1.753,5.688-2.819,8.782-3.205
				c3.093-0.385,6.239-0.207,9.442,0.535c3.201,0.736,6.393,1.914,9.582,3.521c3.184,1.607,6.254,3.523,9.21,5.762l0.765,0.577
				c7.742,5.85,12.275,12.396,13.604,19.645c1.324,7.245-1.438,15.402-8.29,24.468c-1.156,1.527-3.158,2.696-6.009,3.501
				c-2.854,0.809-5.811,1.491-8.877,2.056c-3.064,0.563-5.88,1-8.436,1.311c-2.556,0.312-4.038,0.63-4.446,0.958
				c-1.282,1.274-2.015,1.922-2.188,1.948c-0.181,0.022-0.461,0.293-0.847,0.8c-0.615,0.817-1.146,1.618-1.579,2.407
				c-0.439,0.791-1.273,2.002-2.505,3.631L1023.043,492.379z M1004.813,491.084c1.554,0.695,3.047,1.581,4.471,2.659
				c2.648,2.002,4.451,4.325,5.415,6.974c0.958,2.646,0.67,4.989-0.87,7.025c-0.923,1.223-2.15,2.214-3.688,2.975
				c-1.896,0.812-4.219,0.978-6.975,0.492c-2.758-0.486-5.205-1.533-7.346-3.151c-2.04-1.542-3.347-3.408-3.926-5.605
				c-0.578-2.199-0.098-4.315,1.441-6.354c1.31-1.729,3.102-3.097,5.379-4.099C1000.991,491,1003.023,490.692,1004.813,491.084z"/>
		</g>
		<g>
			<path fill="#553625" d="M939.663,457.422c-1.319,1.222-3.022,2.346-5.113,3.372c-2.091,1.03-4.309,1.7-6.638,2.021
				c-1.608,0.219-3.213,0.178-4.813-0.129c-1.603-0.3-2.995-0.965-4.171-1.994c-0.429-2.022-0.749-3.839-0.967-5.444
				c-0.22-1.604-0.419-3.066-0.599-4.38c-0.157-1.165-0.286-2.114-0.387-2.845c-0.097-0.729-0.158-1.429-0.172-2.097
				c-0.021-0.667-0.038-1.333-0.05-2.001c-0.018-0.667-0.032-1.592-0.045-2.781c-0.216-2.646,0.441-5.188,1.972-7.628
				c1.524-2.438,3.283-4.829,5.266-7.185c1.987-2.348,3.825-4.678,5.521-6.995c1.688-2.307,2.521-4.653,2.494-7.029
				c-0.037-0.29-0.055-0.661-0.035-1.108c0.014-0.448,0.002-0.816-0.037-1.11c-0.241-1.752-0.628-3.483-1.156-5.195
				c-0.533-1.711-1.508-3.14-2.924-4.285c-1.418-1.146-3.465-1.944-6.125-2.397c-2.666-0.455-6.33-0.368-11,0.267
				c-2.047,0.278-3.771,0.735-5.167,1.373c-2.386,1.07-4.239,3.253-5.574,6.557c-1.334,3.303-1.753,6.781-1.255,10.429
				c0.158,1.17,0.347,2.034,0.574,2.599c0.589,2.148,1.632,3.791,3.124,4.925c1.491,1.136,3.043,2.149,4.651,3.047
				c1.606,0.896,3.074,1.85,4.4,2.855c1.326,1.014,2.11,2.391,2.35,4.143c0.183,3.543-0.934,6.259-3.352,8.148
				c-2.419,1.892-5.236,3.055-8.445,3.489c-2.188,0.299-4.426,0.234-6.717-0.2c-4.598-1.008-8.55-4.078-11.846-9.204
				c-3.303-5.125-5.396-10.972-6.29-17.541c-0.599-4.379-0.524-8.771,0.215-13.185c0.837-3.683,2.361-6.936,4.579-9.768
				c2.215-2.827,4.936-5.242,8.159-7.242c3.217-2,6.786-3.635,10.699-4.913c3.912-1.274,7.986-2.203,12.225-2.777l1.093-0.15
				c11.094-1.511,20.129,0.159,27.106,5.007c6.978,4.851,11.353,13.771,13.118,26.759c0.299,2.189-0.392,4.776-2.065,7.752
				c-1.676,2.979-3.539,5.944-5.591,8.899c-2.053,2.952-3.997,5.598-5.835,7.93c-1.836,2.334-2.79,3.802-2.856,4.4
				c-0.015,2.089-0.085,3.214-0.208,3.375c-0.128,0.166-0.14,0.615-0.04,1.346c0.162,1.169,0.38,2.253,0.665,3.252
				c0.282,1.005,0.587,2.672,0.904,5.006L939.663,457.422z M923.698,471.19c1.837-0.696,3.778-1.186,5.82-1.464
				c3.796-0.516,7.161-0.08,10.103,1.304c2.938,1.385,4.604,3.537,5.005,6.455c0.236,1.752,0.037,3.563-0.6,5.435
				c-0.893,2.203-2.659,4.229-5.305,6.072c-2.649,1.845-5.505,2.979-8.572,3.396c-2.921,0.397-5.509-0.065-7.771-1.396
				c-2.264-1.327-3.594-3.447-3.987-6.369c-0.339-2.48,0.015-5.056,1.063-7.727C920.508,474.227,921.92,472.324,923.698,471.19z"/>
		</g>
	</g>
</g>
<text transform="matrix(1 0 0 1 396.5002 204.5)" font-family="'MyriadPro-Regular'" font-size="36">500gb HDD</text>
<text transform="matrix(1 0 0 1 380.5002 365.5)" font-family="'MyriadPro-Regular'" font-size="36">11.6” screen</text>
<text transform="matrix(1 0 0 1 225.5002 610.5)" font-family="'MyriadPro-Regular'" font-size="36">Black</text>
<text transform="matrix(1 0 0 1 163.5002 283.5)" font-family="'MyriadPro-Regular'" font-size="36">256mb SSD</text>
<text transform="matrix(1 0 0 1 163.5002 446.5)" font-family="'MyriadPro-Regular'" font-size="36">17.3” screen</text>
<text transform="matrix(1 0 0 1 396.5002 527.5)" font-family="'MyriadPro-Regular'" font-size="36">White</text>
</svg>
